ZhuqueFangsong（自動保存）.glyphspackage
{
color = 2;
glyphname = exclam;
layers = (
{
layerId = m01;
shapes = (
{
closed = 1;
nodes = (
(145,209,l),
(197,683,l),
(188,694,l),
(105,676,l),
(98,666,l),
(106,210,l),
(117,202,l)
);
},
{
closed = 1;
nodes = (
(156,-12,o),
(180,16,o),
(180,50,cs),
(180,81,o),
(160,107,o),
(123,107,cs),
(85,107,o),
(61,79,o),
(61,45,cs),
(61,16,o),
(79,-12,o),
(117,-12,cs)
);
}
);
width = 285;
}
);
locked = 1;
unicode = 33;
}
{
color = 2;
glyphname = quotedbl;
kernLeft = asterisk;
kernRight = asterisk;
layers = (
{
.lastUpdate = 731845427.541;
background = {
shapes = (
{
closed = 1;
nodes = (
(129,649,l),
(59,635,l),
(59,635,o),
(69,527,o),
(65,417,c),
(76,415,l),
(101,429,l),
(122,531,o),
(136,641,o),
(136,641,c)
);
},
{
closed = 1;
nodes = (
(251,649,l),
(181,635,l),
(181,635,o),
(191,527,o),
(187,417,c),
(198,415,l),
(223,429,l),
(244,531,o),
(258,641,o),
(258,641,c)
);
}
);
};
layerId = m01;
shapes = (
{
alignment = -1;
ref = quotesingle;
},
{
alignment = -1;
pos = (122,0);
ref = quotesingle;
}
);
width = 298;
}
);
locked = 1;
metricLeft = quotesingle;
metricRight = quotesingle;
unicode = 34;
}
{
color = 2;
glyphname = quotesingle;
kernLeft = asterisk;
kernRight = asterisk;
layers = (
{
layerId = m01;
shapes = (
{
closed = 1;
nodes = (
(96,429,l),
(117,531,o),
(131,641,o),
(131,641,c),
(124,649,l),
(54,635,l),
(54,635,o),
(64,527,o),
(60,417,c),
(71,415,l)
);
}
);
width = 176;
}
);
locked = 1;
unicode = 39;
}
{
color = 2;
glyphname = asterisk;
kernLeft = asterisk;
kernRight = asterisk;
layers = (
{
layerId = m01;
shapes = (
{
closed = 1;
nodes = (
(154,434,o),
(182,483,o),
(214,526,c),
(211,533,l),
(182,549,l),
(135,517,o),
(91,473,o),
(91,473,c),
(92,464,l),
(118,446,o),
(154,434,o),
(154,434,cs)
);
},
{
closed = 1;
nodes = (
(180,570,l),
(186,603,l),
(141,637,o),
(86,666,o),
(86,666,c),
(77,662,l),
(68,632,o),
(68,594,o),
(68,594,cs),
(68,594,o),
(123,582,o),
(174,565,c)
);
},
{
closed = 1;
nodes = (
(310,436,o),
(332,466,o),
(332,466,cs),
(332,466,o),
(295,508,o),
(264,552,c),
(256,551,l),
(232,528,l),
(248,474,o),
(276,418,o),
(276,418,c),
(285,417,l)
);
},
{
closed = 1;
nodes = (
(239,616,l),
(257,669,o),
(268,730,o),
(268,730,c),
(261,737,l),
(230,737,o),
(194,725,o),
(194,725,cs),
(194,725,o),
(199,669,o),
(199,615,c),
(205,611,l)
);
},
{
closed = 1;
nodes = (
(323,568,o),
(385,577,o),
(385,577,c),
(389,586,l),
(379,615,o),
(357,646,o),
(357,646,cs),
(357,646,o),
(306,623,o),
(254,607,c),
(253,599,l),
(267,570,l)
);
}
);
width = 456;
}
);
locked = 1;
unicode = 42;
}
{
color = 2;
glyphname = plus;
layers = (
{
layerId = m01;
shapes = (
{
closed = 1;
nodes = (
(279,41,l),
(279,41,o),
(278,147,o),
(278,235,c),
(480,236,l),
(488,287,l),
(482,297,l),
(482,297,o),
(358,291,o),
(278,291,c),
(278,371,o),
(284,494,o),
(284,494,c),
(274,500,l),
(223,492,l),
(222,291,l),
(135,291,o),
(29,292,o),
(29,292,c),
(18,243,l),
(24,234,l),
(24,234,o),
(134,235,o),
(222,235,c),
(222,147,o),
(221,36,o),
(221,36,c),
(230,30,l)
);
}
);
width = 506;
}
);
locked = 1;
unicode = 43;
}
{
color = 2;
glyphname = hyphen;
kernLeft = hyphen;
kernRight = hyphen;
layers = (
{
layerId = m01;
shapes = (
{
closed = 1;
nodes = (
(311,236,l),
(316,290,l),
(309,299,l),
(309,299,o),
(290,295,o),
(244,290,cs),
(70,270,l),
(64,218,l),
(71,210,l)
);
}
);
width = 380;
}
);
locked = 1;
unicode = 45;
}
{
color = 2;
glyphname = slash;
layers = (
{
layerId = m01;
shapes = (
{
closed = 1;
nodes = (
(89,-110,l),
(89,-110,o),
(131,50,o),
(173,215,cs),
(216,377,o),
(295,665,o),
(295,665,c),
(287,675,l),
(241,675,l),
(126,226,ls),
(87,74,o),
(34,-102,o),
(34,-102,c),
(41,-110,l)
);
}
);
width = 329;
}
);
locked = 1;
unicode = 47;
}
{
color = 2;
glyphname = one;
layers = (
{
layerId = m01;
shapes = (
{
closed = 1;
nodes = (
(50,-12,o),
(125,0,o),
(176,0,cs),
(225,0,o),
(309,-3,o),
(309,-3,c),
(318,43,l),
(316,47,l),
(316,47,o),
(287,44,o),
(263,44,cs),
(224,44,o),
(214,59,o),
(214,112,cs),
(214,163,o),
(218,391,o),
(222,497,c),
(225,543,o),
(233,559,o),
(259,581,c),
(253,598,l),
(252,598,o),
(250,596,o),
(150,580,cs),
(99,571,o),
(40,564,o),
(40,565,c),
(36,523,l),
(39,520,l),
(39,520,o),
(71,526,o),
(92,526,cs),
(126,526,o),
(146,520,o),
(146,469,cs),
(146,152,ls),
(146,61,o),
(132,40,o),
(56,34,c),
(50,-12,l)
);
}
);
width = 354;
}
);
locked = 1;
unicode = 49;
}
{
color = 2;
glyphname = six;
layers = (
{
layerId = m01;
shapes = (
{
closed = 1;
nodes = (
(338,-12,o),
(419,75,o),
(419,180,cs),
(419,256,o),
(361,344,o),
(246,344,cs),
(216,344,o),
(135,292,o),
(135,292,c),
(131,294,l),
(183,489,o),
(390,563,o),
(390,563,c),
(379,593,l),
(372,598,l),
(372,598,o),
(40,498,o),
(40,197,cs),
(40,79,o),
(109,-12,o),
(220,-12,cs)
);
},
{
closed = 1;
nodes = (
(165,36,o),
(120,102,o),
(120,203,cs),
(120,218,o),
(121,233,o),
(123,248,c),
(138,259,o),
(180,285,o),
(224,285,cs),
(295,285,o),
(345,223,o),
(345,156,cs),
(345,81,o),
(304,36,o),
(240,36,cs)
);
}
);
width = 455;
}
);
locked = 1;
unicode = 54;
}
{
color = 2;
glyphname = nine;
layers = (
{
layerId = m01;
shapes = (
{
closed = 1;
nodes = (
(83,-11,o),
(415,89,o),
(415,390,cs),
(415,508,o),
(346,599,o),
(235,599,cs),
(117,599,o),
(36,512,o),
(36,407,cs),
(36,331,o),
(94,243,o),
(209,243,cs),
(239,243,o),
(320,295,o),
(320,295,c),
(323,292,l),
(272,97,o),
(65,24,o),
(65,24,c),
(76,-6,l),
(83,-11,l)
);
},
{
closed = 1;
nodes = (
(158,302,o),
(110,362,o),
(110,431,cs),
(110,506,o),
(151,551,o),
(215,551,cs),
(289,551,o),
(335,484,o),
(335,384,cs),
(335,368,o),
(334,353,o),
(332,339,c),
(316,328,o),
(275,302,o),
(231,302,cs)
);
}
);
width = 455;
}
);
locked = 1;
unicode = 57;
}
{
color = 2;
glyphname = colon;
layers = (
{
.lastUpdate = 731845427.54;
background = {
shapes = (
{
closed = 1;
nodes = (
(151,-12,o),
(175,16,o),
(175,50,cs),
(175,81,o),
(155,107,o),
(118,107,cs),
(80,107,o),
(56,79,o),
(56,45,cs),
(56,16,o),
(74,-12,o),
(112,-12,cs)
);
},
{
closed = 1;
nodes = (
(151,268,o),
(175,296,o),
(175,330,cs),
(175,361,o),
(155,387,o),
(118,387,cs),
(80,387,o),
(56,359,o),
(56,325,cs),
(56,296,o),
(74,268,o),
(112,268,cs)
);
}
);
};
layerId = m01;
shapes = (
{
alignment = -1;
pos = (-4,0);
ref = period;
},
{
alignment = -1;
pos = (-4,280);
ref = period;
}
);
width = 238;
}
);
locked = 1;
unicode = 58;
}
{
color = 2;
glyphname = less;
layers = (
{
layerId = m01;
shapes = (
{
closed = 1;
nodes = (
(455,110,l),
(454,121,l),
(454,121,o),
(355,164,o),
(273,200,cs),
(105,270,l),
(105,276,l),
(259,336,l),
(341,370,o),
(453,409,o),
(453,409,c),
(446,459,l),
(437,464,l),
(437,464,o),
(327,422,o),
(236,383,cs),
(33,297,l),
(31,250,l),
(39,239,l),
(39,239,o),
(164,187,o),
(237,155,cs),
(319,120,o),
(425,70,o),
(425,70,c)
);
}
);
width = 506;
}
);
locked = 1;
unicode = 60;
}
{
color = 2;
glyphname = equal;
layers = (
{
background = {
shapes = (
{
closed = 1;
nodes = (
(482,220,l),
(482,220,o),
(348,214,o),
(268,214,cs),
(179,214,o),
(29,215,o),
(29,215,c),
(18,166,l),
(24,157,l),
(24,157,o),
(163,158,o),
(253,158,cs),
(480,159,l),
(488,210,l)
);
},
{
closed = 1;
nodes = (
(482,377,l),
(482,377,o),
(348,371,o),
(268,371,cs),
(179,371,o),
(29,372,o),
(29,372,c),
(18,323,l),
(24,314,l),
(24,314,o),
(163,315,o),
(253,315,cs),
(480,316,l),
(488,367,l)
);
}
);
};
layerId = m01;
shapes = (
{
closed = 1;
nodes = (
(24,314,o),
(163,315,o),
(253,315,cs),
(480,316,l),
(488,367,l),
(482,377,l),
(482,377,o),
(348,371,o),
(268,371,cs),
(179,371,o),
(29,372,o),
(29,372,c),
(18,323,l),
(24,314,l)
);
},
{
closed = 1;
nodes = (
(24,157,o),
(163,158,o),
(253,158,cs),
(480,159,l),
(488,210,l),
(482,220,l),
(482,220,o),
(348,214,o),
(268,214,cs),
(179,214,o),
(29,215,o),
(29,215,c),
(18,166,l),
(24,157,l)
);
}
);
width = 506;
}
);
locked = 1;
unicode = 61;
}
{
color = 2;
glyphname = at;
layers = (
{
layerId = m01;
shapes = (
{
closed = 1;
nodes = (
(457,-173,l),
(457,-171,o),
(457,-168,o),
(457,-166,c),
(210,-152,o),
(104,13,o),
(104,206,cs),
(104,394,o),
(232,557,o),
(435,557,cs),
(612,557,o),
(730,456,o),
(730,280,cs),
(730,146,o),
(659,54,o),
(513,54,c),
(509,58,l),
(535,244,o),
(593,443,o),
(593,443,c),
(585,455,l),
(554,470,l),
(549,469,l),
(540,444,l),
(440,460,l),
(333,460,o),
(211,294,o),
(211,124,cs),
(211,44,o),
(237,-12,o),
(291,-12,c),
(352,31,o),
(412,102,o),
(478,227,c),
(484,225,l),
(484,225,o),
(441,36,o),
(441,17,cs),
(441,-2,o),
(453,-12,o),
(477,-12,cs),
(689,-12,o),
(799,142,o),
(799,304,cs),
(799,477,o),
(661,613,o),
(460,613,cs),
(199,613,o),
(33,406,o),
(33,188,cs),
(33,-20,o),
(170,-197,o),
(431,-209,c)
);
},
{
closed = 1;
nodes = (
(293,69,o),
(281,118,o),
(281,173,cs),
(281,296,o),
(346,406,o),
(409,406,cs),
(450,406,o),
(497,381,o),
(510,373,c),
(433,195,o),
(345,69,o),
(310,69,cs)
);
}
);
width = 832;
}
);
locked = 1;
unicode = 64;
}
{
color = 2;
glyphname = A;
kernLeft = A;
kernRight = A;
layers = (
{
anchors = (
{
name = bottom;
pos = (292,0);
},
{
name = ogonek;
pos = (526,10);
},
{
name = top;
pos = (292,637);
}
);
layerId = m01;
shapes = (
{
closed = 1;
nodes = (
(332,-10,o),
(404,0,o),
(481,0,cs),
(515,0,o),
(587,-3,o),
(587,-3,c),
(594,38,l),
(592,42,l),
(534,47,o),
(512,63,o),
(496,113,cs),
(421,338,o),
(337,649,o),
(337,649,c),
(329,649,l),
(266,632,l),
(71,121,l),
(49,65,o),
(30,48,o),
(-7,44,c),
(-15,-3,l),
(-15,-3,o),
(47,0,o),
(95,0,cs),
(161,0,o),
(234,-7,o),
(234,-7,c),
(240,36,l),
(238,40,l),
(181,40,l),
(139,40,o),
(121,52,o),
(121,81,cs),
(121,90,o),
(124,102,o),
(130,120,cs),
(167,224,l),
(190,227,o),
(237,232,o),
(276,232,cs),
(304,232,o),
(356,232,o),
(380,231,c),
(413,122,l),
(419,103,o),
(422,87,o),
(422,74,cs),
(422,50,o),
(402,41,o),
(333,36,c),
(329,-3,l),
(332,-10,l)
);
},
{
closed = 1;
nodes = (
(280,540,l),
(287,540,l),
(366,278,l),
(343,276,o),
(300,273,o),
(273,273,cs),
(185,273,l)
);
}
);
width = 584;
}
);
locked = 1;
unicode = 65;
}
{
color = 2;
glyphname = B;
kernLeft = H;
kernRight = B;
layers = (
{
anchors = (
{
name = bottom;
pos = (330,0);
},
{
name = top;
pos = (335,647);
}
);
background = {
shapes = (
{
closed = 1;
nodes = (
(223,0,o),
(263,-10,o),
(307,-10,cs),
(433,-10,o),
(542,79,o),
(542,183,cs),
(542,257,o),
(484,314,o),
(387,335,c),
(461,367,o),
(503,423,o),
(503,489,cs),
(503,587,o),
(432,641,o),
(306,641,cs),
(306,641,o),
(225,637,o),
(188,637,cs),
(150,637,o),
(77,640,o),
(77,640,c),
(70,596,l),
(72,592,l),
(72,592,o),
(94,594,o),
(106,594,cs),
(136,594,o),
(143,583,o),
(143,540,cs),
(142,120,ls),
(142,64,o),
(126,46,o),
(64,34,c),
(58,-12,l),
(58,-12,o),
(122,0,o),
(172,0,cs)
);
},
{
closed = 1;
nodes = (
(321,300,l),
(410,284,o),
(456,237,o),
(456,165,cs),
(456,89,o),
(407,41,o),
(327,41,cs),
(244,41,o),
(213,60,o),
(213,111,c),
(217,298,l)
);
},
{
closed = 1;
nodes = (
(221,433,o),
(224,509,o),
(228,575,cs),
(229,593,o),
(232,598,o),
(246,598,cs),
(366,598,o),
(422,558,o),
(422,472,cs),
(422,365,o),
(328,343,o),
(328,343,c),
(313,343,o),
(219,351,o),
(219,351,c)
);
}
);
};
layerId = m01;
shapes = (
{
closed = 1;
nodes = (
(223,0,o),
(263,-10,o),
(307,-10,cs),
(433,-10,o),
(542,79,o),
(542,183,cs),
(542,257,o),
(484,314,o),
(387,335,c),
(461,367,o),
(503,423,o),
(503,489,cs),
(503,587,o),
(433,641,o),
(306,641,cs),
(306,641,o),
(225,637,o),
(188,637,cs),
(150,637,o),
(77,640,o),
(77,640,c),
(70,596,l),
(72,592,l),
(72,592,o),
(94,594,o),
(106,594,cs),
(136,594,o),
(143,583,o),
(143,540,cs),
(142,120,ls),
(142,64,o),
(126,46,o),
(64,34,c),
(58,-12,l),
(58,-12,o),
(122,0,o),
(172,0,cs)
);
},
{
closed = 1;
nodes = (
(321,300,l),
(410,284,o),
(456,237,o),
(456,165,cs),
(456,89,o),
(407,41,o),
(327,41,cs),
(244,41,o),
(213,60,o),
(213,111,c),
(217,298,l)
);
},
{
closed = 1;
nodes = (
(221,434,o),
(224,510,o),
(228,575,cs),
(229,593,o),
(232,598,o),
(246,598,cs),
(366,598,o),
(422,558,o),
(422,472,cs),
(422,365,o),
(328,343,o),
(328,343,c),
(313,343,o),
(219,351,o),
(219,351,c)
);
}
);
width = 597;
}
);
locked = 1;
unicode = 66;
}
{
color = 2;
glyphname = F;
kernLeft = H;
kernRight = F;
layers = (
{
anchors = (
{
name = bottom;
pos = (182,0);
},
{
name = top;
pos = (318,647);
}
);
layerId = m01;
shapes = (
{
closed = 1;
nodes = (
(58,-12,o),
(122,0,o),
(172,0,cs),
(226,0,o),
(321,-4,o),
(321,-4,c),
(330,43,l),
(328,47,l),
(328,47,o),
(277,44,o),
(257,44,cs),
(222,44,o),
(213,58,o),
(213,112,c),
(217,278,l),
(234,281,o),
(264,285,o),
(294,285,cs),
(341,285,o),
(417,282,o),
(417,282,c),
(431,342,l),
(427,347,l),
(427,347,o),
(353,336,o),
(322,336,cs),
(219,337,l),
(227,548,l),
(228,585,o),
(232,587,o),
(297,587,cs),
(419,587,o),
(431,581,o),
(431,516,cs),
(431,502,o),
(429,470,o),
(429,470,c),
(477,474,l),
(483,566,o),
(500,643,o),
(500,643,c),
(497,649,l),
(434,640,o),
(353,637,o),
(216,637,cs),
(156,637,o),
(77,640,o),
(77,640,c),
(70,596,l),
(72,592,l),
(72,592,o),
(94,594,o),
(106,594,cs),
(136,594,o),
(143,583,o),
(143,540,cs),
(142,120,ls),
(142,64,o),
(126,46,o),
(64,34,c),
(58,-12,l)
);
}
);
width = 512;
}
);
locked = 1;
unicode = 70;
}
{
color = 2;
glyphname = G;
kernLeft = O;
kernRight = G;
layers = (
{
anchors = (
{
name = bottom;
pos = (334,0);
},
{
name = top;
pos = (373,637);
}
);
layerId = m01;
shapes = (
{
closed = 1;
nodes = (
(459,-12,o),
(562,34,o),
(562,34,c),
(568,43,l),
(564,60,o),
(561,96,o),
(561,131,cs),
(561,230,o),
(568,265,o),
(592,285,c),
(588,307,l),
(588,307,o),
(545,302,o),
(502,302,cs),
(443,302,o),
(375,306,o),
(375,306,c),
(366,256,l),
(368,252,l),
(368,252,o),
(414,252,o),
(437,252,cs),
(482,252,o),
(492,243,o),
(492,198,cs),
(492,76,l),
(492,76,o),
(435,38,o),
(355,38,cs),
(217,38,o),
(127,153,o),
(127,329,cs),
(127,495,o),
(216,590,o),
(368,590,cs),
(474,590,o),
(519,564,o),
(519,502,cs),
(519,475,o),
(516,448,o),
(516,448,c),
(563,452,l),
(569,544,o),
(589,619,o),
(589,619,c),
(585,625,l),
(585,625,o),
(474,649,o),
(391,649,cs),
(182,649,o),
(40,506,o),
(40,297,cs),
(40,108,o),
(154,-12,o),
(332,-12,cs)
);
}
);
width = 667;
}
);
locked = 1;
unicode = 71;
}
{
color = 2;
glyphname = H;
kernLeft = H;
kernRight = H;
layers = (
{
anchors = (
{
name = bottom;
pos = (377,0);
},
{
name = bottomright;
pos = (606,106);
},
{
name = center;
pos = (377,319);
},
{
name = top;
pos = (377,637);
},
{
name = topleft;
pos = (20,637);
}
);
background = {
shapes = (
{
closed = 1;
nodes = (
(545,450,o),
(555,459,o),
(596,464,c),
(599,505,l),
(599,505,o),
(534,498,o),
(495,498,cs),
(467,498,o),
(409,499,o),
(409,500,c),
(403,462,l),
(405,458,l),
(405,458,o),
(423,459,o),
(433,459,cs),
(457,459,o),
(463,451,o),
(463,417,cs),
(462,283,l),
(418,278,o),
(387,276,o),
(347,276,c),
(217,277,l),
(222,398,ls),
(225,449,o),
(229,457,o),
(275,464,c),
(279,505,l),
(279,505,o),
(219,498,o),
(182,498,cs),
(150,498,o),
(89,500,o),
(89,500,c),
(83,462,l),
(86,458,l),
(86,458,o),
(103,459,o),
(113,459,cs),
(137,459,o),
(143,451,o),
(143,417,cs),
(142,99,ls),
(142,55,o),
(129,41,o),
(79,32,c),
(74,-9,l),
(76,-5,o),
(152,0,o),
(200,0,cs),
(230,0,o),
(278,-2,o),
(278,-2,c),
(285,38,l),
(283,42,l),
(283,42,o),
(264,39,o),
(248,39,cs),
(220,39,o),
(213,50,o),
(213,93,cs),
(216,223,l),
(216,223,o),
(321,231,o),
(347,231,cs),
(382,231,o),
(462,230,o),
(462,230,c),
(462,118,ls),
(462,54,o),
(451,39,o),
(401,39,c),
(393,-1,l),
(393,-1,o),
(463,0,o),
(493,0,cs),
(533,0,o),
(598,-2,o),
(598,-2,c),
(606,38,l),
(603,42,l),
(603,42,o),
(584,40,o),
(568,40,cs),
(540,40,o),
(533,51,o),
(533,93,cs),
(533,163,o),
(538,314,o),
(544,420,cs)
);
}
);
};
layerId = m01;
shapes = (
{
closed = 1;
nodes = (
(60,-7,o),
(149,0,o),
(210,0,cs),
(240,0,o),
(295,-2,o),
(295,-3,c),
(304,43,l),
(302,47,l),
(291,46,o),
(272,44,o),
(257,44,cs),
(222,44,o),
(213,58,o),
(213,112,cs),
(217,291,l),
(284,297,o),
(363,302,o),
(383,302,cs),
(417,302,o),
(489,301,o),
(535,301,c),
(535,150,ls),
(535,62,o),
(522,44,o),
(459,43,c),
(450,-2,l),
(486,-1,o),
(540,0,o),
(565,0,cs),
(597,0,o),
(654,-2,o),
(688,-3,c),
(697,43,l),
(695,47,l),
(684,46,o),
(665,44,o),
(650,44,cs),
(615,44,o),
(606,57,o),
(606,106,cs),
(606,191,o),
(612,389,o),
(620,544,cs),
(622,583,o),
(635,594,o),
(684,601,c),
(688,646,l),
(648,641,o),
(597,637,o),
(568,637,cs),
(536,637,o),
(470,639,o),
(470,640,c),
(463,596,l),
(465,592,l),
(475,593,o),
(490,594,o),
(499,594,cs),
(529,594,o),
(536,583,o),
(536,540,cs),
(535,358,l),
(467,350,o),
(431,348,o),
(387,348,c),
(219,349,l),
(225,511,ls),
(228,583,o),
(235,592,o),
(291,601,c),
(295,646,l),
(259,641,o),
(213,637,o),
(188,637,cs),
(160,637,o),
(108,639,o),
(77,640,c),
(70,596,l),
(72,592,l),
(82,593,o),
(98,594,o),
(106,594,cs),
(136,594,o),
(143,583,o),
(143,540,cs),
(142,120,ls),
(142,64,o),
(126,46,o),
(64,34,c),
(58,-12,l)
);
}
);
width = 754;
}
);
locked = 1;
unicode = 72;
}
{
color = 2;
glyphname = J;
kernLeft = J;
kernRight = J;
layers = (
{
anchors = (
{
name = bottom;
pos = (143,0);
},
{
name = top;
pos = (168,647);
}
);
layerId = m01;
shapes = (
{
closed = 1;
nodes = (
(153,-98,o),
(202,-20,o),
(203,116,cs),
(204,198,o),
(212,455,o),
(216,544,cs),
(218,586,o),
(226,594,o),
(273,601,c),
(277,646,l),
(277,646,o),
(204,637,o),
(161,637,cs),
(53,637,l),
(46,593,l),
(48,589,l),
(48,589,o),
(83,593,o),
(95,593,cs),
(125,593,o),
(132,583,o),
(132,540,cs),
(131,115,ls),
(131,-5,o),
(107,-54,o),
(26,-103,c),
(23,-111,l),
(40,-144,l)
);
}
);
width = 327;
}
);
locked = 1;
unicode = 74;
}
{
color = 2;
glyphname = K;
kernLeft = H;
kernRight = X;
layers = (
{
anchors = (
{
name = bottom;
pos = (372,0);
},
{
name = top;
pos = (343,647);
}
);
layerId = m01;
shapes = (
{
closed = 1;
nodes = (
(242,315,l),
(417,72,ls),
(456,18,o),
(496,-14,o),
(529,-14,cs),
(540,-14,o),
(612,-2,o),
(612,-2,c),
(618,32,l),
(614,36,l),
(567,36,o),
(534,59,o),
(486,121,cs),
(318,340,l),
(479,509,ls),
(539,571,o),
(559,586,o),
(594,593,c),
(601,634,l),
(597,641,l),
(597,641,o),
(544,637,o),
(505,637,cs),
(468,637,o),
(395,644,o),
(395,644,c),
(388,601,l),
(390,597,l),
(433,594,o),
(453,584,o),
(453,567,cs),
(453,553,o),
(443,536,o),
(422,515,cs),
(243,329,l)
);
},
{
closed = 1;
nodes = (
(142,120,ls),
(142,63,o),
(129,50,o),
(67,44,c),
(57,-1,l),
(57,-1,o),
(122,0,o),
(172,0,cs),
(216,0,o),
(295,-3,o),
(295,-3,c),
(304,43,l),
(302,47,l),
(302,47,o),
(277,44,o),
(257,44,cs),
(222,44,o),
(211,58,o),
(213,112,cs),
(225,541,ls),
(226,579,o),
(241,593,o),
(291,601,c),
(295,646,l),
(295,646,o),
(231,637,o),
(188,637,cs),
(150,637,o),
(77,640,o),
(77,640,c),
(70,596,l),
(72,592,l),
(72,592,o),
(94,594,o),
(106,594,cs),
(136,594,o),
(143,583,o),
(143,540,cs)
);
}
);
width = 628;
}
);
locked = 1;
unicode = 75;
}
{
color = 2;
glyphname = L;
kernLeft = H;
kernRight = L;
layers = (
{
anchors = (
{
name = bottom;
pos = (287,0);
},
{
name = top;
pos = (190,647);
}
);
layerId = m01;
shapes = (
{
closed = 1;
nodes = (
(68,-10,o),
(127,0,o),
(202,0,cs),
(297,0,o),
(471,-9,o),
(471,-9,c),
(476,-3,l),
(487,96,o),
(505,187,o),
(505,187,c),
(502,192,l),
(458,187,l),
(436,64,o),
(415,45,o),
(299,45,cs),
(224,45,o),
(214,54,o),
(214,122,cs),
(214,213,o),
(217,383,o),
(226,508,cs),
(231,575,o),
(225,592,o),
(292,601,c),
(296,646,l),
(296,646,o),
(232,637,o),
(189,637,cs),
(151,637,o),
(77,640,o),
(77,640,c),
(70,596,l),
(72,592,l),
(72,592,o),
(94,594,o),
(106,594,cs),
(136,594,o),
(143,583,o),
(143,540,cs),
(142,120,ls),
(142,63,o),
(126,44,o),
(74,36,c),
(68,-10,l)
);
}
);
width = 507;
}
);
locked = 1;
unicode = 76;
}
{
color = 2;
glyphname = N;
kernLeft = H;
kernRight = H;
layers = (
{
anchors = (
{
name = bottom;
pos = (360,0);
},
{
name = top;
pos = (360,637);
}
);
background = {
shapes = (
{
closed = 1;
nodes = (
(473,136,l),
(473,136,o),
(340,311,o),
(211,501,c),
(211,501,o),
(179,498,o),
(150,498,cs),
(123,498,o),
(74,502,o),
(74,502,c),
(67,468,l),
(71,463,l),
(125,457,o),
(141,447,o),
(141,414,c),
(130,84,ls),
(129,52,o),
(113,39,o),
(80,35,c),
(75,-6,l),
(75,-6,o),
(122,0,o),
(158,0,cs),
(193,0,o),
(249,-3,o),
(249,-3,c),
(257,37,l),
(254,40,l),
(254,40,o),
(223,39,o),
(214,39,cs),
(195,39,o),
(188,47,o),
(188,72,cs),
(191,375,l),
(196,375,l),
(196,375,o),
(333,195,o),
(485,-28,c),
(524,-17,l),
(536,413,ls),
(537,444,o),
(553,458,o),
(591,463,c),
(595,504,l),
(595,504,o),
(545,498,o),
(510,498,cs),
(480,498,o),
(425,501,o),
(425,501,c),
(418,462,l),
(420,458,l),
(421,458,o),
(436,458,o),
(450,458,cs),
(468,458,o),
(477,448,o),
(477,425,cs),
(478,136,l)
);
}
);
};
layerId = m01;
shapes = (
{
closed = 1;
nodes = (
(599,-26,l),
(613,536,ls),
(614,575,o),
(635,593,o),
(681,599,c),
(686,645,l),
(686,645,o),
(629,637,o),
(587,637,cs),
(553,637,o),
(492,641,o),
(492,641,c),
(483,596,l),
(485,592,l),
(485,592,o),
(505,593,o),
(523,593,cs),
(545,593,o),
(556,579,o),
(556,550,cs),
(556,145,l),
(551,145,l),
(551,145,o),
(381,383,o),
(215,641,c),
(215,641,o),
(181,637,o),
(148,637,cs),
(120,637,o),
(62,642,o),
(62,642,c),
(54,605,l),
(57,600,l),
(124,593,o),
(144,579,o),
(144,538,c),
(131,101,ls),
(130,60,o),
(110,43,o),
(69,38,c),
(64,-8,l),
(64,-8,o),
(117,0,o),
(157,0,cs),
(200,0,o),
(263,-4,o),
(263,-4,c),
(272,41,l),
(270,45,l),
(270,45,o),
(229,44,o),
(219,44,cs),
(196,44,o),
(188,54,o),
(188,84,cs),
(193,511,l),
(198,511,l),
(198,511,o),
(375,264,o),
(570,-40,c)
);
}
);
width = 719;
}
);
locked = 1;
unicode = 78;
}
{
color = 2;
glyphname = O;
kernLeft = O;
kernRight = O;
layers = (
{
anchors = (
{
name = bottom;
pos = (346,0);
},
{
name = center;
pos = (346,319);
},
{
name = ogonek;
pos = (623,10);
},
{
name = top;
pos = (346,637);
},
{
name = topleft;
pos = (20,637);
},
{
name = topright;
pos = (672,637);
}
);
layerId = m01;
shapes = (
{
closed = 1;
nodes = (
(506,-12,o),
(652,142,o),
(652,341,cs),
(652,523,o),
(536,649,o),
(369,649,cs),
(184,649,o),
(40,495,o),
(40,297,cs),
(40,114,o),
(153,-12,o),
(317,-12,cs)
);
},
{
closed = 1;
nodes = (
(217,39,o),
(126,158,o),
(126,329,cs),
(126,483,o),
(211,589,o),
(335,589,cs),
(470,589,o),
(563,470,o),
(563,299,cs),
(563,145,o),
(475,39,o),
(348,39,cs)
);
}
);
width = 692;
}
);
locked = 1;
unicode = 79;
}
{
color = 2;
glyphname = Q;
kernLeft = O;
kernRight = O;
layers = (
{
anchors = (
{
name = bottom;
pos = (423,0);
},
{
name = top;
pos = (333,647);
}
);
layerId = m01;
shapes = (
{
closed = 1;
nodes = (
(729,-216,o),
(804,-148,o),
(804,-148,c),
(798,-130,l),
(794,-127,l),
(794,-127,o),
(761,-137,o),
(714,-137,cs),
(634,-137,o),
(549,-101,o),
(407,-5,c),
(407,0,l),
(550,40,o),
(652,175,o),
(652,341,cs),
(652,523,o),
(536,649,o),
(369,649,cs),
(184,649,o),
(40,495,o),
(40,297,cs),
(40,114,o),
(153,-12,o),
(317,-12,c),
(554,-185,o),
(614,-216,o),
(709,-216,cs)
);
},
{
closed = 1;
nodes = (
(217,39,o),
(126,158,o),
(126,329,cs),
(126,483,o),
(211,589,o),
(335,589,cs),
(470,589,o),
(563,470,o),
(563,299,cs),
(563,145,o),
(475,39,o),
(348,39,cs)
);
}
);
width = 697;
}
);
locked = 1;
unicode = 81;
}
{
color = 2;
glyphname = S;
kernLeft = S;
kernRight = S;
layers = (
{
anchors = (
{
name = bottom;
pos = (245,0);
},
{
name = top;
pos = (275,637);
}
);
background = {
shapes = (
{
closed = 1;
nodes = (
(464,643,l),
(464,643,o),
(36,-4,o),
(36,-4,c)
);
}
);
};
layerId = m01;
shapes = (
{
closed = 1;
nodes = (
(364,-12,o),
(466,69,o),
(466,183,cs),
(466,274,o),
(368,320,o),
(281,365,cs),
(210,402,o),
(145,439,o),
(145,499,cs),
(145,554,o),
(198,595,o),
(271,595,cs),
(361,595,o),
(390,572,o),
(390,502,cs),
(390,471,o),
(387,450,o),
(387,450,c),
(393,445,l),
(432,449,l),
(438,541,o),
(454,618,o),
(454,618,c),
(451,624,l),
(451,624,o),
(387,649,o),
(298,649,cs),
(168,649,o),
(68,568,o),
(68,463,cs),
(68,376,o),
(151,330,o),
(231,288,cs),
(308,248,o),
(383,212,o),
(383,147,cs),
(383,79,o),
(327,37,o),
(244,37,cs),
(136,37,o),
(114,67,o),
(114,211,c),
(69,206,l),
(69,109,o),
(57,32,o),
(57,32,c),
(62,22,l),
(62,22,o),
(125,-12,o),
(219,-12,cs)
);
}
);
width = 530;
}
);
locked = 1;
unicode = 83;
}
{
color = 2;
glyphname = T;
kernLeft = T;
kernRight = T;
layers = (
{
anchors = (
{
name = bottom;
pos = (273,0);
},
{
name = center;
pos = (273,324);
},
{
name = top;
pos = (273,637);
}
);
background = {
shapes = (
{
closed = 1;
nodes = (
(233,162,ls),
(233,60,o),
(229,48,o),
(133,39,c),
(125,-4,l),
(125,-4,o),
(213,0,o),
(262,0,cs),
(309,0,o),
(409,-3,o),
(409,-3,c),
(418,43,l),
(415,47,l),
(415,47,o),
(395,44,o),
(360,44,cs),
(319,44,o),
(303,63,o),
(303,112,cs),
(303,274,o),
(311,518,o),
(319,598,c),
(451,592,o),
(467,599,o),
(488,468,c),
(535,472,l),
(535,472,o),
(523,556,o),
(520,641,c),
(511,649,l),
(426,638,l),
(116,638,l),
(33,649,l),
(24,641,l),
(21,556,o),
(9,468,o),
(9,468,c),
(56,472,l),
(75,600,o),
(91,592,o),
(233,598,c)
);
}
);
};
layerId = m01;
shapes = (
{
closed = 1;
nodes = (
(166,-2,o),
(229,0,o),
(262,0,cs),
(296,0,o),
(366,-2,o),
(409,-3,c),
(418,43,l),
(415,47,l),
(398,45,o),
(378,44,o),
(360,44,cs),
(319,44,o),
(303,63,o),
(303,112,cs),
(303,275,o),
(311,518,o),
(319,598,c),
(464,591,o),
(468,588,o),
(488,468,c),
(535,472,l),
(528,525,o),
(522,594,o),
(520,641,c),
(511,649,l),
(426,638,l),
(116,638,l),
(33,649,l),
(24,641,l),
(22,594,o),
(16,525,o),
(9,468,c),
(56,472,l),
(73,590,o),
(77,593,o),
(233,598,c),
(233,162,ls),
(233,56,o),
(226,47,o),
(133,39,c),
(125,-4,l)
);
}
);
width = 546;
}
);
locked = 1;
unicode = 84;
}
{
color = 2;
glyphname = W;
kernLeft = V;
kernRight = V;
layers = (
{
anchors = (
{
name = bottom;
pos = (495,0);
},
{
name = top;
pos = (518,647);
}
);
layerId = m01;
shapes = (
{
closed = 1;
nodes = (
(315,5,l),
(457,407,l),
(463,407,l),
(531,188,o),
(588,-17,o),
(588,-17,c),
(650,5,l),
(860,545,l),
(874,584,o),
(885,591,o),
(924,593,c),
(931,640,l),
(931,640,o),
(871,637,o),
(825,637,cs),
(761,637,o),
(686,644,o),
(686,644,c),
(679,601,l),
(681,597,l),
(731,597,ls),
(779,597,o),
(799,587,o),
(799,562,cs),
(799,532,o),
(687,232,o),
(637,97,c),
(631,97,l),
(631,97,o),
(507,527,o),
(507,560,cs),
(507,589,o),
(525,597,o),
(594,602,c),
(598,641,l),
(595,648,l),
(595,648,o),
(510,637,o),
(450,637,cs),
(417,637,o),
(337,640,o),
(337,640,c),
(330,597,l),
(332,593,l),
(381,591,o),
(409,576,o),
(422,536,cs),
(428,518,o),
(434,499,o),
(440,481,c),
(393,353,o),
(346,225,o),
(299,97,c),
(293,97,l),
(293,97,o),
(170,522,o),
(170,561,cs),
(170,589,o),
(188,597,o),
(256,602,c),
(260,641,l),
(257,648,l),
(257,648,o),
(183,637,o),
(112,637,cs),
(79,637,o),
(-1,640,o),
(-1,640,c),
(-7,597,l),
(-7,596,o),
(-6,594,o),
(-6,593,c),
(44,592,o),
(72,574,o),
(84,536,cs),
(168,276,o),
(251,-17,o),
(251,-17,c)
);
}
);
width = 932;
}
);
locked = 1;
unicode = 87;
}
{
color = 2;
glyphname = X;
kernLeft = X;
kernRight = X;
layers = (
{
anchors = (
{
name = bottom;
pos = (271,0);
},
{
name = top;
pos = (390,647);
}
);
background = {
shapes = (
{
closed = 1;
nodes = (
(221,346,l),
(139,467,ls),
(96,530,o),
(69,539,o),
(20,551,c),
(15,557,l),
(24,648,l),
(24,648,o),
(94,647,o),
(200,647,cs),
(244,647,o),
(373,653,o),
(373,653,c),
(379,642,l),
(372,560,l),
(345,560,o),
(333,552,o),
(333,536,cs),
(333,510,o),
(360,475,o),
(396,424,c),
(421,468,o),
(457,524,o),
(457,541,cs),
(457,556,o),
(448,561,o),
(419,561,c),
(417,567,l),
(423,647,l),
(475,647,o),
(526,647,o),
(578,647,cs),
(636,647,o),
(707,650,o),
(707,650,c),
(711,642,l),
(706,555,l),
(642,524,o),
(612,499,o),
(578,446,cs),
(484,301,l),
(571,179,ls),
(613,120,o),
(648,94,o),
(696,93,c),
(700,89,l),
(691,-1,l),
(691,-1,o),
(594,2,o),
(556,2,cs),
(509,2,o),
(349,-5,o),
(349,-5,c),
(342,2,l),
(349,86,l),
(368,87,o),
(378,93,o),
(378,106,cs),
(378,114,o),
(375,122,o),
(367,133,cs),
(306,221,l),
(268,158,ls),
(258,142,o),
(251,127,o),
(251,118,cs),
(251,97,o),
(263,88,o),
(290,88,c),
(296,77,l),
(291,-4,l),
(291,-4,o),
(172,2,o),
(140,2,cs),
(100,2,o),
(6,-4,o),
(6,-4,c),
(1,10,l),
(7,90,l),
(36,104,o),
(96,166,o),
(133,219,cs),
(221,346,l)
);
}
);
};
layerId = m01;
shapes = (
{
closed = 1;
nodes = (
(365,-8,o),
(464,0,o),
(520,0,cs),
(566,0,o),
(644,-3,o),
(644,-3,c),
(651,40,l),
(649,44,l),
(586,50,o),
(548,75,o),
(512,127,cs),
(366,340,l),
(487,493,ls),
(542,562,o),
(563,585,o),
(623,597,c),
(629,634,l),
(625,641,l),
(625,641,o),
(567,637,o),
(528,637,cs),
(491,637,o),
(418,644,o),
(418,644,c),
(412,605,l),
(414,601,l),
(455,597,o),
(472,589,o),
(472,571,cs),
(472,543,o),
(386,439,o),
(341,377,c),
(274,479,o),
(228,551,o),
(228,567,cs),
(228,589,o),
(251,599,o),
(306,603,c),
(309,638,l),
(306,645,l),
(306,645,o),
(250,637,o),
(171,637,cs),
(125,637,o),
(27,640,o),
(27,640,c),
(21,601,l),
(23,597,l),
(84,589,o),
(127,563,o),
(160,514,cs),
(291,318,l),
(181,182,ls),
(121,108,o),
(78,61,o),
(19,44,c),
(12,3,l),
(16,-4,l),
(16,-4,o),
(76,0,o),
(115,0,cs),
(152,0,o),
(225,-7,o),
(225,-7,c),
(232,36,l),
(230,40,l),
(190,43,o),
(172,52,o),
(172,70,cs),
(172,89,o),
(184,107,o),
(223,159,cs),
(315,281,l),
(424,117,ls),
(437,98,o),
(444,85,o),
(444,73,cs),
(444,50,o),
(419,41,o),
(366,38,c),
(362,-1,l),
(365,-8,l)
);
}
);
width = 656;
}
);
locked = 1;
unicode = 88;
}
{
color = 2;
glyphname = Y;
kernLeft = Y;
kernRight = Y;
layers = (
{
anchors = (
{
name = bottom;
pos = (269,0);
},
{
name = center;
pos = (267,181);
},
{
name = top;
pos = (279,637);
},
{
name = topleft;
pos = (20,637);
}
);
layerId = m01;
shapes = (
{
closed = 1;
nodes = (
(144,-12,o),
(208,0,o),
(258,0,cs),
(302,0,o),
(385,-3,o),
(385,-3,c),
(394,43,l),
(392,47,l),
(392,47,o),
(363,44,o),
(343,44,cs),
(308,44,o),
(298,61,o),
(299,112,cs),
(301,221,o),
(300,255,o),
(321,291,cs),
(421,467,ls),
(475,562,o),
(483,584,o),
(552,597,c),
(558,634,l),
(554,641,l),
(554,641,o),
(501,637,o),
(462,637,cs),
(425,637,o),
(351,644,o),
(351,644,c),
(345,605,l),
(347,601,l),
(390,598,o),
(410,588,o),
(410,571,cs),
(410,557,o),
(404,539,o),
(394,521,cs),
(280,309,l),
(275,309,l),
(274,309,o),
(163,538,o),
(163,567,cs),
(163,590,o),
(179,598,o),
(239,603,c),
(242,638,l),
(239,645,l),
(239,645,o),
(153,637,o),
(97,637,cs),
(51,637,o),
(-13,640,o),
(-13,640,c),
(-19,601,l),
(-17,597,l),
(61,590,o),
(69,564,o),
(109,482,cs),
(199,299,ls),
(223,251,o),
(228,225,o),
(228,186,cs),
(228,142,ls),
(228,68,o),
(222,48,o),
(150,34,c),
(144,-12,l)
);
}
);
width = 538;
}
);
locked = 1;
unicode = 89;
}
{
color = 2;
glyphname = backslash;
layers = (
{
layerId = m01;
shapes = (
{
closed = 1;
nodes = (
(291,-110,l),
(298,-102,l),
(298,-102,o),
(245,74,o),
(206,226,cs),
(91,675,l),
(45,675,l),
(37,665,l),
(37,665,o),
(116,377,o),
(159,215,cs),
(201,50,o),
(243,-110,o),
(243,-110,c)
);
}
);
width = 329;
}
);
locked = 1;
unicode = 92;
}
{
color = 2;
glyphname = asciicircum;
layers = (
{
layerId = m01;
shapes = (
{
closed = 1;
nodes = (
(270,481,l),
(223,479,l),
(137,276,ls),
(98,185,o),
(56,75,o),
(56,75,c),
(61,66,l),
(111,59,l),
(111,59,o),
(150,171,o),
(184,253,cs),
(244,407,l),
(250,407,l),
(320,239,l),
(356,157,o),
(399,58,o),
(399,58,c),
(410,57,l),
(450,87,l),
(450,87,o),
(400,193,o),
(365,275,cs),
(333,348,o),
(281,473,o),
(281,473,c)
);
}
);
width = 506;
}
);
locked = 1;
unicode = 94;
}
{
color = 2;
glyphname = a;
kernLeft = a;
kernRight = n;
layers = (
{
anchors = (
{
name = bottom;
pos = (229,0);
},
{
name = ogonek;
pos = (420,41);
},
{
name = top;
pos = (217,452);
}
);
background = {
shapes = (
{
closed = 1;
nodes = (
(284,248,l),
(94,196,ls),
(62,187,o),
(41,155,o),
(41,116,cs),
(41,44,o),
(95,-8,o),
(169,-8,cs),
(189,-8,o),
(231,22,o),
(279,70,c),
(283,69,l),
(288,15,o),
(318,-12,o),
(372,-12,c),
(422,5,o),
(459,68,o),
(459,68,c),
(445,84,l),
(445,84,o),
(417,59,o),
(385,59,cs),
(359,59,o),
(344,76,o),
(344,105,cs),
(344,164,o),
(362,299,o),
(362,335,cs),
(362,416,o),
(310,464,o),
(223,464,cs),
(180,464,o),
(60,394,o),
(60,394,c),
(72,351,l),
(77,348,l),
(77,348,o),
(132,398,o),
(197,398,cs),
(253,398,o),
(285,359,o),
(285,292,c)
);
},
{
closed = 1;
nodes = (
(277,108,l),
(249,80,o),
(211,60,o),
(186,60,cs),
(146,60,o),
(117,89,o),
(117,127,cs),
(117,148,o),
(127,163,o),
(146,169,cs),
(282,210,l)
);
}
);
};
layerId = m01;
shapes = (
{
closed = 1;
nodes = (
(409,0,o),
(443,41,o),
(459,68,c),
(445,84,l),
(433,73,o),
(408,59,o),
(385,59,cs),
(359,59,o),
(344,76,o),
(344,105,cs),
(344,164,o),
(362,299,o),
(362,335,cs),
(362,416,o),
(310,464,o),
(223,464,cs),
(192,464,o),
(112,424,o),
(60,394,c),
(72,351,l),
(77,348,l),
(117,380,o),
(160,398,o),
(197,398,cs),
(253,398,o),
(285,359,o),
(285,292,c),
(284,248,l),
(94,196,ls),
(62,187,o),
(41,155,o),
(41,116,cs),
(41,44,o),
(95,-8,o),
(169,-8,cs),
(189,-8,o),
(231,22,o),
(279,70,c),
(283,69,l),
(288,15,o),
(318,-12,o),
(372,-12,c)
);
},
{
closed = 1;
nodes = (
(146,60,o),
(117,89,o),
(117,127,cs),
(117,148,o),
(127,163,o),
(146,169,cs),
(282,210,l),
(277,108,l),
(249,80,o),
(211,60,o),
(186,60,cs)
);
}
);
width = 466;
}
);
locked = 1;
unicode = 97;
}
{
color = 2;
glyphname = b;
kernLeft = h;
kernRight = o;
layers = (
{
anchors = (
{
name = bottom;
pos = (252,0);
},
{
name = top;
pos = (215,463);
}
);
layerId = m01;
shapes = (
{
closed = 1;
nodes = (
(361,-12,o),
(472,104,o),
(472,250,cs),
(472,377,o),
(393,464,o),
(279,464,cs),
(265,464,o),
(219,438,o),
(158,394,cs),
(163,582,o),
(172,715,o),
(181,729,cs),
(175,742,ls),
(175,742,o),
(96,722,o),
(27,713,cs),
(23,680,l),
(26,677,l),
(26,677,o),
(37,680,o),
(48,680,cs),
(73,680,o),
(85,663,o),
(85,626,c),
(85,8,l),
(94,0,ls),
(94,0,o),
(156,-12,o),
(223,-12,cs)
);
},
{
closed = 1;
nodes = (
(219,43,o),
(177,52,o),
(153,64,cs),
(156,342,ls),
(190,373,o),
(236,396,o),
(263,396,cs),
(337,396,o),
(395,315,o),
(395,213,cs),
(395,108,o),
(340,43,o),
(251,43,cs)
);
}
);
width = 508;
}
);
locked = 1;
unicode = 98;
}
{
color = 2;
glyphname = d;
kernLeft = o;
layers = (
{
anchors = (
{
name = bottom;
pos = (264,0);
},
{
name = center;
pos = (376,236);
},
{
name = top;
pos = (390,730);
}
);
layerId = m01;
shapes = (
{
closed = 1;
nodes = (
(497,2,o),
(537,68,o),
(537,68,c),
(523,84,l),
(523,84,o),
(495,59,o),
(463,59,cs),
(437,59,o),
(422,76,o),
(422,105,cs),
(422,398,o),
(436,706,o),
(450,729,c),
(444,742,l),
(444,742,o),
(365,722,o),
(296,713,c),
(292,676,l),
(292,676,o),
(306,680,o),
(317,680,cs),
(342,680,o),
(354,663,o),
(354,626,cs),
(354,460,l),
(326,463,o),
(303,464,o),
(285,464,cs),
(148,464,o),
(36,346,o),
(36,202,cs),
(36,76,o),
(114,-9,o),
(229,-9,cs),
(243,-9,o),
(285,15,o),
(354,62,c),
(361,59,l),
(368,12,o),
(397,-12,o),
(450,-12,c)
);
},
{
closed = 1;
nodes = (
(171,56,o),
(113,135,o),
(113,236,cs),
(113,341,o),
(168,406,o),
(257,406,cs),
(317,406,o),
(354,383,o),
(354,383,c),
(354,109,l),
(354,109,o),
(293,56,o),
(245,56,cs)
);
}
);
width = 537;
}
);
locked = 1;
unicode = 100;
}
{
color = 2;
glyphname = f;
kernLeft = f;
kernRight = f;
layers = (
{
anchors = (
{
name = bottom;
pos = (157,0);
},
{
name = top;
pos = (265,749);
}
);
layerId = m01;
shapes = (
{
closed = 1;
nodes = (
(46,-4,o),
(102,0,o),
(158,0,cs),
(197,0,o),
(282,-2,o),
(282,-2,c),
(289,41,l),
(287,45,l),
(287,45,o),
(261,43,o),
(227,43,cs),
(192,43,o),
(176,60,o),
(176,98,cs),
(180,399,l),
(250,399,o),
(312,396,o),
(312,396,c),
(322,449,l),
(319,452,l),
(319,452,o),
(252,449,o),
(181,449,c),
(182,498,ls),
(184,623,o),
(221,683,o),
(297,683,cs),
(362,683,o),
(412,646,o),
(412,646,c),
(423,649,l),
(438,686,o),
(454,714,o),
(454,714,c),
(452,723,l),
(452,723,o),
(406,742,o),
(338,742,cs),
(198,742,o),
(109,634,o),
(108,460,cs),
(108,456,l),
(48,445,l),
(41,411,l),
(45,405,l),
(94,403,o),
(106,396,o),
(108,364,c),
(108,94,ls),
(108,60,o),
(89,40,o),
(51,35,c),
(46,-4,l)
);
}
);
width = 330;
}
);
locked = 1;
unicode = 102;
}
{
color = 2;
glyphname = h;
kernLeft = h;
kernRight = n;
layers = (
{
anchors = (
{
name = bottom;
pos = (257,0);
},
{
name = center;
pos = (267,226);
},
{
name = top;
pos = (129,690);
}
);
layerId = m01;
shapes = (
{
closed = 1;
nodes = (
(29,-2,l),
(57,-1,o),
(100,0,o),
(128,0,cs),
(155,0,o),
(196,-2,o),
(219,-3,c),
(228,40,l),
(226,44,l),
(215,43,o),
(199,42,o),
(191,42,cs),
(165,42,o),
(155,57,o),
(155,98,cs),
(155,183,o),
(156,266,o),
(158,341,c),
(197,372,o),
(252,396,o),
(285,396,cs),
(338,396,o),
(368,358,o),
(368,292,cs),
(362,94,ls),
(362,59,o),
(346,40,o),
(306,29,c),
(302,-12,l),
(339,-5,o),
(381,0,o),
(405,0,cs),
(432,0,o),
(472,-2,o),
(494,-3,c),
(502,40,l),
(500,44,l),
(489,43,o),
(473,42,o),
(465,42,cs),
(440,42,o),
(430,59,o),
(430,98,cs),
(430,156,o),
(446,300,o),
(446,335,cs),
(446,417,o),
(396,464,o),
(309,464,cs),
(271,464,o),
(178,399,o),
(159,386,c),
(164,574,o),
(174,714,o),
(183,729,c),
(177,742,l),
(140,732,o),
(75,719,o),
(29,713,c),
(25,681,l),
(29,678,l),
(50,678,l),
(76,678,o),
(87,662,o),
(87,626,cs),
(87,94,l),
(87,57,o),
(73,43,o),
(35,39,c)
);
}
);
width = 534;
}
);
locked = 1;
unicode = 104;
}
{
color = 2;
glyphname = j;
kernLeft = j;
kernRight = j;
layers = (
{
anchors = (
{
name = bottom;
pos = (243,0);
},
{
name = top;
pos = (125,463);
}
);
layerId = m01;
shapes = (
{
closed = 1;
nodes = (
(115,-191,o),
(160,-110,o),
(160,-14,cs),
(160,269,o),
(166,433,o),
(177,452,c),
(172,464,l),
(172,464,o),
(89,444,o),
(28,436,c),
(24,399,l),
(24,399,o),
(40,402,o),
(51,402,cs),
(81,402,o),
(91,389,o),
(91,348,cs),
(91,38,ls),
(91,-99,o),
(74,-157,o),
(17,-214,c),
(15,-222,l),
(33,-241,l)
);
},
{
closed = 1;
nodes = (
(154,602,o),
(180,628,o),
(180,661,cs),
(180,691,o),
(159,712,o),
(131,712,cs),
(98,712,o),
(72,686,o),
(72,653,cs),
(72,623,o),
(92,602,o),
(121,602,cs)
);
}
);
width = 250;
}
);
locked = 1;
unicode = 106;
}
{
color = 2;
glyphname = k;
kernLeft = h;
kernRight = x;
layers = (
{
anchors = (
{
name = bottom;
pos = (282,0);
},
{
name = top;
pos = (119,687);
}
);
layerId = m01;
shapes = (
{
closed = 1;
nodes = (
(29,-6,l),
(29,-6,o),
(86,0,o),
(128,0,cs),
(165,0,o),
(219,-3,o),
(219,-3,c),
(228,40,l),
(226,44,l),
(226,44,o),
(203,42,o),
(191,42,cs),
(165,42,o),
(155,57,o),
(155,98,cs),
(155,398,o),
(169,707,o),
(183,729,c),
(177,742,l),
(177,742,o),
(98,722,o),
(29,713,c),
(27,694,ls),
(26,688,o),
(25,682,o),
(25,676,cs),
(25,676,o),
(39,680,o),
(50,680,cs),
(75,680,o),
(87,663,o),
(87,626,cs),
(87,135,ls),
(87,68,o),
(88,43,o),
(34,35,c)
);
},
{
closed = 1;
nodes = (
(298,71,ls),
(329,28,o),
(347,7,o),
(368,-4,cs),
(378,-9,o),
(390,-14,o),
(403,-14,cs),
(418,-14,o),
(477,2,o),
(477,2,c),
(483,31,l),
(480,36,l),
(439,36,o),
(405,59,o),
(359,118,cs),
(254,253,l),
(320,317,o),
(395,401,o),
(467,422,c),
(475,453,l),
(472,458,l),
(472,458,o),
(415,452,o),
(377,452,cs),
(341,452,o),
(276,454,o),
(276,454,c),
(267,425,l),
(270,420,l),
(309,420,o),
(325,414,o),
(325,399,cs),
(325,389,o),
(319,381,o),
(301,364,cs),
(182,250,l),
(180,234,l)
);
}
);
width = 497;
}
);
locked = 1;
unicode = 107;
}
{
color = 2;
glyphname = l;
kernLeft = h;
kernRight = l;
layers = (
{
anchors = (
{
name = bottom;
pos = (130,0);
},
{
name = top;
pos = (146,720);
},
{
name = topright;
pos = (267,472);
}
);
background = {
shapes = (
{
closed = 1;
nodes = (
(67,-5,o),
(106,0,o),
(130,0,cs),
(157,0,o),
(197,-2,o),
(219,-3,c),
(227,40,l),
(225,44,l),
(190,42,l),
(165,42,o),
(155,58,o),
(155,98,cs),
(155,392,o),
(169,707,o),
(183,729,c),
(177,742,l),
(143,733,o),
(81,720,o),
(29,713,c),
(25,679,l),
(28,677,l),
(78,683,o),
(87,675,o),
(87,626,cs),
(87,135,ls),
(87,72,o),
(89,45,o),
(31,29,c),
(27,-12,l)
);
}
);
};
layerId = m01;
shapes = (
{
closed = 1;
nodes = (
(67,-5,o),
(106,0,o),
(130,0,cs),
(157,0,o),
(197,-2,o),
(219,-3,c),
(227,40,l),
(225,44,l),
(190,42,l),
(165,42,o),
(155,58,o),
(155,98,cs),
(155,392,o),
(169,707,o),
(183,729,c),
(177,742,l),
(128,729,o),
(78,720,o),
(29,713,c),
(25,679,l),
(28,677,l),
(78,683,o),
(87,675,o),
(87,626,cs),
(87,135,ls),
(87,72,o),
(89,45,o),
(31,29,c),
(27,-12,l)
);
}
);
width = 244;
}
);
locked = 1;
unicode = 108;
}
{
color = 2;
glyphname = m;
kernLeft = n;
kernRight = n;
layers = (
{
anchors = (
{
name = bottom;
pos = (438,0);
},
{
name = top;
pos = (435,452);
}
);
layerId = m01;
shapes = (
{
closed = 1;
nodes = (
(321,-12,l),
(321,-12,o),
(382,0,o),
(424,0,cs),
(461,0,o),
(513,-3,o),
(513,-3,c),
(521,40,l),
(519,44,l),
(519,44,o),
(496,42,o),
(484,42,cs),
(459,42,o),
(449,59,o),
(449,98,c),
(460,346,l),
(482,362,o),
(533,396,o),
(581,396,cs),
(634,396,o),
(664,358,o),
(664,292,cs),
(660,94,l),
(660,57,o),
(645,41,o),
(607,35,c),
(602,-6,l),
(602,-6,o),
(659,0,o),
(701,0,cs),
(738,0,o),
(792,-3,o),
(792,-3,c),
(801,40,l),
(799,44,l),
(799,44,o),
(776,42,o),
(764,42,cs),
(738,42,o),
(728,57,o),
(728,98,cs),
(728,156,o),
(742,300,o),
(742,335,cs),
(742,414,o),
(689,464,o),
(605,464,cs),
(566,464,o),
(471,397,o),
(454,385,c),
(436,435,o),
(390,464,o),
(326,464,cs),
(290,464,o),
(204,405,o),
(179,388,c),
(177,391,l),
(179,425,o),
(188,457,o),
(188,457,c),
(182,465,l),
(182,465,o),
(111,447,o),
(42,436,c),
(39,403,l),
(42,399,l),
(53,399,l),
(89,399,o),
(102,383,o),
(102,338,cs),
(102,94,l),
(102,57,o),
(88,43,o),
(50,39,c),
(44,-2,l),
(44,-2,o),
(101,0,o),
(143,0,cs),
(180,0,o),
(234,-3,o),
(234,-3,c),
(243,40,l),
(241,44,l),
(241,44,o),
(218,42,o),
(206,42,cs),
(180,42,o),
(170,57,o),
(170,98,cs),
(170,137,o),
(176,275,o),
(179,344,c),
(199,359,o),
(253,396,o),
(302,396,cs),
(355,396,o),
(385,358,o),
(385,292,cs),
(381,94,l),
(381,59,o),
(365,40,o),
(325,29,c)
);
}
);
width = 832;
}
);
locked = 1;
unicode = 109;
}
{
color = 2;
glyphname = s;
kernLeft = s;
kernRight = s;
layers = (
{
anchors = (
{
name = bottom;
pos = (201,0);
},
{
name = top;
pos = (201,452);
}
);
layerId = m01;
shapes = (
{
closed = 1;
nodes = (
(269,-12,o),
(354,54,o),
(354,131,cs),
(354,181,o),
(322,214,o),
(214,271,cs),
(152,303,o),
(127,329,o),
(127,361,cs),
(127,391,o),
(163,416,o),
(208,416,cs),
(265,416,o),
(290,395,o),
(290,347,cs),
(290,338,o),
(288,318,o),
(288,318,c),
(325,321,l),
(330,387,o),
(344,443,o),
(344,443,c),
(342,448,l),
(342,448,o),
(296,464,o),
(242,464,cs),
(137,464,o),
(58,404,o),
(58,322,cs),
(58,274,o),
(91,236,o),
(167,197,cs),
(259,148,o),
(283,127,o),
(283,94,cs),
(283,61,o),
(243,35,o),
(193,35,cs),
(122,35,o),
(96,67,o),
(96,155,c),
(61,150,l),
(60,117,o),
(53,37,o),
(49,16,c),
(52,9,l),
(52,9,o),
(98,-12,o),
(171,-12,cs)
);
}
);
width = 402;
}
);
locked = 1;
unicode = 115;
}
{
color = 2;
glyphname = t;
kernLeft = t;
kernRight = t;
layers = (
{
anchors = (
{
name = bottom;
pos = (195,0);
},
{
name = center;
pos = (167,236);
},
{
name = top;
pos = (164,471);
}
);
layerId = m01;
shapes = (
{
closed = 1;
nodes = (
(230,-12,o),
(307,48,o),
(307,48,c),
(297,74,l),
(297,74,o),
(262,56,o),
(229,56,cs),
(172,56,o),
(151,81,o),
(151,149,cs),
(151,252,o),
(154,336,o),
(158,399,c),
(303,396,l),
(312,449,l),
(309,452,l),
(162,449,l),
(166,498,o),
(170,524,o),
(170,524,c),
(150,532,l),
(150,532,o),
(91,473,o),
(26,441,c),
(21,411,l),
(25,405,l),
(69,403,o),
(82,391,o),
(82,355,cs),
(82,109,ls),
(82,21,o),
(115,-12,o),
(206,-12,cs)
);
}
);
width = 330;
}
);
locked = 1;
unicode = 116;
}
{
color = 2;
glyphname = v;
kernLeft = v;
kernRight = v;
layers = (
{
anchors = (
{
name = bottom;
pos = (200,0);
},
{
name = top;
pos = (270,452);
}
);
background = {
shapes = (
{
closed = 1;
nodes = (
(346,368,o),
(299,265,o),
(225,81,c),
(221,81,l),
(221,81,o),
(136,368,o),
(136,397,cs),
(136,415,o),
(149,421,o),
(195,423,c),
(201,454,l),
(199,459,l),
(199,459,o),
(140,452,o),
(79,452,cs),
(56,452,o),
(-4,453,o),
(-4,453,c),
(-10,420,l),
(-8,416,l),
(26,415,o),
(49,398,o),
(60,366,cs),
(89,280,o),
(182,-17,o),
(182,-17,c),
(236,0,l),
(381,341,ls),
(406,399,o),
(417,412,o),
(445,416,c),
(452,453,l),
(452,453,o),
(405,452,o),
(370,452,cs),
(321,452,o),
(266,453,o),
(266,453,c),
(261,422,l),
(265,416,l),
(303,416,ls),
(335,416,o),
(346,410,o),
(346,392,cs)
);
}
);
};
layerId = m01;
shapes = (
{
closed = 1;
nodes = (
(238,0,l),
(381,341,l),
(406,399,o),
(417,412,o),
(445,416,c),
(452,453,l),
(452,453,o),
(405,452,o),
(370,452,cs),
(321,452,o),
(263,453,o),
(263,453,c),
(258,422,l),
(262,416,l),
(300,416,l),
(332,416,o),
(343,410,o),
(343,392,cs),
(343,368,o),
(299,270,o),
(225,86,c),
(221,86,l),
(221,86,o),
(136,368,o),
(136,397,cs),
(136,415,o),
(149,421,o),
(195,423,c),
(201,454,l),
(199,459,l),
(199,459,o),
(140,452,o),
(79,452,cs),
(56,452,o),
(-4,453,o),
(-4,453,c),
(-10,420,l),
(-8,416,l),
(26,415,o),
(49,398,o),
(60,366,cs),
(89,280,o),
(182,-17,o),
(182,-17,c)
);
}
);
width = 445;
}
);
locked = 1;
unicode = 118;
}
{
color = 2;
glyphname = w;
kernLeft = v;
kernRight = v;
layers = (
{
anchors = (
{
name = bottom;
pos = (345,0);
},
{
name = top;
pos = (394,452);
}
);
background = {
shapes = (
{
closed = 1;
nodes = (
(602,368,o),
(557,265,o),
(485,81,c),
(481,81,l),
(481,81,o),
(399,368,o),
(399,397,cs),
(399,414,o),
(410,419,o),
(456,421,c),
(462,452,l),
(460,457,l),
(460,457,o),
(402,452,o),
(343,452,cs),
(321,452,o),
(263,453,o),
(263,453,c),
(257,420,l),
(259,416,l),
(300,416,o),
(316,392,o),
(330,350,c),
(312,300,o),
(275,211,o),
(224,81,c),
(220,81,l),
(220,81,o),
(138,366,o),
(138,397,cs),
(138,415,o),
(151,421,o),
(195,423,c),
(201,454,l),
(199,459,l),
(199,459,o),
(142,452,o),
(82,452,cs),
(60,452,o),
(2,453,o),
(2,453,c),
(-4,420,l),
(-2,416,l),
(32,415,o),
(53,398,o),
(64,366,cs),
(92,280,o),
(182,-17,o),
(182,-17,c),
(236,0,l),
(347,278,l),
(353,278,l),
(390,158,o),
(443,-17,o),
(443,-17,c),
(496,0,l),
(637,341,ls),
(661,399,o),
(672,413,o),
(699,416,c),
(706,453,l),
(706,453,o),
(657,452,o),
(624,452,cs),
(576,452,o),
(525,454,o),
(525,454,c),
(520,423,l),
(524,417,l),
(561,417,ls),
(591,417,o),
(602,410,o),
(602,392,cs)
);
}
);
};
layerId = m01;
shapes = (
{
closed = 1;
nodes = (
(237,0,l),
(347,278,l),
(353,278,l),
(390,158,o),
(443,-17,o),
(443,-17,c),
(497,0,l),
(637,341,ls),
(661,399,o),
(672,413,o),
(699,416,c),
(706,453,l),
(706,453,o),
(657,452,o),
(624,452,cs),
(576,452,o),
(525,454,o),
(525,454,c),
(520,423,l),
(524,417,l),
(561,417,ls),
(591,417,o),
(602,410,o),
(602,392,cs),
(602,368,o),
(558,269,o),
(486,85,c),
(482,85,l),
(482,85,o),
(399,368,o),
(399,397,cs),
(399,414,o),
(410,419,o),
(456,421,c),
(462,452,l),
(460,457,l),
(460,457,o),
(402,452,o),
(343,452,cs),
(321,452,o),
(263,453,o),
(263,453,c),
(257,420,l),
(259,416,l),
(300,416,o),
(316,392,o),
(330,350,c),
(312,300,o),
(276,215,o),
(225,85,c),
(221,85,l),
(221,85,o),
(138,366,o),
(138,397,cs),
(138,415,o),
(151,421,o),
(195,423,c),
(201,454,l),
(199,459,l),
(199,459,o),
(142,452,o),
(82,452,cs),
(60,452,o),
(2,453,o),
(2,453,c),
(-4,420,l),
(-2,416,l),
(32,415,o),
(53,398,o),
(64,366,cs),
(92,280,o),
(182,-17,o),
(182,-17,c)
);
}
);
width = 705;
}
);
locked = 1;
unicode = 119;
}
{
color = 2;
glyphname = y;
kernLeft = v;
kernRight = v;
layers = (
{
anchors = (
{
name = bottom;
pos = (323,0);
},
{
name = top;
pos = (223,452);
}
);
background = {
shapes = (
{
closed = 1;
nodes = (
(249,0,l),
(386,344,l),
(410,402,o),
(421,415,o),
(449,420,c),
(455,457,l),
(455,457,o),
(408,455,o),
(373,455,cs),
(324,455,o),
(266,454,o),
(266,454,c),
(261,423,l),
(266,417,l),
(304,417,l),
(336,418,o),
(347,412,o),
(347,394,cs),
(347,370,o),
(305,271,o),
(234,86,c),
(230,86,l),
(230,86,o),
(140,366,o),
(140,395,cs),
(140,413,o),
(153,420,o),
(198,423,c),
(204,454,l),
(202,459,l),
(202,459,o),
(143,452,o),
(82,449,cs),
(59,448,o),
(-1,449,o),
(-1,449,c),
(-6,416,l),
(-4,412,l),
(30,412,o),
(53,395,o),
(64,363,cs),
(94,277,o),
(193,-18,o),
(193,-18,c)
);
}
);
};
layerId = m01;
shapes = (
{
closed = 1;
nodes = (
(124,-243,o),
(164,-183,o),
(263,55,cs),
(390,359,l),
(404,398,o),
(416,411,o),
(446,416,c),
(453,453,l),
(453,453,o),
(403,452,o),
(368,452,cs),
(319,452,o),
(266,456,o),
(266,456,c),
(260,423,l),
(262,419,l),
(308,419,ls),
(334,419,o),
(346,411,o),
(346,393,cs),
(346,373,o),
(277,204,o),
(231,94,c),
(227,94,l),
(227,94,o),
(139,362,o),
(139,397,cs),
(139,415,o),
(150,421,o),
(196,423,c),
(202,454,l),
(200,459,l),
(200,459,o),
(139,452,o),
(80,452,cs),
(57,452,o),
(-3,453,o),
(-3,453,c),
(-9,420,l),
(-7,416,l),
(26,415,o),
(48,403,o),
(61,368,cs),
(98,270,o),
(154,98,o),
(185,0,c),
(139,-109,o),
(74,-177,o),
(-3,-177,c),
(-8,-184,l),
(-8,-197,o),
(26,-241,o),
(36,-241,cs)
);
}
);
width = 446;
}
);
locked = 1;
unicode = 121;
}
{
color = 2;
glyphname = z;
kernLeft = z;
kernRight = z;
layers = (
{
anchors = (
{
name = bottom;
pos = (210,0);
},
{
name = top;
pos = (245,452);
}
);
layerId = m01;
shapes = (
{
closed = 1;
nodes = (
(46,-2,l),
(98,3,l),
(379,-6,l),
(395,10,l),
(395,82,o),
(412,171,o),
(412,171,c),
(372,166,l),
(358,83,o),
(331,48,o),
(278,44,cs),
(130,35,l),
(159,78,o),
(274,245,o),
(416,428,c),
(408,449,l),
(198,454,l),
(70,462,l),
(64,457,l),
(63,393,o),
(53,312,o),
(53,312,c),
(92,318,l),
(99,385,o),
(118,404,o),
(183,408,c),
(308,414,l),
(36,23,l)
);
}
);
width = 460;
}
);
locked = 1;
unicode = 122;
}
{
color = 2;
glyphname = bar;
kernLeft = bar;
kernRight = bar;
layers = (
{
layerId = m01;
shapes = (
{
closed = 1;
nodes = (
(220,-258,l),
(220,-258,o),
(219,119,o),
(219,291,cs),
(219,457,o),
(225,801,o),
(225,801,c),
(214,807,l),
(154,796,l),
(153,276,ls),
(152,97,o),
(152,-263,o),
(152,-263,c),
(161,-269,l)
);
}
);
width = 372;
}
);
locked = 1;
unicode = 124;
}
{
color = 2;
glyphname = braceright;
layers = (
{
layerId = m01;
shapes = (
{
closed = 1;
nodes = (
(163,-133,o),
(207,-79,o),
(207,-17,cs),
(207,42,o),
(166,119,o),
(166,165,cs),
(166,208,o),
(211,235,o),
(259,248,c),
(263,269,l),
(209,281,o),
(166,307,o),
(166,357,cs),
(166,398,o),
(207,474,o),
(207,533,cs),
(207,595,o),
(162,649,o),
(83,649,cs),
(53,649,o),
(29,641,o),
(29,641,c),
(21,613,l),
(24,607,l),
(24,607,o),
(54,613,o),
(74,613,cs),
(119,613,o),
(136,581,o),
(136,545,cs),
(136,499,o),
(109,415,o),
(109,362,cs),
(109,301,o),
(144,271,o),
(182,257,c),
(182,251,l),
(148,240,o),
(109,212,o),
(109,151,cs),
(109,101,o),
(136,17,o),
(136,-28,cs),
(136,-64,o),
(119,-97,o),
(75,-97,cs),
(58,-97,o),
(29,-92,o),
(29,-92,c),
(21,-122,l),
(24,-127,l),
(24,-127,o),
(55,-133,o),
(81,-133,cs)
);
}
);
width = 309;
}
);
locked = 1;
unicode = 125;
}
{
color = 2;
glyphname = sterling;
layers = (
{
layerId = m01;
shapes = (
{
closed = 1;
nodes = (
(438,-12,o),
(471,28,o),
(471,82,cs),
(471,101,o),
(467,119,o),
(458,140,c),
(440,142,l),
(435,91,o),
(410,67,o),
(365,67,cs),
(315,67,o),
(251,89,o),
(193,89,c),
(138,78,l),
(177,110,o),
(199,155,o),
(202,208,c),
(204,287,l),
(281,287,o),
(360,284,o),
(360,284,c),
(370,337,l),
(367,340,l),
(367,340,o),
(283,337,o),
(206,337,c),
(209,415,ls),
(212,498,o),
(242,539,o),
(300,539,cs),
(327,539,o),
(362,528,o),
(403,506,c),
(422,509,l),
(445,572,l),
(440,583,l),
(420,592,o),
(377,598,o),
(337,598,cs),
(220,598,o),
(142,504,o),
(142,361,cs),
(142,344,l),
(82,333,l),
(75,299,l),
(79,293,l),
(129,290,o),
(140,283,o),
(142,252,c),
(142,204,ls),
(142,141,o),
(107,87,o),
(38,41,c),
(53,7,l),
(60,3,l),
(88,24,o),
(114,33,o),
(144,33,cs),
(223,33,o),
(324,-12,o),
(395,-12,cs)
);
}
);
width = 525;
}
);
locked = 1;
unicode = 163;
}
{
color = 2;
glyphname = currency;
layers = (
{
layerId = m01;
shapes = (
{
closed = 1;
nodes = (
(84,173,o),
(116,204,o),
(151,240,c),
(175,223,o),
(204,213,o),
(236,213,cs),
(268,213,o),
(298,223,o),
(322,240,c),
(388,174,l),
(428,204,l),
(431,215,l),
(431,215,o),
(396,247,o),
(360,281,c),
(374,303,o),
(383,330,o),
(383,359,cs),
(383,391,o),
(373,421,o),
(355,445,c),
(425,514,l),
(398,554,l),
(385,557,l),
(385,557,o),
(352,520,o),
(317,482,c),
(294,497,o),
(266,506,o),
(236,506,cs),
(206,506,o),
(178,497,o),
(155,482,c),
(120,517,o),
(88,551,o),
(88,551,c),
(49,525,l),
(47,513,l),
(47,513,o),
(81,480,o),
(117,444,c),
(100,420,o),
(90,391,o),
(90,359,cs),
(90,329,o),
(99,300,o),
(115,277,c),
(82,245,o),
(50,215,o),
(50,215,c),
(73,176,l),
(84,173,l)
);
},
{
closed = 1;
nodes = (
(182,261,o),
(138,305,o),
(138,359,cs),
(138,414,o),
(182,458,o),
(236,458,cs),
(291,458,o),
(335,414,o),
(335,359,cs),
(335,305,o),
(291,261,o),
(236,261,cs)
);
}
);
width = 475;
}
);
locked = 1;
unicode = 164;
}
{
color = 2;
glyphname = brokenbar;
layers = (
{
background = {
shapes = (
{
closed = 1;
nodes = (
(214,807,l),
(154,796,l),
(153,276,ls),
(152,97,o),
(152,-263,o),
(152,-263,c),
(161,-269,l),
(220,-258,l),
(220,-258,o),
(219,119,o),
(219,291,cs),
(219,457,o),
(225,801,o),
(225,801,c)
);
}
);
};
layerId = m01;
shapes = (
{
closed = 1;
nodes = (
(219,376,l),
(220,552,o),
(225,801,o),
(225,801,c),
(214,807,l),
(154,796,l),
(154,654,o),
(153,512,o),
(153,370,c),
(157,367,l)
);
},
{
closed = 1;
nodes = (
(220,-258,l),
(220,-258,o),
(219,-19,o),
(219,175,c),
(216,178,l),
(152,166,l),
(152,23,o),
(152,-120,o),
(152,-263,c),
(161,-269,l)
);
}
);
width = 372;
}
);
locked = 1;
unicode = 166;
}
{
color = 2;
glyphname = section;
layers = (
{
background = {
shapes = (
{
closed = 1;
nodes = (
(418,207,o),
(177,209,o),
(177,314,cs),
(177,336,o),
(189,352,o),
(206,366,c),
(138,406,l),
(85,381,o),
(21,336,o),
(21,262,cs),
(21,120,o),
(233,115,o),
(233,47,cs),
(233,32,o),
(221,23,o),
(201,23,cs),
(157,23,o),
(116,60,o),
(109,105,c),
(82,107,l),
(56,72,o),
(42,28,o),
(42,-18,cs),
(42,-57,o),
(118,-95,o),
(198,-95,cs),
(323,-95,o),
(418,-25,o),
(418,67,cs)
);
},
{
closed = 1;
nodes = (
(358,154,l),
(421,187,o),
(469,234,o),
(469,291,cs),
(469,424,o),
(264,453,o),
(264,510,cs),
(264,525,o),
(278,536,o),
(295,536,cs),
(321,536,o),
(348,512,o),
(360,479,c),
(385,479,l),
(403,494,o),
(427,570,o),
(427,608,cs),
(427,635,o),
(357,659,o),
(280,659,cs),
(162,659,o),
(75,592,o),
(75,501,cs),
(75,358,o),
(307,354,o),
(307,245,cs),
(307,225,o),
(298,211,o),
(284,198,c)
);
}
);
};
layerId = m01;
shapes = (
{
closed = 1;
nodes = (
(360,191,o),
(91,263,o),
(91,383,cs),
(91,426,o),
(112,455,o),
(164,484,c),
(160,518,l),
(83,475,o),
(35,410,o),
(35,350,cs),
(35,184,o),
(302,137,o),
(302,14,cs),
(302,-27,o),
(267,-58,o),
(225,-58,cs),
(166,-58,o),
(120,-11,o),
(107,60,c),
(92,60,l),
(85,50,o),
(77,5,o),
(77,-25,cs),
(77,-71,o),
(127,-105,o),
(194,-105,cs),
(290,-105,o),
(362,-19,o),
(360,42,c)
);
},
{
closed = 1;
nodes = (
(351,31,l),
(424,64,o),
(477,138,o),
(477,208,cs),
(477,365,o),
(206,414,o),
(206,538,cs),
(206,574,o),
(230,600,o),
(262,600,cs),
(302,600,o),
(345,568,o),
(364,522,c),
(378,522,l),
(386,531,o),
(397,576,o),
(397,600,cs),
(397,626,o),
(350,649,o),
(298,649,cs),
(217,649,o),
(151,582,o),
(151,504,cs),
(151,366,o),
(419,284,o),
(419,173,cs),
(419,129,o),
(394,94,o),
(348,68,c)
);
}
);
width = 512;
}
);
locked = 1;
unicode = 167;
}
{
color = 2;
glyphname = degree;
layers = (
{
layerId = m01;
shapes = (
{
closed = 1;
nodes = (
(221,397,o),
(277,453,o),
(277,523,cs),
(277,593,o),
(221,649,o),
(151,649,cs),
(81,649,o),
(25,593,o),
(25,523,cs),
(25,453,o),
(81,397,o),
(151,397,cs)
);
},
{
closed = 1;
nodes = (
(105,439,o),
(67,477,o),
(67,523,cs),
(67,569,o),
(105,607,o),
(151,607,cs),
(197,607,o),
(235,569,o),
(235,523,cs),
(235,477,o),
(197,439,o),
(151,439,cs)
);
}
);
width = 302;
}
);
locked = 1;
unicode = 176;
}
{
color = 2;
glyphname = micro;
layers = (
{
layerId = m01;
shapes = (
{
closed = 1;
nodes = (
(279,-7,o),
(317,22,o),
(359,118,c),
(369,113,l),
(394,185,o),
(422,282,o),
(456,414,c),
(440,434,o),
(421,449,o),
(397,463,c),
(371,446,l),
(361,389,o),
(354,314,o),
(353,230,c),
(318,137,o),
(276,80,o),
(218,80,cs),
(182,80,o),
(159,105,o),
(139,179,c),
(105,72,l),
(135,87,l),
(155,48,o),
(185,16,o),
(225,-7,c)
);
},
{
closed = 1;
nodes = (
(126,-235,o),
(160,-230,o),
(177,-224,c),
(151,-122,o),
(133,-25,o),
(129,80,c),
(172,433,l),
(118,461,l),
(104,461,l),
(84,448,l),
(67,332,o),
(72,270,o),
(112,139,c),
(102,264,l),
(78,-229,l),
(94,-240,l)
);
},
{
closed = 1;
nodes = (
(509,13,o),
(529,47,o),
(537,87,c),
(532,95,l),
(429,68,o),
(395,95,o),
(398,190,cs),
(401,271,l),
(358,268,l),
(363,129,ls),
(367,30,o),
(402,-11,o),
(475,-11,c)
);
}
);
width = 547;
}
);
locked = 1;
production = uni00B5;
unicode = 181;
}
{
color = 2;
glyphname = periodcentered;
kernLeft = hyphen;
kernRight = hyphen;
layers = (
{
layerId = m01;
shapes = (
{
closed = 1;
nodes = (
(155,168,o),
(179,196,o),
(179,230,cs),
(179,261,o),
(159,287,o),
(122,287,cs),
(84,287,o),
(60,259,o),
(60,225,cs),
(60,196,o),
(78,168,o),
(116,168,cs)
);
}
);
width = 238;
}
);
locked = 1;
unicode = 183;
}
{
color = 2;
glyphname = AE;
kernLeft = A;
kernRight = E;
layers = (
{
anchors = (
{
name = top;
pos = (499,647);
}
);
layerId = m01;
shapes = (
{
closed = 1;
nodes = (
(299,-3,l),
(301,-10,l),
(301,-10,o),
(372,0,o),
(449,0,cs),
(483,0,ls),
(584,0,o),
(752,-8,o),
(752,-7,c),
(757,-1,l),
(766,84,o),
(784,167,o),
(784,167,c),
(781,172,l),
(737,167,l),
(722,57,o),
(704,45,o),
(559,45,cs),
(505,45,o),
(483,62,o),
(475,113,cs),
(447,282,l),
(556,291,l),
(642,294,l),
(655,347,l),
(651,352,l),
(559,339,l),
(441,328,l),
(410,556,l),
(411,584,o),
(418,587,o),
(480,587,cs),
(623,587,o),
(637,581,o),
(637,516,cs),
(637,502,o),
(635,473,o),
(635,473,c),
(683,477,l),
(689,569,o),
(706,643,o),
(706,643,c),
(703,649,l),
(643,640,o),
(563,637,o),
(405,637,cs),
(310,637,o),
(246,641,o),
(246,640,c),
(239,596,l),
(241,592,l),
(241,592,o),
(263,594,o),
(275,594,cs),
(289,594,o),
(297,590,o),
(300,578,c),
(53,121,ls),
(23,66,o),
(-10,31,o),
(-10,31,c),
(-3,-4,l),
(-3,-4,o),
(43,0,o),
(65,0,cs),
(129,0,o),
(203,-7,o),
(203,-7,c),
(208,40,l),
(151,40,ls),
(113,40,o),
(96,51,o),
(96,74,cs),
(96,85,o),
(100,97,o),
(112,120,cs),
(183,258,l),
(274,268,l),
(373,276,l),
(391,153,ls),
(394,131,o),
(398,109,o),
(398,87,cs),
(398,51,o),
(380,42,o),
(301,36,c)
);
},
{
closed = 1;
nodes = (
(210,310,l),
(328,539,l),
(337,539,l),
(367,321,l),
(294,315,l)
);
}
);
width = 810;
}
);
locked = 1;
unicode = 198;
}
{
color = 2;
glyphname = Thorn;
kernLeft = H;
kernRight = P;
layers = (
{
layerId = m01;
shapes = (
{
closed = 1;
nodes = (
(56,-12,o),
(121,0,o),
(172,0,cs),
(219,0,o),
(303,-3,o),
(303,-3,c),
(312,43,l),
(310,47,l),
(310,47,o),
(281,44,o),
(257,44,cs),
(222,44,o),
(213,58,o),
(213,112,cs),
(213,148,l),
(284,148,ls),
(410,148,o),
(521,237,o),
(521,340,cs),
(521,445,o),
(445,503,o),
(307,503,cs),
(225,503,l),
(224,513,o),
(226,523,o),
(227,544,c),
(229,582,o),
(243,594,o),
(299,601,c),
(303,646,l),
(303,646,o),
(234,637,o),
(188,637,cs),
(147,637,o),
(69,640,o),
(69,640,c),
(62,596,l),
(64,592,l),
(64,592,o),
(91,594,o),
(106,594,cs),
(136,594,o),
(143,582,o),
(143,540,cs),
(142,120,ls),
(142,64,o),
(125,46,o),
(62,34,c),
(56,-12,l)
);
},
{
closed = 1;
nodes = (
(287,193,o),
(238,201,o),
(214,209,c),
(215,260,o),
(217,331,o),
(222,446,cs),
(224,453,o),
(226,454,o),
(249,454,cs),
(379,454,o),
(437,413,o),
(437,321,cs),
(437,246,o),
(396,202,o),
(316,192,c)
);
}
);
width = 543;
}
);
locked = 1;
unicode = 222;
}
{
color = 2;
glyphname = germandbls;
kernLeft = f;
layers = (
{
layerId = m01;
shapes = (
{
closed = 1;
nodes = (
(500,-12,o),
(582,62,o),
(582,147,cs),
(582,284,o),
(365,309,o),
(365,397,cs),
(365,473,o),
(491,507,o),
(491,620,cs),
(491,683,o),
(418,742,o),
(339,742,cs),
(194,742,o),
(108,636,o),
(108,456,cs),
(48,445,l),
(41,411,l),
(45,405,ls),
(92,403,o),
(106,394,o),
(108,364,cs),
(108,108,ls),
(108,58,o),
(98,41,o),
(51,35,cs),
(46,-4,ls),
(46,-4,o),
(102,0,o),
(158,0,cs),
(188,0,o),
(257,-2,o),
(257,-2,cs),
(264,40,l),
(262,44,ls),
(262,44,o),
(244,43,o),
(215,43,cs),
(189,43,o),
(175,63,o),
(176,98,cs),
(182,498,ls),
(183,625,o),
(219,683,o),
(295,683,cs),
(373,683,o),
(422,646,o),
(422,588,cs),
(422,513,o),
(291,471,o),
(291,378,cs),
(291,241,o),
(511,220,o),
(511,115,cs),
(511,72,o),
(475,32,o),
(435,32,cs),
(375,32,o),
(340,67,o),
(340,127,c),
(326,127,l),
(310,108,o),
(288,60,o),
(288,41,cs),
(288,11,o),
(339,-12,o),
(404,-12,cs)
);
}
);
width = 591;
}
);
locked = 1;
unicode = 223;
}
{
color = 2;
glyphname = divide;
layers = (
{
layerId = m01;
shapes = (
{
closed = 1;
nodes = (
(24,234,o),
(163,235,o),
(253,235,cs),
(480,236,l),
(488,287,l),
(482,297,l),
(482,297,o),
(348,291,o),
(268,291,cs),
(179,291,o),
(29,292,o),
(29,292,c),
(18,243,l),
(24,234,l)
);
},
{
closed = 1;
nodes = (
(284,29,o),
(308,57,o),
(308,91,cs),
(308,122,o),
(288,148,o),
(251,148,cs),
(213,148,o),
(189,120,o),
(189,86,cs),
(189,57,o),
(207,29,o),
(245,29,cs)
);
},
{
closed = 1;
nodes = (
(284,378,o),
(308,406,o),
(308,440,cs),
(308,471,o),
(288,497,o),
(251,497,cs),
(213,497,o),
(189,469,o),
(189,435,cs),
(189,406,o),
(207,378,o),
(245,378,cs)
);
}
);
width = 506;
}
);
locked = 1;
unicode = 247;
}
{
color = 2;
glyphname = oslash;
kernLeft = o;
kernRight = o;
layers = (
{
anchors = (
{
name = top;
pos = (255,472);
}
);
layerId = m01;
shapes = (
{
closed = 1;
nodes = (
(357,403,l),
(324,417,l),
(144,70,l),
(176,56,l)
);
},
{
closed = 1;
nodes = (
(176,56,l),
(144,70,l),
(65,-82,l),
(67,-92,l),
(94,-98,l)
);
},
{
closed = 1;
nodes = (
(420,520,l),
(417,532,l),
(388,539,l),
(324,417,l),
(357,403,l)
);
},
{
ref = o;
}
);
width = 498;
}
);
locked = 1;
unicode = 248;
}
{
color = 2;
glyphname = thorn;
kernLeft = h;
kernRight = o;
layers = (
{
anchors = (
{
name = bottom;
pos = (217,0);
},
{
name = top;
pos = (217,463);
}
);
background = {
shapes = (
{
closed = 1;
nodes = (
(21,-234,o),
(104,-230,o),
(165,-230,cs),
(186,-230,o),
(207,-230,o),
(228,-230,c),
(236,-192,l),
(234,-189,l),
(160,-192,o),
(152,-184,o),
(152,-111,cs),
(152,-8,l),
(170,-11,o),
(190,-12,o),
(223,-12,cs),
(360,-12,o),
(472,106,o),
(472,250,cs),
(472,359,o),
(412,442,o),
(320,460,cs),
(312,463,o),
(300,464,o),
(279,464,cs),
(265,464,o),
(220,438,o),
(158,394,c),
(163,584,o),
(172,715,o),
(181,729,c),
(175,742,l),
(141,733,o),
(79,720,o),
(27,713,c),
(23,676,l),
(71,683,o),
(85,673,o),
(85,633,cs),
(85,94,l),
(83,-97,ls),
(82,-168,o),
(84,-191,o),
(26,-198,c),
(21,-237,ls)
);
},
{
closed = 1;
nodes = (
(219,43,o),
(177,52,o),
(153,64,c),
(156,342,l),
(194,374,o),
(238,396,o),
(263,396,cs),
(337,396,o),
(395,315,o),
(395,213,cs),
(395,108,o),
(340,43,o),
(251,43,cs)
);
}
);
};
layerId = m01;
shapes = (
{
closed = 1;
nodes = (
(54,-233,o),
(108,-230,o),
(165,-230,cs),
(186,-230,o),
(207,-230,o),
(228,-230,c),
(236,-192,l),
(234,-189,l),
(160,-192,o),
(152,-184,o),
(152,-111,cs),
(152,-8,l),
(223,-12,l),
(360,-12,o),
(472,106,o),
(472,250,cs),
(472,376,o),
(393,464,o),
(279,464,cs),
(265,464,o),
(220,438,o),
(158,394,c),
(163,584,o),
(172,715,o),
(181,729,c),
(175,742,l),
(137,732,o),
(75,719,o),
(27,713,c),
(23,676,l),
(71,683,o),
(85,673,o),
(85,633,cs),
(85,94,l),
(83,-97,ls),
(82,-168,o),
(84,-191,o),
(26,-198,c),
(21,-237,l)
);
},
{
closed = 1;
nodes = (
(153,64,l),
(156,342,l),
(194,374,o),
(238,396,o),
(263,396,cs),
(337,396,o),
(395,315,o),
(395,213,cs),
(395,108,o),
(340,43,o),
(251,43,c)
);
}
);
width = 510;
}
);
locked = 1;
unicode = 254;
}
{
color = 2;
glyphname = eogonek;
kernLeft = o;
kernRight = e;
layers = (
{
background = {
shapes = (
{
closed = 1;
nodes = (
(115,295,l),
(127,368,o),
(176,413,o),
(238,413,cs),
(291,413,o),
(321,384,o),
(321,331,cs),
(321,311,o),
(316,306,o),
(296,304,cs)
);
},
{
closed = 1;
nodes = (
(387,258,l),
(400,270,l),
(400,270,o),
(406,294,o),
(406,319,cs),
(406,414,o),
(355,464,o),
(257,464,cs),
(138,464,o),
(36,346,o),
(36,209,cs),
(36,77,o),
(120,-12,o),
(246,-12,cs),
(306,-12,o),
(399,56,o),
(399,56,c),
(388,85,l),
(382,87,l),
(382,87,o),
(321,56,o),
(259,56,cs),
(170,56,o),
(111,130,o),
(111,242,cs),
(111,258,l)
);
},
{
closed = 1;
nodes = (
(402,-159,l),
(402,-159,o),
(364,-182,o),
(325,-182,cs),
(290,-182,o),
(267,-159,o),
(267,-128,cs),
(267,-79,o),
(301,-42,o),
(383,42,c),
(341,42,l),
(269,-30,o),
(204,-89,o),
(204,-147,cs),
(204,-207,o),
(250,-241,o),
(315,-241,c),
(366,-224,o),
(415,-178,o),
(415,-178,c)
);
}
);
};
layerId = m01;
shapes = (
{
closed = 1;
nodes = (
(306,-12,o),
(399,56,o),
(399,56,c),
(388,85,l),
(382,87,l),
(382,87,o),
(321,56,o),
(259,56,cs),
(170,56,o),
(111,130,o),
(111,242,cs),
(111,258,l),
(387,258,l),
(400,270,l),
(400,270,o),
(406,294,o),
(406,319,cs),
(406,414,o),
(355,464,o),
(257,464,cs),
(138,464,o),
(36,346,o),
(36,209,cs),
(36,77,o),
(120,-12,o),
(246,-12,cs)
);
},
{
closed = 1;
nodes = (
(366,-224,o),
(415,-178,o),
(415,-178,c),
(402,-159,l),
(402,-159,o),
(364,-182,o),
(325,-182,cs),
(290,-182,o),
(267,-159,o),
(267,-128,cs),
(267,-75,o),
(307,-35,o),
(399,56,c),
(357,56,l),
(278,-22,o),
(204,-85,o),
(204,-147,cs),
(204,-207,o),
(250,-241,o),
(315,-241,c)
);
},
{
closed = 1;
nodes = (
(127,368,o),
(176,413,o),
(238,413,cs),
(291,413,o),
(321,384,o),
(321,331,cs),
(321,311,o),
(316,306,o),
(296,304,cs),
(115,295,l)
);
}
);
width = 448;
}
);
locked = 1;
unicode = 281;
}
{
color = 2;
glyphname = Hbar;
kernLeft = H;
kernRight = H;
layers = (
{
anchors = (
{
name = bottom;
pos = (376,0);
},
{
name = center;
pos = (368,324);
},
{
name = top;
pos = (371,647);
}
);
layerId = m01;
shapes = (
{
closed = 1;
nodes = (
(51,448,o),
(233,449,o),
(374,449,cs),
(703,450,l),
(707,487,l),
(694,500,l),
(694,500,o),
(516,495,o),
(396,495,cs),
(256,495,o),
(49,496,o),
(49,496,c),
(42,457,l),
(51,448,l)
);
},
{
alignment = 1;
pos = (-2,0);
ref = H;
}
);
width = 750;
}
);
locked = 1;
unicode = 294;
}
{
color = 2;
glyphname = hbar;
kernLeft = h;
kernRight = n;
layers = (
{
layerId = m01;
shapes = (
{
closed = 1;
nodes = (
(17,521,o),
(80,522,o),
(130,522,cs),
(299,523,l),
(303,560,l),
(290,573,l),
(290,573,o),
(195,568,o),
(152,568,cs),
(97,568,o),
(15,569,o),
(15,569,c),
(8,530,l),
(17,521,l)
);
},
{
alignment = -1;
pos = (2,0);
ref = h;
}
);
width = 536;
}
);
locked = 1;
unicode = 295;
}
{
color = 2;
glyphname = Lcaron;
kernLeft = H;
kernRight = L;
layers = (
{
layerId = m01;
shapes = (
{
closed = 1;
nodes = (
(452,413,l),
(473,515,o),
(487,625,o),
(487,625,c),
(480,633,l),
(410,619,l),
(410,619,o),
(420,511,o),
(416,401,c),
(427,399,l)
);
},
{
alignment = -1;
ref = L;
}
);
width = 507;
}
);
locked = 1;
unicode = 317;
}
{
color = 2;
glyphname = lcaron;
kernLeft = h;
kernRight = l;
layers = (
{
layerId = m01;
shapes = (
{
closed = 1;
nodes = (
(269,479,l),
(290,581,o),
(304,691,o),
(304,691,c),
(297,699,l),
(227,685,l),
(227,685,o),
(237,577,o),
(233,467,c),
(244,465,l)
);
},
{
alignment = -1;
ref = l;
}
);
width = 304;
}
);
locked = 1;
unicode = 318;
}
{
color = 2;
glyphname = OE;
kernLeft = O;
kernRight = E;
layers = (
{
anchors = (
{
name = top;
pos = (508,647);
}
);
layerId = m01;
shapes = (
{
closed = 1;
nodes = (
(382,-12,o),
(462,1,o),
(565,1,cs),
(660,1,o),
(870,-7,o),
(870,-7,c),
(875,-1,l),
(884,84,o),
(902,167,o),
(902,167,c),
(899,172,l),
(855,167,l),
(839,57,o),
(820,45,o),
(662,45,cs),
(590,45,o),
(583,51,o),
(583,105,cs),
(586,296,l),
(664,303,ls),
(718,303,o),
(804,300,o),
(804,300,c),
(818,359,l),
(814,364,l),
(814,364,o),
(728,353,o),
(692,353,cs),
(588,354,l),
(596,548,ls),
(598,585,o),
(601,587,o),
(666,587,cs),
(807,587,o),
(820,581,o),
(820,516,cs),
(820,502,o),
(818,473,o),
(818,473,c),
(866,477,l),
(872,569,o),
(889,643,o),
(889,643,c),
(886,649,l),
(814,639,o),
(724,635,o),
(582,635,cs),
(500,635,o),
(431,649,o),
(363,649,cs),
(182,649,o),
(41,495,o),
(41,297,cs),
(41,115,o),
(152,-12,o),
(311,-12,cs)
);
},
{
closed = 1;
nodes = (
(214,40,o),
(127,158,o),
(127,330,cs),
(127,484,o),
(214,591,o),
(339,591,cs),
(483,591,o),
(521,566,o),
(521,467,cs),
(520,208,l),
(518,85,o),
(471,40,o),
(342,40,cs)
);
}
);
width = 963;
}
);
locked = 1;
unicode = 338;
}
{
color = 2;
glyphname = Tbar;
kernLeft = T;
kernRight = T;
layers = (
{
.lastUpdate = 731845427.5;
background = {
shapes = (
{
closed = 1;
nodes = (
(126,297,o),
(201,298,o),
(253,298,cs),
(406,299,l),
(410,337,l),
(397,351,l),
(397,351,o),
(330,346,o),
(275,346,cs),
(219,346,o),
(124,347,o),
(124,347,c),
(117,306,l),
(126,297,l)
);
},
{
alignment = -1;
ref = T;
}
);
};
layerId = m01;
shapes = (
{
ref = T;
},
{
pos = (39,81);
ref = strokeshortcomb;
}
);
width = 546;
}
);
locked = 1;
unicode = 358;
}
{
color = 2;
glyphname = Schwa;
kernLeft = O;
kernRight = O;
layers = (
{
anchors = (
{
name = bottom;
pos = (326,0);
},
{
name = top;
pos = (326,637);
}
);
background = {
shapes = (
{
closed = 1;
nodes = (
(21,289,l),
(32,256,l),
(584,263,l),
(584,306,l),
(32,306,l)
);
},
{
closed = 1;
nodes = (
(543,299,l),
(543,145,o),
(455,39,o),
(328,39,cs),
(211,39,o),
(126,134,o),
(109,278,c),
(21,289,l),
(24,110,o),
(134,-12,o),
(297,-12,cs),
(486,-12,o),
(632,142,o),
(632,341,c)
);
},
{
closed = 0;
nodes = (
(632,341,l),
(632,521,o),
(500,647,o),
(310,647,cs),
(230,647,o),
(92,556,o),
(92,556,c),
(104,525,l),
(112,524,l),
(112,524,o),
(207,567,o),
(301,567,cs),
(447,567,o),
(543,452,o),
(543,284,cs)
);
}
);
};
layerId = m01;
shapes = (
{
closed = 1;
nodes = (
(484,-12,o),
(632,145,o),
(632,333,cs),
(632,512,o),
(499,647,o),
(331,647,cs),
(260,647,o),
(199,623,o),
(92,556,c),
(104,525,l),
(112,524,l),
(171,550,o),
(247,567,o),
(302,567,cs),
(443,567,o),
(543,455,o),
(543,296,cs),
(543,146,o),
(454,39,o),
(329,39,cs),
(212,39,o),
(127,132,o),
(109,278,c),
(21,289,l),
(24,108,o),
(135,-12,o),
(298,-12,cs)
);
},
{
closed = 1;
nodes = (
(584,263,l),
(584,306,l),
(32,306,l),
(21,289,l),
(32,256,l)
);
}
);
width = 672;
}
);
locked = 1;
production = uni018F;
unicode = 399;
}
{
color = 2;
glyphname = florin;
layers = (
{
layerId = m01;
shapes = (
{
closed = 1;
nodes = (
(99,-159,o),
(175,-103,o),
(183,-21,cs),
(187,23,o),
(191,66,o),
(195,110,cs),
(213,307,l),
(281,306,o),
(341,304,o),
(341,304,c),
(351,357,l),
(348,360,l),
(348,360,o),
(285,357,o),
(218,357,c),
(224,426,ls),
(229,490,o),
(230,555,o),
(285,555,cs),
(325,555,o),
(364,523,o),
(380,488,c),
(393,488,l),
(402,498,o),
(411,542,o),
(411,562,cs),
(411,583,o),
(359,598,o),
(314,598,cs),
(238,598,o),
(174,541,o),
(166,457,cs),
(164,436,o),
(161,414,o),
(159,392,cs),
(156,360,l),
(86,350,l),
(79,316,l),
(83,310,l),
(144,309,o),
(148,308,o),
(148,276,c),
(137,170,o),
(127,63,o),
(116,-43,cs),
(111,-97,o),
(87,-118,o),
(59,-118,cs),
(23,-118,o),
(-10,-88,o),
(-24,-55,c),
(-35,-55,l),
(-44,-64,o),
(-53,-106,o),
(-53,-125,cs),
(-53,-144,o),
(-12,-159,o),
(26,-159,cs)
);
}
);
width = 382;
}
);
locked = 1;
unicode = 402;
}
{
color = 2;
glyphname = Ohorn;
kernLeft = O;
kernRight = O;
layers = (
{
anchors = (
{
name = bottom;
pos = (315,0);
},
{
name = top;
pos = (324,647);
}
);
background = {
shapes = (
{
closed = 1;
nodes = (
(217,39,o),
(126,158,o),
(126,329,cs),
(126,483,o),
(211,589,o),
(335,589,cs),
(470,589,o),
(563,470,o),
(563,299,cs),
(563,145,o),
(475,39,o),
(348,39,cs)
);
},
{
closed = 1;
nodes = (
(506,-12,o),
(652,142,o),
(652,341,cs),
(652,523,o),
(536,649,o),
(369,649,cs),
(184,649,o),
(40,495,o),
(40,297,cs),
(40,114,o),
(153,-12,o),
(317,-12,cs)
);
},
{
closed = 1;
nodes = (
(581,734,l),
(598,718,o),
(613,692,o),
(613,664,cs),
(613,621,o),
(579,574,o),
(534,543,c),
(534,533,l),
(552,518,l),
(612,553,o),
(692,619,o),
(692,696,cs),
(692,747,o),
(669,774,o),
(641,774,cs),
(619,774,o),
(596,758,o),
(583,748,c)
);
}
);
};
layerId = m01;
shapes = (
{
closed = 1;
nodes = (
(506,-12,o),
(652,142,o),
(652,341,cs),
(652,442,o),
(616,526,o),
(555,580,c),
(627,577,o),
(692,627,o),
(692,696,cs),
(692,743,o),
(672,774,o),
(641,774,cs),
(624,774,o),
(603,765,o),
(583,748,c),
(581,734,l),
(601,715,o),
(613,688,o),
(613,664,cs),
(613,633,o),
(583,615,o),
(543,615,cs),
(490,615,o),
(461,649,o),
(369,649,cs),
(184,649,o),
(40,495,o),
(40,297,cs),
(40,114,o),
(153,-12,o),
(317,-12,cs)
);
},
{
closed = 1;
nodes = (
(217,39,o),
(126,158,o),
(126,329,cs),
(126,483,o),
(211,589,o),
(335,589,cs),
(470,589,o),
(563,470,o),
(563,299,cs),
(563,145,o),
(475,39,o),
(348,39,cs)
);
}
);
width = 703;
}
);
locked = 1;
unicode = 416;
}
{
color = 2;
glyphname = ohorn;
kernLeft = o;
layers = (
{
background = {
shapes = (
{
closed = 1;
nodes = (
(361,-12,o),
(462,99,o),
(462,242,cs),
(462,373,o),
(382,464,o),
(268,464,cs),
(137,464,o),
(36,353,o),
(36,210,cs),
(36,79,o),
(115,-12,o),
(230,-12,cs)
);
},
{
closed = 1;
nodes = (
(174,37,o),
(116,119,o),
(116,239,cs),
(116,344,o),
(163,410,o),
(238,410,cs),
(322,410,o),
(380,326,o),
(380,206,cs),
(380,102,o),
(333,37,o),
(258,37,cs)
);
}
);
};
layerId = m01;
shapes = (
{
closed = 1;
nodes = (
(361,-12,o),
(462,99,o),
(462,242,cs),
(462,303,o),
(444,356,o),
(413,395,c),
(483,394,o),
(545,444,o),
(545,511,cs),
(545,558,o),
(525,589,o),
(494,589,cs),
(485,589,o),
(476,586,o),
(466,582,cs),
(456,578,o),
(446,571,o),
(436,563,c),
(434,549,l),
(454,530,o),
(466,503,o),
(466,479,cs),
(466,448,o),
(443,430,o),
(403,430,cs),
(355,430,o),
(320,464,o),
(255,464,cs),
(137,464,o),
(36,353,o),
(36,210,cs),
(36,79,o),
(115,-12,o),
(230,-12,cs)
);
},
{
closed = 1;
nodes = (
(174,37,o),
(116,119,o),
(116,239,cs),
(116,344,o),
(163,410,o),
(238,410,cs),
(322,410,o),
(380,326,o),
(380,206,cs),
(380,102,o),
(333,37,o),
(258,37,cs)
);
}
);
width = 518;
}
);
locked = 1;
unicode = 417;
}
{
color = 8;
glyphname = glottalstopinvertedstroke;
layers = (
{
layerId = m01;
shapes = (
{
closed = 1;
nodes = (
(328,-4,o),
(440,15,o),
(440,142,cs),
(440,262,o),
(417,299,o),
(389,316,c),
(357,340,o),
(320,361,o),
(278,380,c),
(277,454,l),
(369,453,l),
(379,498,l),
(373,507,l),
(276,506,l),
(275,541,ls),
(275,578,o),
(292,596,o),
(326,596,cs),
(360,596,o),
(363,594,o),
(376,594,c),
(378,598,l),
(371,641,l),
(257,639,ls),
(205,639,o),
(168,640,o),
(145,643,c),
(150,604,l),
(188,599,o),
(207,580,o),
(207,545,cs),
(207,506,l),
(87,505,l),
(80,458,l),
(86,448,l),
(121,452,o),
(161,454,o),
(207,454,c),
(207,380,l),
(218,355,l),
(237,349,o),
(247,350,o),
(286,332,cs),
(333,310,o),
(356,271,o),
(356,163,cs),
(356,88,o),
(317,49,o),
(239,48,cs),
(158,48,o),
(136,102,o),
(132,185,c),
(81,190,l),
(86,165,o),
(88,130,o),
(88,85,cs),
(87,19,l),
(91,13,l),
(140,2,o),
(190,-4,o),
(242,-4,cs)
);
}
);
width = 528;
}
);
note = glottalstopinvertedstroke;
unicode = 446;
}
{
color = 2;
glyphname = Gstroke;
kernLeft = O;
kernRight = G;
layers = (
{
background = {
shapes = (
{
closed = 1;
nodes = (
(429,133,o),
(538,134,o),
(575,134,cs),
(849,135,l),
(854,170,l),
(841,182,l),
(759,181,o),
(635,179,o),
(595,179,cs),
(555,179,o),
(435,180,o),
(355,180,c),
(348,140,l),
(357,133,l)
);
}
);
};
layerId = m01;
shapes = (
{
closed = 1;
nodes = (
(407,-12,o),
(503,7,o),
(562,34,c),
(568,43,l),
(564,60,o),
(561,97,o),
(561,131,cs),
(561,230,o),
(568,265,o),
(592,285,c),
(588,307,l),
(562,304,o),
(526,302,o),
(502,302,cs),
(463,302,o),
(408,304,o),
(375,306,c),
(366,256,l),
(368,252,l),
(388,252,o),
(420,252,o),
(437,252,cs),
(482,252,o),
(492,243,o),
(492,198,cs),
(492,76,l),
(457,54,o),
(400,38,o),
(355,38,cs),
(217,38,o),
(127,153,o),
(127,329,cs),
(127,494,o),
(215,590,o),
(368,590,cs),
(474,590,o),
(519,564,o),
(519,502,cs),
(519,489,o),
(518,474,o),
(516,448,c),
(563,452,l),
(566,506,o),
(577,577,o),
(589,619,c),
(585,625,l),
(516,639,o),
(438,649,o),
(391,649,cs),
(182,649,o),
(40,506,o),
(40,297,cs),
(40,108,o),
(154,-12,o),
(332,-12,cs)
);
},
{
closed = 1;
nodes = (
(389,135,o),
(449,136,o),
(490,136,cs),
(624,137,l),
(628,178,l),
(622,187,l),
(586,184,o),
(533,182,o),
(500,182,cs),
(459,182,o),
(394,182,o),
(355,183,c),
(348,143,l),
(354,135,l)
);
}
);
width = 677;
}
);
locked = 1;
metricLeft = "=G";
production = uni01E4;
unicode = 484;
}
{
color = 2;
glyphname = aringacute;
kernLeft = a;
kernRight = n;
layers = (
{
layerId = m01;
shapes = (
{
closed = 1;
nodes = (
(409,0,o),
(443,41,o),
(459,68,c),
(445,84,l),
(433,73,o),
(408,59,o),
(385,59,cs),
(359,59,o),
(344,76,o),
(344,105,cs),
(344,164,o),
(362,299,o),
(362,335,cs),
(362,416,o),
(310,464,o),
(223,464,cs),
(192,464,o),
(112,424,o),
(60,394,c),
(72,351,l),
(77,348,l),
(117,380,o),
(160,398,o),
(197,398,cs),
(253,398,o),
(285,359,o),
(285,292,c),
(284,248,l),
(94,196,ls),
(62,187,o),
(41,155,o),
(41,116,cs),
(41,44,o),
(95,-8,o),
(169,-8,cs),
(189,-8,o),
(231,22,o),
(279,70,c),
(283,69,l),
(288,15,o),
(318,-12,o),
(372,-12,c)
);
},
{
closed = 1;
nodes = (
(146,60,o),
(117,89,o),
(117,127,cs),
(117,148,o),
(127,163,o),
(146,169,cs),
(282,210,l),
(277,108,l),
(249,80,o),
(211,60,o),
(186,60,cs)
);
},
{
closed = 1;
nodes = (
(279.448,477.948,o),
(307.379,515.832,o),
(307.379,557.324,cs),
(307.379,591.6,o),
(287.557,625.876,o),
(238.002,625.876,cs),
(192.051,625.876,o),
(162.318,593.404,o),
(162.318,550.108,cs),
(162.318,507.714,o),
(186.645,477.948,o),
(230.794,477.948,cs)
);
},
{
closed = 1;
nodes = (
(218.18,512.224,o),
(191.15,523.95,o),
(191.15,555.52,cs),
(191.15,577.168,o),
(204.665,590.698,o),
(230.794,590.698,cs),
(260.527,590.698,o),
(276.745,572.658,o),
(276.745,547.402,cs),
(276.745,515.832,o),
(251.517,512.224,o),
(237.101,512.224,cs)
);
},
{
closed = 1;
nodes = (
(249.6,662.7,o),
(340.5,693.3,o),
(340.5,693.3,c),
(344.1,702.3,l),
(329.7,745.5,l),
(321.6,750.9,l),
(321.6,750.9,o),
(227.1,696.9,o),
(142.5,652.8,c),
(147.9,631.2,l),
(155.1,626.7,l)
);
}
);
width = 466;
}
);
locked = 1;
unicode = 507;
}
{
color = 2;
glyphname = Oslashacute;
kernLeft = O;
kernRight = O;
layers = (
{
.lastUpdate = 731845427.499;
background = {
shapes = (
{
closed = 1;
nodes = (
(552,689,l),
(549,701,l),
(520,708,l),
(456,586,l),
(489,572,l)
);
},
{
closed = 1;
nodes = (
(489,572,l),
(456,586,l),
(186,70,l),
(218,56,l)
);
},
{
closed = 1;
nodes = (
(107,-82,l),
(109,-92,l),
(136,-98,l),
(218,56,l),
(186,70,l)
);
},
{
ref = O;
},
{
pos = (130,0);
ref = acutecomb.case;
}
);
};
layerId = m01;
shapes = (
{
alignment = -1;
ref = Oslash;
},
{
alignment = -1;
pos = (131,-1);
ref = acutecomb.case;
}
);
width = 692;
}
);
locked = 1;
unicode = 510;
}
{
color = 8;
glyphname = ncurl;
layers = (
{
layerId = m01;
shapes = (
{
closed = 1;
nodes = (
(479,50,ls),
(454,50,o),
(442,56,o),
(442,69,cs),
(442,94,o),
(453,118,o),
(498,118,cs),
(529,118,o),
(555,114,o),
(555,91,cs),
(555,55,o),
(511,50,o),
(492,50,cs)
);
},
{
closed = 1;
nodes = (
(393,-76,o),
(409,-67,o),
(425,-48,c),
(424,-37,l),
(393,-30,o),
(386,-14,o),
(386,10,cs),
(386,18,o),
(387,27,o),
(389,38,c),
(395,3,o),
(427,-9,o),
(486,-9,cs),
(543,-9,o),
(607,23,o),
(607,83,cs),
(607,134,o),
(567,148,o),
(497,148,cs),
(480,148,o),
(465,147,o),
(452,144,c),
(453,190,o),
(464,295,o),
(464,335,cs),
(464,411,o),
(416,464,o),
(327,464,cs),
(293,464,o),
(212,410,o),
(180,388,c),
(178,391,l),
(182,424,o),
(184,432,o),
(189,457,c),
(183,465,l),
(170,465,o),
(172,458,o),
(150,458,c),
(150,457,l),
(146,457,l),
(144,455,o),
(110,448,o),
(43,436,c),
(40,403,l),
(43,399,l),
(93,399,o),
(103,387,o),
(103,338,cs),
(103,94,ls),
(103,58,o),
(85,38,o),
(50,35,c),
(45,-6,l),
(69,-2,o),
(102,0,o),
(144,0,cs),
(235,-3,l),
(244,40,l),
(242,44,l),
(232,43,o),
(219,42,o),
(206,42,cs),
(183,42,o),
(171,61,o),
(171,98,cs),
(180,344,l),
(201,362,o),
(254,396,o),
(303,396,cs),
(362,396,o),
(386,351,o),
(386,292,cs),
(382,94,l),
(350,38,o),
(334,2,o),
(334,-14,cs),
(334,-50,o),
(355,-76,o),
(377,-76,cs)
);
}
);
width = 612;
}
);
note = ncurl;
unicode = 565;
}
{
color = 2;
glyphname = jdotless;
kernLeft = j;
layers = (
{
anchors = (
{
name = bottom;
pos = (125,0);
},
{
name = top;
pos = (125,452);
}
);
layerId = m01;
shapes = (
{
closed = 1;
nodes = (
(115,-191,o),
(160,-110,o),
(160,-14,cs),
(160,269,o),
(166,433,o),
(177,452,c),
(172,464,l),
(172,464,o),
(89,444,o),
(28,436,c),
(24,399,l),
(24,399,o),
(40,402,o),
(51,402,cs),
(81,402,o),
(91,389,o),
(91,348,cs),
(91,38,ls),
(91,-99,o),
(74,-157,o),
(17,-214,c),
(15,-222,l),
(33,-241,l)
);
}
);
width = 250;
}
);
locked = 1;
production = uni0237;
unicode = 567;
}
{
color = 8;
glyphname = bhook;
layers = (
{
layerId = m01;
shapes = (
{
closed = 1;
nodes = (
(220,43,o),
(187,50,o),
(152,64,c),
(155,342,l),
(198,378,o),
(234,396,o),
(262,396,cs),
(336,396,o),
(394,319,o),
(394,213,cs),
(394,112,o),
(344,43,o),
(250,43,cs)
);
},
{
closed = 1;
nodes = (
(352,-12,o),
(471,92,o),
(471,250,cs),
(471,376,o),
(394,464,o),
(278,464,cs),
(265,464,o),
(224,443,o),
(157,394,c),
(161,501,l),
(160,502,l),
(161,502,l),
(161,623,o),
(199,683,o),
(274,683,cs),
(350,683,o),
(381,654,o),
(389,646,c),
(400,649,l),
(431,714,l),
(429,723,l),
(420,728,o),
(374,742,o),
(315,742,cs),
(209,742,o),
(90,673,o),
(84,511,c),
(84,8,l),
(93,0,l),
(113,-3,o),
(158,-12,o),
(222,-12,cs)
);
}
);
width = 508;
}
);
note = bhook;
unicode = 595;
}
{
color = 8;
glyphname = ccurl;
layers = (
{
layerId = m01;
shapes = (
{
closed = 1;
nodes = (
(223,55,o),
(199,62,o),
(179,77,c),
(179,106,o),
(209,132,o),
(257,132,cs),
(294,132,o),
(322,128,o),
(322,102,cs),
(322,63,o),
(274,55,o),
(251,55,cs)
);
},
{
closed = 1;
nodes = (
(138,-88,o),
(156,-77,o),
(174,-56,c),
(173,-44,l),
(148,-36,o),
(128,-15,o),
(128,12,cs),
(128,18,l),
(161,-2,o),
(199,-12,o),
(244,-12,cs),
(313,-12,o),
(381,29,o),
(381,93,cs),
(381,152,o),
(334,167,o),
(256,167,cs),
(201,167,o),
(162,154,o),
(138,127,c),
(123,158,o),
(115,196,o),
(115,243,cs),
(115,341,o),
(154,410,o),
(242,410,cs),
(295,410,o),
(324,375,o),
(324,328,cs),
(324,297,l),
(365,300,l),
(370,374,o),
(383,426,o),
(386,436,c),
(386,440,o),
(385,439,o),
(383,445,c),
(380,445,o),
(383,445,o),
(352,454,c),
(350,454,l),
(350,455,l),
(327,461,o),
(299,464,o),
(266,464,cs),
(136,464,o),
(35,357,o),
(35,209,cs),
(35,142,o),
(54,89,o),
(92,49,c),
(92,47,o),
(92,48,o),
(93,47,c),
(78,24,o),
(71,2,o),
(71,-17,cs),
(71,-58,o),
(93,-88,o),
(120,-88,cs)
);
}
);
width = 424;
}
);
note = ccurl;
unicode = 597;
}
{
color = 8;
glyphname = eclosedreversedopen;
layers = (
{
layerId = m01;
shapes = (
{
closed = 1;
nodes = (
(178,45,o),
(122,94,o),
(122,238,cs),
(122,358,o),
(166,409,o),
(258,409,cs),
(308,409,o),
(353,391,o),
(353,333,cs),
(353,299,o),
(337,273,o),
(304,254,c),
(213,255,l),
(206,209,l),
(208,204,l),
(285,207,l),
(346,195,o),
(376,165,o),
(376,117,cs),
(376,65,o),
(341,39,o),
(270,39,c)
);
},
{
closed = 1;
nodes = (
(334,-5,o),
(454,27,o),
(454,130,cs),
(454,199,o),
(403,229,o),
(343,239,c),
(389,260,o),
(426,293,o),
(426,349,cs),
(426,438,o),
(342,456,o),
(264,456,cs),
(220,456,o),
(41,438,o),
(41,212,cs),
(41,92,o),
(92,-6,o),
(257,-8,c)
);
}
);
width = 497;
}
);
note = eclosedreversedopen;
unicode = 606;
}
{
color = 8;
glyphname = gsmallcapital;
layers = (
{
layerId = m01;
shapes = (
{
closed = 1;
nodes = (
(365,-9,o),
(439,22,o),
(439,22,c),
(443,30,l),
(440,43,o),
(439,66,o),
(439,93,cs),
(439,164,o),
(441,191,o),
(463,206,c),
(460,227,l),
(460,227,o),
(426,223,o),
(391,223,cs),
(346,223,o),
(299,225,o),
(293,225,c),
(286,184,l),
(288,181,l),
(306,181,ls),
(372,181,o),
(377,180,o),
(377,143,cs),
(377,61,l),
(377,61,o),
(338,37,o),
(280,37,cs),
(184,37,o),
(120,112,o),
(120,239,cs),
(120,355,o),
(181,417,o),
(290,417,cs),
(362,417,o),
(396,401,o),
(396,356,cs),
(396,336,o),
(394,317,o),
(394,317,c),
(439,321,l),
(443,393,o),
(459,445,o),
(459,445,c),
(455,451,l),
(455,451,o),
(367,468,o),
(307,468,cs),
(147,468,o),
(40,369,o),
(40,215,cs),
(40,76,o),
(128,-9,o),
(263,-9,cs)
);
}
);
width = 535;
}
);
note = gsmallcapital;
unicode = 610;
}
{
color = 8;
glyphname = henghook;
layers = (
{
layerId = m01;
shapes = (
{
closed = 1;
nodes = (
(274,-144,l),
(387,-106,o),
(429,-28,o),
(434,96,cs),
(445,335,l),
(445,406,o),
(403,464,o),
(308,464,cs),
(266,464,o),
(185,407,o),
(158,386,c),
(159,487,ls),
(161,621,o),
(193,683,o),
(274,683,cs),
(350,683,o),
(381,654,o),
(389,646,c),
(400,649,l),
(431,714,l),
(429,723,l),
(420,728,o),
(374,742,o),
(315,742,cs),
(218,742,o),
(89,679,o),
(86,513,cs),
(86,94,ls),
(86,59,o),
(69,41,o),
(34,39,c),
(28,-2,l),
(74,-2,o),
(91,0,o),
(127,0,cs),
(204,0,o),
(191,-3,o),
(218,-3,c),
(227,40,l),
(225,44,l),
(188,42,ls),
(165,42,o),
(154,61,o),
(154,98,cs),
(154,180,o),
(155,261,o),
(157,341,c),
(207,378,o),
(249,396,o),
(284,396,cs),
(345,396,o),
(367,348,o),
(367,292,cs),
(366,94,ls),
(366,-17,o),
(334,-65,o),
(260,-103,c),
(257,-111,l)
);
}
);
width = 510;
}
);
note = henghook;
unicode = 615;
}
{
color = 8;
glyphname = ismallcapital;
layers = (
{
layerId = m01;
shapes = (
{
closed = 1;
nodes = (
(52,-9,l),
(52,-9,o),
(100,-1,o),
(145,-1,cs),
(248,-2,l),
(255,35,l),
(253,38,l),
(253,38,o),
(233,36,o),
(215,36,cs),
(187,36,o),
(182,50,o),
(182,86,cs),
(182,151,o),
(187,291,o),
(192,390,cs),
(195,418,o),
(203,426,o),
(245,431,c),
(249,469,l),
(249,469,o),
(193,462,o),
(156,462,cs),
(123,462,o),
(68,464,o),
(61,464,c),
(57,429,l),
(59,425,l),
(89,426,ls),
(113,426,o),
(117,415,o),
(117,387,cs),
(116,91,ls),
(116,48,o),
(99,37,o),
(57,29,c)
);
}
);
width = 309;
}
);
note = ismallcapital;
unicode = 618;
}
{
color = 8;
glyphname = lmiddletilde;
layers = (
{
layerId = m01;
shapes = (
{
closed = 1;
nodes = (
(69,-12,l),
(127,-3,ls),
(145,-1,o),
(160,0,o),
(172,0,cs),
(185,0,o),
(201,0,o),
(219,-1,cs),
(261,-3,l),
(269,40,l),
(267,44,l),
(232,42,ls),
(219,42,o),
(210,46,o),
(205,55,cs),
(200,64,o),
(197,78,o),
(197,98,cs),
(197,157,o),
(198,215,o),
(199,274,cs),
(200,333,o),
(201,388,o),
(203,441,cs),
(205,494,o),
(207,541,o),
(210,583,cs),
(212,624,o),
(214,658,o),
(217,684,cs),
(220,709,o),
(222,724,o),
(225,729,c),
(219,742,l),
(194,735,o),
(170,730,o),
(145,725,cs),
(120,720,o),
(96,716,o),
(71,713,c),
(67,679,l),
(70,677,l),
(92,679,l),
(108,677,ls),
(116,675,o),
(122,670,o),
(125,663,cs),
(128,655,o),
(129,643,o),
(129,626,cs),
(129,135,ls),
(129,114,o),
(128,97,o),
(127,83,cs),
(126,69,o),
(121,58,o),
(114,50,cs),
(106,41,o),
(92,34,o),
(73,29,c)
);
},
{
closed = 1;
nodes = (
(23,360,l),
(23,360,o),
(62,415,o),
(86,415,cs),
(111,415,o),
(217,374,o),
(249,374,c),
(265,378,l),
(341,467,l),
(341,472,l),
(319,493,l),
(313,493,l),
(313,493,o),
(273,438,o),
(250,438,cs),
(223,438,o),
(117,479,o),
(87,479,c),
(71,475,l),
(-5,386,l),
(-5,381,l),
(17,360,l)
);
}
);
width = 336;
}
);
note = lmiddletilde;
unicode = 619;
}
{
color = 8;
glyphname = lbelt;
layers = (
{
layerId = m01;
shapes = (
{
closed = 1;
nodes = (
(98,325,l),
(60,337,o),
(35,358,o),
(35,384,cs),
(35,405,o),
(50,418,o),
(82,418,cs),
(98,417,l)
);
},
{
closed = 1;
nodes = (
(38,-12,l),
(96,-3,ls),
(114,-1,o),
(129,0,o),
(141,0,cs),
(174,0,o),
(181,-1,o),
(230,-3,c),
(238,40,l),
(236,44,l),
(201,42,ls),
(184,42,o),
(174,48,o),
(171,61,cs),
(168,73,o),
(166,85,o),
(166,98,cs),
(166,152,o),
(166,205,o),
(167,269,c),
(203,269,o),
(243,274,o),
(287,283,c),
(287,308,o),
(289,333,o),
(292,358,c),
(248,339,o),
(212,326,o),
(184,321,c),
(178,319,o),
(173,318,o),
(167,318,c),
(168,329,o),
(168,340,o),
(168,351,cs),
(169,432,o),
(173,502,o),
(179,583,cs),
(179,587,ls),
(180,604,o),
(181,630,o),
(184,664,cs),
(187,697,o),
(190,719,o),
(194,729,c),
(188,742,l),
(140,729,o),
(91,719,o),
(40,713,c),
(36,679,l),
(39,677,l),
(61,679,l),
(77,677,ls),
(85,675,o),
(91,670,o),
(94,663,cs),
(97,656,o),
(98,643,o),
(98,626,cs),
(98,432,l),
(84,432,ls),
(24,432,o),
(-5,415,o),
(-5,380,cs),
(-5,327,o),
(29,296,o),
(82,281,cs),
(98,276,l),
(98,135,ls),
(98,114,o),
(97,97,o),
(96,83,cs),
(92,52,o),
(74,34,o),
(42,29,c)
);
}
);
width = 282;
}
);
note = lbelt;
unicode = 620;
}
{
color = 8;
glyphname = lezh;
layers = (
{
layerId = m01;
shapes = (
{
closed = 1;
nodes = (
(300,-231,o),
(338,-223,o),
(375,-206,cs),
(412,-189,o),
(442,-165,o),
(466,-134,cs),
(489,-103,o),
(501,-66,o),
(501,-23,cs),
(501,15,o),
(492,47,o),
(473,72,cs),
(454,97,o),
(430,117,o),
(401,130,cs),
(371,143,o),
(339,151,o),
(304,152,c),
(495,405,l),
(482,452,l),
(289,452,l),
(162,458,l),
(163,504,o),
(165,545,o),
(168,583,cs),
(170,624,o),
(172,658,o),
(175,684,cs),
(178,709,o),
(180,724,o),
(183,729,c),
(177,742,l),
(152,735,o),
(128,730,o),
(103,725,cs),
(78,720,o),
(54,716,o),
(29,713,c),
(25,679,l),
(28,677,l),
(50,679,l),
(66,677,ls),
(74,675,o),
(80,670,o),
(83,663,cs),
(86,655,o),
(87,643,o),
(87,626,cs),
(87,135,ls),
(87,114,o),
(86,97,o),
(85,83,cs),
(84,69,o),
(79,58,o),
(72,50,cs),
(64,41,o),
(50,34,o),
(31,29,c),
(27,-12,l),
(85,-3,ls),
(103,-1,o),
(118,0,o),
(130,0,cs),
(143,0,o),
(159,0,o),
(177,-1,cs),
(219,-3,l),
(227,40,l),
(225,44,l),
(190,42,ls),
(177,42,o),
(168,46,o),
(163,55,cs),
(158,64,o),
(155,78,o),
(155,98,cs),
(155,157,o),
(156,215,o),
(157,274,cs),
(157,313,o),
(158,350,o),
(159,387,c),
(428,391,l),
(249,153,l),
(244,113,l),
(248,108,l),
(271,109,ls),
(369,108,o),
(418,59,o),
(418,-37,cs),
(418,-81,o),
(407,-116,o),
(385,-141,cs),
(362,-166,o),
(328,-179,o),
(283,-179,cs),
(253,-179,o),
(229,-174,o),
(211,-163,cs),
(192,-153,o),
(179,-141,o),
(170,-127,cs),
(161,-113,o),
(157,-100,o),
(157,-89,cs),
(158,-70,l),
(123,-72,l),
(118,-78,l),
(115,-198,l),
(118,-204,l),
(165,-222,o),
(212,-231,o),
(259,-231,cs)
);
}
);
width = 532;
}
);
note = lezh;
unicode = 622;
}
{
color = 8;
glyphname = mhook;
layers = (
{
layerId = m01;
shapes = (
{
closed = 1;
nodes = (
(571,-144,l),
(682,-103,o),
(723,-40,o),
(731,96,cs),
(742,335,l),
(742,414,o),
(690,464,o),
(605,464,cs),
(566,464,o),
(467,396,o),
(454,385,c),
(436,438,o),
(387,464,o),
(326,464,cs),
(290,464,o),
(211,409,o),
(179,388,c),
(177,391,l),
(180,425,o),
(187,452,o),
(188,457,c),
(182,465,l),
(167,461,o),
(114,448,o),
(42,436,c),
(39,403,l),
(42,399,l),
(88,399,o),
(102,391,o),
(102,338,cs),
(102,94,ls),
(102,56,o),
(87,43,o),
(50,39,c),
(44,-2,l),
(60,-2,o),
(102,0,o),
(143,0,cs),
(181,0,o),
(202,-1,o),
(234,-3,c),
(243,40,l),
(241,44,l),
(230,43,o),
(218,42,o),
(206,42,cs),
(179,42,o),
(170,60,o),
(170,98,cs),
(170,139,o),
(176,269,o),
(179,344,c),
(200,360,o),
(255,396,o),
(302,396,cs),
(358,396,o),
(385,355,o),
(385,292,cs),
(381,94,ls),
(381,58,o),
(363,39,o),
(325,29,c),
(321,-12,l),
(331,-10,o),
(387,0,o),
(424,0,cs),
(460,0,o),
(499,-2,o),
(513,-3,c),
(521,40,l),
(519,44,l),
(508,43,o),
(496,42,o),
(484,42,cs),
(460,42,o),
(449,57,o),
(449,98,cs),
(460,346,l),
(482,362,o),
(535,396,o),
(581,396,cs),
(637,396,o),
(664,355,o),
(664,292,cs),
(663,94,ls),
(661,-15,o),
(639,-58,o),
(557,-103,c),
(554,-111,l)
);
}
);
width = 803;
}
);
note = mhook;
unicode = 625;
}
{
color = 8;
glyphname = rturned;
layers = (
{
layerId = m01;
shapes = (
{
closed = 1;
nodes = (
(201,-4,l),
(336,26,l),
(339,57,l),
(334,64,l),
(331,62,o),
(323,61,o),
(311,61,cs),
(309,61,ls),
(286,61,o),
(275,82,o),
(275,122,cs),
(276,259,ls),
(277,308,o),
(282,363,o),
(286,398,cs),
(290,433,o),
(294,453,o),
(297,459,c),
(291,472,l),
(248,461,o),
(198,451,o),
(143,443,c),
(139,411,l),
(143,408,l),
(164,408,o),
(179,406,o),
(188,401,cs),
(197,396,o),
(201,381,o),
(201,356,cs),
(201,258,l),
(199,155,l),
(184,132,o),
(169,115,o),
(152,104,cs),
(135,93,o),
(120,87,o),
(106,87,cs),
(95,87,o),
(88,92,o),
(84,102,cs),
(81,111,o),
(79,129,o),
(79,155,c),
(40,152,l),
(36,86,o),
(32,60,o),
(24,9,c),
(28,4,o),
(25,5,o),
(35,3,cs),
(40,2,o),
(47,1,o),
(58,1,cs),
(79,1,o),
(103,11,o),
(128,31,cs),
(154,51,o),
(178,77,o),
(199,108,c),
(203,105,l),
(203,53,o),
(200,42,o),
(194,2,c)
);
}
);
width = 383;
}
);
note = rturned;
unicode = 633;
}
{
color = 8;
glyphname = rlongleg;
layers = (
{
layerId = m01;
shapes = (
{
closed = 1;
nodes = (
(54,-236,l),
(54,-236,o),
(101,-232,o),
(159,-232,cs),
(182,-232,o),
(243,-233,o),
(251,-234,c),
(260,-190,l),
(259,-186,l),
(225,-188,ls),
(206,-188,o),
(194,-184,o),
(187,-176,cs),
(180,-168,o),
(177,-75,o),
(177,102,c),
(185,306,l),
(214,351,o),
(250,374,o),
(278,374,cs),
(301,374,o),
(305,358,o),
(305,306,c),
(344,309,l),
(347,371,o),
(360,452,o),
(360,452,c),
(357,456,l),
(357,456,o),
(348,460,o),
(326,460,cs),
(285,460,o),
(226,415,o),
(185,353,c),
(181,356,l),
(181,410,o),
(190,459,o),
(190,459,c),
(183,465,l),
(183,465,o),
(109,447,o),
(48,435,c),
(45,404,l),
(50,397,l),
(50,397,o),
(60,400,o),
(71,400,cs),
(99,400,o),
(109,381,o),
(109,339,cs),
(109,119,ls),
(109,-67,o),
(106,-165,o),
(99,-176,cs),
(92,-187,o),
(79,-194,o),
(59,-196,c)
);
}
);
width = 383;
}
);
note = rlongleg;
unicode = 636;
}
{
color = 8;
glyphname = rreversedfishhook;
layers = (
{
layerId = m01;
shapes = (
{
closed = 1;
nodes = (
(75,-236,ls),
(88,-235,o),
(122,-232,o),
(178,-232,cs),
(270,-234,l),
(279,-190,l),
(278,-186,l),
(244,-188,ls),
(225,-188,o),
(213,-184,o),
(206,-176,cs),
(200,-168,o),
(196,-89,o),
(196,102,cs),
(196,217,ls),
(196,396,o),
(97,465,o),
(26,465,cs),
(-15,465,o),
(-53,459,o),
(-88,446,c),
(-90,437,l),
(-79,419,o),
(-69,397,o),
(-59,372,c),
(-48,369,l),
(-13,394,o),
(26,406,o),
(67,406,cs),
(103,406,o),
(123,301,o),
(128,91,cs),
(128,-73,o),
(124,-165,o),
(118,-176,cs),
(111,-187,o),
(98,-194,o),
(78,-196,c),
(73,-236,l)
);
}
);
width = 321;
}
);
note = rreversedfishhook;
unicode = 639;
}
{
color = 8;
glyphname = yturned;
layers = (
{
layerId = m01;
shapes = (
{
closed = 1;
nodes = (
(400,683,ls),
(317,683,o),
(276,598,o),
(245,534,cs),
(226,495,o),
(205,446,o),
(180,387,cs),
(53,83,ls),
(46,64,o),
(38,50,o),
(30,42,cs),
(23,34,o),
(12,29,o),
(-3,26,c),
(-10,-11,l),
(37,-11,ls),
(50,-10,o),
(63,-10,o),
(75,-10,cs),
(91,-10,o),
(107,-10,o),
(122,-11,cs),
(177,-14,l),
(183,19,l),
(181,23,l),
(135,23,ls),
(116,23,o),
(97,26,o),
(97,49,cs),
(97,54,o),
(101,67,o),
(108,88,cs),
(137,165,l),
(175,258,ls),
(188,291,o),
(201,321,o),
(212,348,c),
(216,348,l),
(239,277,ls),
(246,256,o),
(253,234,o),
(260,209,cs),
(281,139,ls),
(288,116,o),
(293,96,o),
(297,79,cs),
(302,62,o),
(304,51,o),
(304,45,cs),
(304,36,o),
(300,29,o),
(292,25,cs),
(285,22,o),
(270,20,o),
(247,19,c),
(241,-12,l),
(243,-17,l),
(319,-11,ls),
(334,-10,o),
(348,-10,o),
(363,-10,cs),
(370,-10,o),
(381,-10,o),
(394,-11,cs),
(446,-11,l),
(452,22,l),
(450,26,l),
(412,28,o),
(397,39,o),
(382,74,c),
(331,217,l),
(304,298,l),
(258,442,l),
(290,519,o),
(351,619,o),
(446,619,c),
(451,626,l),
(451,629,o),
(449,634,o),
(445,640,c),
(442,647,o),
(437,653,o),
(432,659,cs),
(428,665,o),
(415,683,o),
(407,683,cs)
);
}
);
width = 446;
}
);
note = yturned;
unicode = 654;
}
{
color = 8;
glyphname = zretroflexhook;
layers = (
{
layerId = m01;
shapes = (
{
closed = 1;
nodes = (
(468,-234,o),
(485,-224,o),
(505,-204,c),
(511,-200,o),
(516,-196,o),
(520,-192,c),
(520,-192,o),
(543,-174,o),
(546,-174,c),
(536,-148,l),
(534,-148,o),
(534,-149,o),
(533,-149,c),
(509,-159,o),
(496,-166,o),
(478,-166,cs),
(414,-166,o),
(393,-133,o),
(392,-73,cs),
(392,10,ls),
(395,85,o),
(409,160,o),
(411,171,c),
(371,166,l),
(361,87,o),
(330,47,o),
(277,44,cs),
(129,35,l),
(162,82,o),
(178,115,o),
(415,428,c),
(407,449,l),
(164,455,o),
(215,452,o),
(69,462,c),
(63,457,l),
(63,403,o),
(53,324,o),
(52,312,c),
(91,318,l),
(97,387,o),
(122,406,o),
(182,408,cs),
(307,414,l),
(35,23,l),
(45,-2,l),
(97,3,l),
(358,-5,l),
(351,-113,l),
(351,-198,o),
(389,-234,o),
(455,-234,cs)
);
}
);
width = 491;
}
);
note = zretroflexhook;
unicode = 656;
}
{
color = 8;
glyphname = glottalstopinverted;
layers = (
{
layerId = m01;
shapes = (
{
closed = 1;
nodes = (
(150,604,l),
(188,599,o),
(207,580,o),
(207,545,cs),
(207,380,l),
(218,355,l),
(258,345,o),
(311,333,o),
(339,281,cs),
(348,264,o),
(356,214,o),
(356,163,cs),
(356,88,o),
(317,49,o),
(239,48,cs),
(155,48,o),
(136,109,o),
(132,185,c),
(81,190,l),
(87,154,o),
(88,131,o),
(88,85,cs),
(87,19,l),
(91,13,l),
(138,4,o),
(190,-4,o),
(242,-4,cs),
(334,-4,o),
(440,18,o),
(440,142,cs),
(440,263,o),
(417,296,o),
(389,316,cs),
(366,333,o),
(311,367,o),
(278,380,c),
(275,541,ls),
(275,578,o),
(292,596,o),
(326,596,cs),
(349,596,o),
(368,594,o),
(376,594,c),
(378,598,l),
(371,641,l),
(257,639,ls),
(205,639,o),
(168,640,o),
(145,643,c)
);
}
);
width = 528;
}
);
note = glottalstopinverted;
unicode = 662;
}
{
color = 8;
glyphname = hsmallcapital;
layers = (
{
layerId = m01;
shapes = (
{
closed = 1;
nodes = (
(53,-9,l),
(55,-5,o),
(124,-1,o),
(168,-1,cs),
(240,-3,l),
(246,34,l),
(245,38,l),
(245,38,o),
(228,35,o),
(212,35,cs),
(185,35,o),
(180,49,o),
(180,84,cs),
(183,204,l),
(183,204,o),
(282,211,o),
(303,211,cs),
(409,210,l),
(409,107,ls),
(409,52,o),
(400,35,o),
(353,35,c),
(345,-2,l),
(411,-1,ls),
(486,-1,o),
(533,-3,o),
(533,-3,c),
(541,34,l),
(538,38,l),
(538,38,o),
(521,36,o),
(506,36,cs),
(478,36,o),
(474,50,o),
(474,84,cs),
(474,149,o),
(478,287,o),
(484,384,cs),
(485,413,o),
(497,420,o),
(531,424,c),
(534,462,l),
(534,462,o),
(475,456,o),
(439,456,cs),
(413,456,o),
(360,457,o),
(360,457,c),
(355,423,l),
(356,419,l),
(382,420,ls),
(405,420,o),
(410,412,o),
(410,381,cs),
(409,259,l),
(370,254,o),
(342,252,o),
(303,252,cs),
(184,253,l),
(189,364,ls),
(192,410,o),
(196,419,o),
(237,424,c),
(241,462,l),
(241,462,o),
(186,456,o),
(152,456,cs),
(122,456,o),
(67,457,o),
(67,457,c),
(61,423,l),
(64,419,l),
(89,420,ls),
(112,420,o),
(116,412,o),
(116,381,cs),
(115,90,ls),
(115,50,o),
(103,37,o),
(58,29,c)
);
}
);
width = 594;
}
);
note = hsmallcapital;
unicode = 668;
}
{
color = 8;
glyphname = qhook;
layers = (
{
layerId = m01;
shapes = (
{
closed = 1;
nodes = (
(170,53,o),
(112,130,o),
(112,236,cs),
(112,341,o),
(166,406,o),
(256,406,cs),
(316,406,o),
(346,386,o),
(353,383,c),
(353,109,l),
(345,103,o),
(291,53,o),
(244,53,cs)
);
},
{
closed = 1;
nodes = (
(278,-234,l),
(305,-231,o),
(341,-230,o),
(385,-230,cs),
(477,-230,l),
(484,-191,l),
(482,-189,l),
(480,-190,o),
(471,-190,o),
(456,-190,cs),
(424,-190,o),
(420,-172,o),
(420,-106,cs),
(420,234,o),
(425,373,o),
(437,482,cs),
(447,566,o),
(460,603,o),
(509,603,cs),
(540,603,o),
(572,591,o),
(604,566,c),
(615,569,l),
(625,594,o),
(635,616,o),
(646,634,c),
(644,643,l),
(606,656,o),
(571,662,o),
(540,662,cs),
(460,662,o),
(384,603,o),
(366,457,c),
(333,461,o),
(315,464,o),
(284,464,cs),
(157,464,o),
(35,359,o),
(35,202,cs),
(35,81,o),
(107,-12,o),
(228,-12,cs),
(243,-12,o),
(293,18,o),
(353,60,c),
(349,-135,ls),
(349,-181,o),
(335,-195,o),
(283,-196,c)
);
}
);
width = 516;
}
);
note = qhook;
unicode = 672;
}
{
color = 8;
glyphname = glottalstopstroke;
layers = (
{
layerId = m01;
shapes = (
{
closed = 1;
nodes = (
(145,-4,l),
(168,-1,o),
(205,0,o),
(257,0,cs),
(371,-2,l),
(378,41,l),
(376,45,l),
(363,45,o),
(360,43,o),
(326,43,cs),
(292,43,o),
(275,61,o),
(275,98,cs),
(276,135,l),
(396,136,l),
(403,183,l),
(397,193,l),
(362,189,o),
(322,187,o),
(277,187,c),
(278,259,l),
(320,278,o),
(357,299,o),
(389,323,c),
(417,340,o),
(440,377,o),
(440,497,cs),
(440,616,o),
(347,643,o),
(242,643,cs),
(190,643,o),
(140,637,o),
(91,626,c),
(87,620,l),
(88,554,ls),
(88,509,o),
(86,474,o),
(81,449,c),
(132,454,l),
(136,530,o),
(156,591,o),
(239,591,cs),
(317,590,o),
(356,551,o),
(356,476,cs),
(356,425,o),
(350,385,o),
(339,358,c),
(303,296,o),
(242,292,o),
(218,284,c),
(207,259,l),
(207,187,l),
(114,188,l),
(104,143,l),
(110,134,l),
(207,135,l),
(207,94,ls),
(207,59,o),
(188,40,o),
(150,35,c)
);
}
);
width = 528;
}
);
note = glottalstopstroke;
unicode = 673;
}
{
color = 8;
glyphname = glottalstopreversedstroke;
layers = (
{
layerId = m01;
shapes = (
{
closed = 1;
nodes = (
(378,35,l),
(340,40,o),
(321,59,o),
(321,94,cs),
(321,133,l),
(441,134,l),
(448,181,l),
(442,191,l),
(407,187,o),
(367,185,o),
(321,185,c),
(321,259,l),
(310,284,l),
(291,290,o),
(281,289,o),
(242,307,cs),
(195,329,o),
(172,368,o),
(172,476,cs),
(172,551,o),
(211,590,o),
(289,591,cs),
(370,591,o),
(392,537,o),
(396,454,c),
(447,449,l),
(442,474,o),
(440,509,o),
(440,554,cs),
(441,620,l),
(437,626,l),
(388,637,o),
(338,643,o),
(286,643,cs),
(200,643,o),
(88,624,o),
(88,497,cs),
(88,377,o),
(111,340,o),
(139,323,c),
(171,299,o),
(208,278,o),
(250,259,c),
(251,185,l),
(159,186,l),
(149,141,l),
(155,132,l),
(252,133,l),
(253,98,ls),
(253,61,o),
(236,43,o),
(202,43,cs),
(168,43,o),
(165,45,o),
(152,45,c),
(150,41,l),
(157,-2,l),
(271,0,ls),
(323,0,o),
(360,-1,o),
(383,-4,c)
);
}
);
width = 528;
}
);
note = glottalstopreversedstroke;
unicode = 674;
}
{
color = 8;
glyphname = bidentalpercussive;
layers = (
{
layerId = m01;
shapes = (
{
closed = 1;
nodes = (
(480,7,l),
(477,30,o),
(475,56,o),
(474,83,cs),
(471,176,l),
(465,183,l),
(45,183,l),
(38,176,l),
(38,119,o),
(36,61,o),
(30,4,c),
(77,7,l),
(92,87,ls),
(101,134,o),
(128,140,o),
(171,140,cs),
(338,140,ls),
(365,140,o),
(385,136,o),
(397,129,cs),
(408,121,o),
(416,107,o),
(419,87,cs),
(434,4,l)
);
},
{
closed = 1;
nodes = (
(480,447,l),
(477,470,o),
(475,496,o),
(474,523,cs),
(471,616,l),
(465,623,l),
(45,623,l),
(38,616,l),
(38,559,o),
(36,501,o),
(30,444,c),
(77,447,l),
(92,527,ls),
(101,574,o),
(128,580,o),
(171,580,cs),
(338,580,ls),
(365,580,o),
(385,576,o),
(397,569,cs),
(408,561,o),
(416,547,o),
(419,527,cs),
(434,444,l)
);
}
);
width = 510;
}
);
note = bidentalpercussive;
unicode = 685;
}
{
color = 2;
glyphname = jmod;
kernLeft = jmod;
kernRight = jmod;
layers = (
{
anchors = (
{
name = bottom;
pos = (243,0);
},
{
name = top;
pos = (125,463);
}
);
layerId = m01;
shapes = (
{
closed = 1;
nodes = (
(91,230,o),
(126,282,o),
(126,342,cs),
(126,519,o),
(130,622,o),
(138,637,c),
(134,647,l),
(134,647,o),
(71,633,o),
(25,627,c),
(22,596,l),
(22,596,o),
(32,598,o),
(40,598,cs),
(58,598,o),
(64,590,o),
(64,564,cs),
(64,374,ls),
(64,291,o),
(54,256,o),
(17,220,c),
(16,214,l),
(32,198,l)
);
},
{
closed = 1;
nodes = (
(119,720,o),
(138,739,o),
(138,765,cs),
(138,789,o),
(123,805,o),
(99,805,cs),
(73,805,o),
(54,786,o),
(54,760,cs),
(54,736,o),
(69,720,o),
(93,720,cs)
);
}
);
width = 186;
}
);
locked = 1;
production = uni02B2;
unicode = 690;
}
{
color = 2;
glyphname = ringhalfright;
layers = (
{
background = {
shapes = (
{
closed = 1;
nodes = (
(175,544,o),
(206,586,o),
(206,632,cs),
(206,670,o),
(184,708,o),
(129,708,cs),
(78,708,o),
(45,672,o),
(45,624,cs),
(45,577,o),
(72,544,o),
(121,544,cs)
);
},
{
closed = 1;
nodes = (
(107,582,o),
(77,595,o),
(77,630,cs),
(77,654,o),
(92,669,o),
(121,669,cs),
(154,669,o),
(172,649,o),
(172,621,cs),
(172,586,o),
(144,582,o),
(128,582,cs)
);
}
);
};
layerId = m01;
shapes = (
{
closed = 1;
nodes = (
(172,446,o),
(213,491,o),
(213,549,cs),
(213,604,o),
(177,638,o),
(118,638,c),
(118,592,l),
(151,592,o),
(173,570,o),
(173,536,cs),
(173,507,o),
(154,491,o),
(118,491,c),
(118,446,l)
);
}
);
width = 332;
}
);
locked = 1;
metricLeft = "=ringcomb";
metricRight = "=ringcomb";
production = uni02BE;
unicode = 702;
}
{
color = 2;
glyphname = verticallinemod;
layers = (
{
layerId = m01;
shapes = (
{
closed = 1;
nodes = (
(172,463,l),
(172,637,l),
(105,637,l),
(105,463,l)
);
}
);
width = 277;
}
);
locked = 1;
production = uni02C8;
unicode = 712;
}
{
color = 2;
glyphname = verticallinelowmod;
layers = (
{
layerId = m01;
shapes = (
{
closed = 1;
nodes = (
(172,-230,l),
(172,-56,l),
(105,-56,l),
(105,-230,l)
);
}
);
width = 277;
}
);
locked = 1;
production = uni02CC;
unicode = 716;
}
{
color = 2;
glyphname = tilde;
kernLeft = asterisk;
kernRight = asterisk;
layers = (
{
anchors = (
{
name = _top;
pos = (200,472);
}
);
layerId = m01;
shapes = (
{
closed = 1;
nodes = (
(73,551,l),
(73,551,o),
(112,606,o),
(136,606,cs),
(161,606,o),
(232,573,o),
(262,573,c),
(278,577,l),
(354,666,l),
(354,671,l),
(332,692,l),
(326,692,l),
(326,692,o),
(286,637,o),
(263,637,cs),
(238,637,o),
(167,670,o),
(137,670,c),
(121,666,l),
(45,577,l),
(45,572,l),
(67,551,l)
);
}
);
width = 398;
}
);
locked = 1;
unicode = 732;
}
{
color = 2;
glyphname = xmod;
kernLeft = xmod;
kernRight = xmod;
layers = (
{
anchors = (
{
name = bottom;
pos = (182,0);
},
{
name = top;
pos = (199,463);
}
);
background = {
shapes = (
{
closed = 1;
nodes = (
(379,0,o),
(242,-5,o),
(242,-5,cs),
(237,0,l),
(246,70,ls),
(268,71,o),
(277,75,o),
(277,85,cs),
(277,90,o),
(276,94,o),
(269,104,cs),
(225,162,ls),
(207,138,o),
(183,109,o),
(183,93,cs),
(183,78,o),
(192,71,o),
(212,71,cs),
(216,63,l),
(208,-4,ls),
(208,-4,o),
(117,0,o),
(93,0,cs),
(54,0,o),
(-4,-4,o),
(-4,-4,cs),
(-8,6,l),
(1,73,ls),
(17,80,o),
(38,101,o),
(85,160,cs),
(159,250,l),
(101,327,ls),
(70,369,o),
(42,380,o),
(4,388,cs),
(1,393,l),
(8,473,ls),
(8,473,o),
(55,472,o),
(142,472,cs),
(209,472,o),
(289,477,o),
(289,477,cs),
(294,469,l),
(287,395,ls),
(267,395,o),
(257,389,o),
(257,376,cs),
(257,359,o),
(264,349,o),
(277,333,cs),
(303,300,l),
(334,345,ls),
(343,360,o),
(351,370,o),
(351,381,cs),
(351,392,o),
(344,396,o),
(323,396,cs),
(321,400,l),
(327,472,l),
(435,472,ls),
(480,472,o),
(534,475,o),
(534,475,cs),
(537,469,l),
(532,391,ls),
(493,367,o),
(466,345,o),
(444,317,cs),
(372,213,l),
(432,138,ls),
(465,97,o),
(489,78,o),
(526,75,cs),
(529,72,l),
(518,-2,ls),
(518,-2,o),
(443,0,o),
(415,0,cs)
);
}
);
};
layerId = m01;
shapes = (
{
closed = 1;
nodes = (
(17,640,c),
(13,611,l),
(14,608,l),
(43,603,o),
(56,594,o),
(82,558,cs),
(127,495,l),
(74,434,ls),
(46,401,o),
(36,389,o),
(16,379,c),
(12,353,l),
(14,349,l),
(14,349,o),
(39,351,o),
(59,351,cs),
(73,351,o),
(117,348,o),
(117,348,c),
(121,375,l),
(120,378,l),
(100,379,o),
(94,382,o),
(94,390,cs),
(94,401,o),
(128,441,o),
(149,466,c),
(191,409,ls),
(197,400,o),
(200,394,o),
(200,389,cs),
(200,381,o),
(192,377,o),
(173,377,c),
(169,351,l),
(170,347,l),
(170,347,o),
(227,351,o),
(252,351,cs),
(272,351,o),
(313,350,o),
(313,350,c),
(317,378,l),
(316,380,l),
(291,383,o),
(274,396,o),
(252,426,cs),
(199,498,l),
(252,563,ls),
(271,585,o),
(290,602,o),
(306,610,c),
(310,638,l),
(308,641,l),
(308,641,o),
(278,639,o),
(258,639,cs),
(205,639,l),
(202,612,l),
(203,609,l),
(223,609,o),
(228,607,o),
(228,601,cs),
(228,592,o),
(220,584,o),
(210,571,cs),
(176,528,l),
(146,570,ls),
(138,582,o),
(131,590,o),
(131,599,cs),
(131,608,o),
(139,611,o),
(158,611,c),
(162,638,l),
(160,642,l),
(160,642,o),
(125,639,o),
(87,639,cs),
(57,639,o),
(17,640,o)
);
}
);
width = 329;
}
);
locked = 1;
production = uni02E3;
unicode = 739;
}
{
color = 2;
glyphname = gravecomb;
kernLeft = asterisk;
kernRight = asterisk;
layers = (
{
anchors = (
{
name = _top;
pos = (198,452);
},
{
name = top;
pos = (170,714);
}
);
background = {
shapes = (
{
closed = 1;
nodes = (
(234,511,l),
(208,576,o),
(186,639,o),
(165,705,c),
(156,706,l),
(105,680,l),
(103,670,l),
(194,500,l),
(203,499,l)
);
}
);
};
layerId = m01;
shapes = (
{
closed = 1;
nodes = (
(249,523,l),
(269,542,l),
(197,620,o),
(119,714,o),
(119,714,c),
(109,712,l),
(71,671,l),
(72,660,l),
(72,660,o),
(156,597,o),
(240,521,c)
);
}
);
width = 398;
}
);
locked = 1;
unicode = 768;
}
{
color = 2;
glyphname = acutecomb;
kernLeft = asterisk;
kernRight = asterisk;
layers = (
{
anchors = (
{
name = _top;
pos = (228,452);
},
{
name = top;
pos = (228,715);
}
);
layerId = m01;
shapes = (
{
closed = 1;
nodes = (
(242,597,o),
(326,661,o),
(326,661,c),
(327,672,l),
(289,713,l),
(279,715,l),
(279,715,o),
(201,620,o),
(129,542,c),
(149,523,l),
(158,521,l)
);
}
);
width = 398;
}
);
locked = 1;
unicode = 769;
}
{
color = 2;
glyphname = macroncomb;
kernLeft = asterisk;
kernRight = asterisk;
layers = (
{
anchors = (
{
name = _top;
pos = (200,452);
},
{
name = top;
pos = (200,633);
}
);
layerId = m01;
shapes = (
{
closed = 1;
nodes = (
(56,574,o),
(141,575,o),
(200,575,cs),
(342,576,l),
(349,623,l),
(343,633,l),
(343,633,o),
(264,627,o),
(214,627,cs),
(155,627,o),
(60,628,o),
(60,628,c),
(50,583,l),
(56,574,l)
);
}
);
width = 398;
}
);
locked = 1;
production = uni0304;
unicode = 772;
}
{
color = 2;
glyphname = dotaccentcomb;
kernLeft = asterisk;
kernRight = asterisk;
layers = (
{
anchors = (
{
name = _top;
pos = (199,452);
},
{
name = top;
pos = (199,592);
}
);
layerId = m01;
shapes = (
{
closed = 1;
nodes = (
(228,582,o),
(253,609,o),
(253,641,cs),
(253,667,o),
(236,692,o),
(204,692,cs),
(170,692,o),
(145,665,o),
(145,633,cs),
(145,608,o),
(161,582,o),
(194,582,cs)
);
}
);
width = 398;
}
);
locked = 1;
production = uni0307;
unicode = 775;
}
{
color = 2;
glyphname = ringcomb;
kernLeft = asterisk;
kernRight = asterisk;
layers = (
{
anchors = (
{
name = _top;
pos = (193,472);
},
{
name = top;
pos = (199,708);
}
);
layerId = m01;
shapes = (
{
closed = 1;
nodes = (
(243,544,o),
(279,581,o),
(279,632,cs),
(279,678,o),
(249,708,o),
(202,708,cs),
(153,708,o),
(118,674,o),
(118,624,cs),
(118,575,o),
(147,544,o),
(194,544,cs)
);
},
{
closed = 1;
nodes = (
(172,582,o),
(150,603,o),
(150,630,cs),
(150,655,o),
(166,669,o),
(194,669,cs),
(225,669,o),
(245,651,o),
(245,621,cs),
(245,596,o),
(229,582,o),
(201,582,cs)
);
}
);
width = 398;
}
);
locked = 1;
production = uni030A;
unicode = 778;
}
{
color = 2;
glyphname = dblgravecomb;
layers = (
{
anchors = (
{
name = _top;
pos = (196,452);
},
{
name = top;
pos = (183,705);
}
);
layerId = m01;
shapes = (
{
closed = 1;
nodes = (
(322,536,l),
(338,554,l),
(272,622,o),
(198,705,o),
(198,705,c),
(189,702,l),
(156,664,l),
(158,655,l),
(158,655,o),
(234,600,o),
(313,534,c)
);
},
{
closed = 1;
nodes = (
(194,536,l),
(210,554,l),
(144,622,o),
(70,705,o),
(70,705,c),
(61,702,l),
(28,664,l),
(30,655,l),
(30,655,o),
(106,600,o),
(185,534,c)
);
}
);
width = 362;
}
);
locked = 1;
production = uni030F;
unicode = 783;
}
{
color = 2;
glyphname = commaaccentcomb;
kernLeft = period;
kernRight = period;
layers = (
{
anchors = (
{
name = _bottom;
pos = (197,0);
},
{
name = bottom;
pos = (179,-293);
}
);
layerId = m01;
shapes = (
{
closed = 1;
nodes = (
(179,-264,o),
(252,-210,o),
(252,-138,cs),
(252,-94,o),
(228,-67,o),
(198,-67,cs),
(176,-67,o),
(153,-83,o),
(140,-93,c),
(138,-107,l),
(160,-120,o),
(178,-142,o),
(178,-169,cs),
(178,-203,o),
(146,-243,o),
(106,-268,c),
(106,-278,l),
(124,-293,l)
);
}
);
width = 398;
}
);
locked = 1;
production = uni0326;
unicode = 806;
}
{
color = 2;
glyphname = cedillacomb;
kernLeft = period;
kernRight = period;
layers = (
{
anchors = (
{
name = _bottom;
pos = (184,0);
},
{
name = bottom;
pos = (193,-233);
}
);
layerId = m01;
shapes = (
{
closed = 1;
nodes = (
(222,-233,o),
(287,-191,o),
(287,-139,cs),
(287,-102,o),
(235,-73,o),
(202,-50,c),
(227,23,l),
(184,23,l),
(151,-85,l),
(191,-108,o),
(236,-136,o),
(236,-160,cs),
(236,-183,o),
(214,-198,o),
(188,-198,cs),
(156,-198,o),
(134,-178,o),
(133,-141,c),
(124,-141,l),
(114,-157,o),
(99,-184,o),
(99,-197,cs),
(99,-220,o),
(137,-233,o),
(167,-233,cs)
);
}
);
width = 398;
}
);
locked = 1;
production = uni0327;
unicode = 807;
}
{
color = 2;
glyphname = ypogegrammenicomb;
layers = (
{
anchors = (
{
name = _bottom;
pos = (159,0);
}
);
background = {
shapes = (
{
closed = 1;
nodes = (
(115,-222,o),
(139,-231,o),
(163,-236,c),
(172,-226,l),
(178,-31,l),
(141,-28,l),
(133,-32,l),
(94,-211,l)
);
}
);
};
layerId = m01;
shapes = (
{
closed = 1;
nodes = (
(184,-221,l),
(170,-32,l),
(133,-33,l),
(125,-37,l),
(105,-216,l),
(127,-223,o),
(153,-231,o),
(177,-232,c)
);
}
);
width = 318;
}
);
locked = 1;
production = uni0345;
unicode = 837;
}
{
color = 2;
glyphname = tonos;
layers = (
{
anchors = (
{
name = _top;
pos = (198,452);
},
{
name = _topleft;
pos = (245,674);
}
);
background = {
shapes = (
{
closed = 1;
nodes = (
(249,713,l),
(195,730,l),
(186,727,l),
(174,658,o),
(161,591,o),
(146,523,c),
(174,516,l),
(183,519,l),
(253,703,l)
);
}
);
};
layerId = m01;
shapes = (
{
closed = 1;
nodes = (
(214,504,l),
(290,681,l),
(287,691,l),
(234,712,l),
(225,710,l),
(210,643,o),
(193,578,o),
(173,511,c),
(205,502,l)
);
}
);
width = 398;
}
);
locked = 1;
unicode = 900;
}
{
color = 2;
glyphname = dieresistonos;
layers = (
{
anchors = (
{
name = _top;
pos = (199,452);
}
);
background = {
shapes = (
{
closed = 1;
nodes = (
(285,691,l),
(232,712,l),
(223,710,l),
(208,643,o),
(191,578,o),
(171,511,c),
(203,502,l),
(212,504,l),
(288,681,l)
);
}
);
};
guides = (
{
pos = (348,504);
},
{
pos = (348,699);
}
);
layerId = m01;
shapes = (
{
closed = 1;
nodes = (
(209,507,l),
(242,683,l),
(237,691,l),
(185,699,l),
(177,695,l),
(177,632,o),
(176,569,o),
(172,505,c),
(201,503,l)
);
},
{
closed = 1;
nodes = (
(124,564,o),
(143,585,o),
(143,609,cs),
(143,628,o),
(131,647,o),
(106,647,cs),
(81,647,o),
(61,626,o),
(61,602,cs),
(61,584,o),
(74,564,o),
(98,564,cs)
);
},
{
closed = 1;
nodes = (
(323,564,o),
(343,585,o),
(343,609,cs),
(343,628,o),
(330,647,o),
(306,647,cs),
(280,647,o),
(261,626,o),
(261,602,cs),
(261,584,o),
(273,564,o),
(298,564,cs)
);
}
);
width = 398;
}
);
locked = 1;
unicode = 901;
}
{
color = 2;
glyphname = Gamma;
kernLeft = H;
kernRight = Gamma;
layers = (
{
anchors = (
{
name = bottomright;
pos = (213,112);
},
{
name = center;
pos = (220,311);
}
);
background = {
shapes = (
{
closed = 1;
nodes = (
(227,548,l),
(228,585,o),
(232,587,o),
(297,587,cs),
(414,587,o),
(426,581,o),
(426,516,cs),
(426,502,o),
(425,463,o),
(424,439,c),
(472,443,l),
(475,511,o),
(483,579,o),
(495,643,c),
(492,649,l),
(433,640,o),
(357,637,o),
(216,637,cs),
(172,637,o),
(111,639,o),
(77,640,c),
(70,596,l),
(72,592,l),
(82,593,o),
(98,594,o),
(106,594,cs),
(136,594,o),
(143,583,o),
(143,540,cs),
(142,120,ls),
(142,64,o),
(126,46,o),
(64,34,c),
(58,-12,l),
(98,-5,o),
(144,0,o),
(172,0,cs),
(208,0,o),
(277,-2,o),
(321,-4,c),
(330,43,l),
(328,47,l),
(306,46,o),
(272,44,o),
(257,44,cs),
(222,44,o),
(213,58,o),
(213,112,c)
);
}
);
};
layerId = m01;
shapes = (
{
closed = 1;
nodes = (
(105,-4,o),
(153,0,o),
(182,0,cs),
(207,0,o),
(254,-2,o),
(321,-4,c),
(330,43,l),
(328,47,l),
(306,46,o),
(272,44,o),
(257,44,cs),
(222,44,o),
(213,58,o),
(213,112,c),
(227,548,l),
(228,585,o),
(232,587,o),
(305,587,cs),
(416,587,o),
(426,581,o),
(426,508,cs),
(426,482,o),
(426,477,o),
(424,439,c),
(472,443,l),
(476,512,o),
(483,577,o),
(495,643,c),
(492,649,l),
(436,640,o),
(366,637,o),
(216,637,cs),
(172,637,o),
(111,639,o),
(77,640,c),
(70,596,l),
(72,592,l),
(89,593,o),
(99,594,o),
(106,594,cs),
(136,594,o),
(143,583,o),
(143,540,cs),
(142,120,ls),
(142,64,o),
(126,46,o),
(64,34,c),
(58,-12,l)
);
}
);
width = 493;
}
);
locked = 1;
unicode = 915;
}
{
color = 2;
glyphname = Theta;
kernLeft = O;
kernRight = O;
layers = (
{
anchors = (
{
name = bottom;
pos = (315,0);
},
{
name = top;
pos = (324,647);
}
);
background = {
shapes = (
{
closed = 1;
nodes = (
(231,280,o),
(298,286,o),
(328,286,cs),
(375,286,o),
(453,283,o),
(497,282,c),
(514,357,l),
(508,363,l),
(459,355,o),
(392,349,o),
(362,349,cs),
(315,349,o),
(237,352,o),
(193,353,c),
(176,278,l),
(182,272,l)
);
}
);
};
layerId = m01;
shapes = (
{
closed = 1;
nodes = (
(506,-12,o),
(652,142,o),
(652,341,cs),
(652,523,o),
(536,649,o),
(369,649,cs),
(184,649,o),
(40,495,o),
(40,297,cs),
(40,114,o),
(153,-12,o),
(317,-12,cs)
);
},
{
closed = 1;
nodes = (
(217,39,o),
(126,158,o),
(126,329,cs),
(126,483,o),
(211,589,o),
(335,589,cs),
(470,589,o),
(563,470,o),
(563,299,cs),
(563,145,o),
(475,39,o),
(348,39,cs)
);
},
{
closed = 1;
nodes = (
(232,280,o),
(298,286,o),
(328,286,cs),
(374,286,o),
(452,283,o),
(495,282,c),
(512,357,l),
(506,363,l),
(458,355,o),
(392,349,o),
(362,349,cs),
(316,349,o),
(238,352,o),
(195,353,c),
(178,278,l),
(184,272,l)
);
}
);
width = 692;
}
);
locked = 1;
metricLeft = "=O";
metricRight = "=O";
unicode = 920;
}
{
color = 2;
glyphname = Xi;
kernLeft = Xi;
kernRight = E;
layers = (
{
background = {
shapes = (
{
closed = 1;
nodes = (
(69,589,o),
(64,543,o),
(55,480,c),
(100,485,l),
(123,565,o),
(139,576,o),
(230,576,cs),
(392,576,ls),
(463,576,o),
(473,563,o),
(467,479,c),
(518,483,l),
(520,527,o),
(529,588,o),
(542,643,c),
(539,649,l),
(487,639,o),
(429,636,o),
(293,636,c),
(86,641,l),
(71,627,l)
);
},
{
closed = 1;
nodes = (
(290,2,l),
(522,-3,l),
(537,12,l),
(541,73,o),
(546,124,o),
(551,155,c),
(547,159,l),
(507,155,l),
(485,74,o),
(468,62,o),
(378,62,cs),
(212,62,ls),
(121,62,o),
(103,75,o),
(82,159,c),
(44,153,l),
(41,147,l),
(47,122,o),
(51,75,o),
(53,12,c),
(68,-3,l)
);
},
{
closed = 1;
nodes = (
(131,336,o),
(124,285,o),
(115,241,c),
(118,235,l),
(162,238,l),
(169,283,o),
(181,293,o),
(222,293,cs),
(361,293,ls),
(408,293,o),
(407,283,o),
(403,234,c),
(451,236,l),
(456,289,o),
(464,344,o),
(475,405,c),
(472,410,l),
(426,407,l),
(420,365,o),
(406,353,o),
(367,353,cs),
(228,353,ls),
(186,353,o),
(179,362,o),
(185,408,c),
(138,405,l)
);
}
);
};
layerId = m01;
shapes = (
{
closed = 1;
nodes = (
(290,2,l),
(522,-3,l),
(537,12,l),
(541,73,o),
(546,124,o),
(551,155,c),
(547,159,l),
(507,155,l),
(485,74,o),
(468,62,o),
(378,62,cs),
(212,62,ls),
(121,62,o),
(103,75,o),
(82,159,c),
(44,153,l),
(41,147,l),
(47,123,o),
(51,78,o),
(53,12,c),
(68,-3,l)
);
},
{
closed = 1;
nodes = (
(180,285,o),
(247,291,o),
(277,291,cs),
(324,291,o),
(402,288,o),
(446,287,c),
(463,362,l),
(457,368,l),
(408,360,o),
(341,354,o),
(311,354,cs),
(264,354,o),
(186,357,o),
(142,358,c),
(125,283,l),
(131,277,l)
);
},
{
closed = 1;
nodes = (
(100,486,l),
(123,566,o),
(139,577,o),
(230,577,cs),
(392,577,ls),
(463,577,o),
(473,564,o),
(467,481,c),
(518,484,l),
(520,530,o),
(529,591,o),
(542,644,c),
(539,650,l),
(487,640,o),
(430,637,o),
(293,637,cs),
(86,642,l),
(71,628,l),
(69,590,o),
(64,544,o),
(55,481,c)
);
}
);
width = 596;
}
);
locked = 1;
unicode = 926;
}
{
color = 2;
glyphname = Sigma;
kernLeft = X;
kernRight = E;
layers = (
{
background = {
shapes = (
{
closed = 1;
nodes = (
(174,138,o),
(175,188,o),
(178,296,c),
(195,299,o),
(225,303,o),
(255,303,cs),
(309,303,o),
(395,300,o),
(395,300,c),
(409,359,l),
(405,364,l),
(405,364,o),
(319,353,o),
(283,353,cs),
(253,353,o),
(202,354,o),
(180,354,c),
(188,548,l),
(189,585,o),
(193,587,o),
(258,587,cs),
(399,587,o),
(411,581,o),
(411,516,cs),
(411,502,o),
(409,473,o),
(409,473,c),
(457,477,l),
(463,569,o),
(480,643,o),
(480,643,c),
(477,649,l),
(411,640,o),
(336,637,o),
(177,637,cs),
(117,637,o),
(38,640,o),
(38,640,c),
(31,596,l),
(33,592,l),
(33,592,o),
(55,594,o),
(67,594,cs),
(97,594,o),
(104,583,o),
(104,540,cs),
(103,120,ls),
(103,63,o),
(85,44,o),
(25,36,c),
(19,-10,l),
(19,-10,o),
(82,0,o),
(158,0,cs),
(253,0,o),
(461,-7,o),
(461,-7,c),
(466,-1,l),
(475,84,o),
(493,167,o),
(493,167,c),
(490,172,l),
(446,167,l),
(430,57,o),
(411,45,o),
(253,45,cs),
(181,45,o),
(174,51,o),
(174,105,cs)
);
}
);
};
layerId = m01;
shapes = (
{
closed = 1;
nodes = (
(113,3,l),
(458,-3,l),
(473,13,l),
(475,66,o),
(484,146,o),
(495,204,c),
(492,208,l),
(449,203,l),
(426,89,o),
(408,71,o),
(313,71,c),
(109,71,l),
(322,313,l),
(324,338,l),
(136,588,l),
(295,588,ls),
(384,588,o),
(417,555,o),
(428,459,c),
(470,467,l),
(464,520,o),
(460,591,o),
(459,640,c),
(449,649,l),
(394,643,o),
(323,639,o),
(274,638,c),
(44,631,l),
(32,597,l),
(253,303,l),
(18,36,l),
(31,-3,l)
);
}
);
width = 556;
}
);
locked = 1;
unicode = 931;
}
{
color = 2;
glyphname = Psi;
kernLeft = Y;
kernRight = Y;
layers = (
{
anchors = (
{
name = bottom;
pos = (317,0);
},
{
name = ogonek;
pos = (470,40);
},
{
name = top;
pos = (365,647);
}
);
background = {
shapes = (
{
closed = 1;
nodes = (
(339,315,l),
(212,316,o),
(176,375,o),
(135,604,c),
(123,613,l),
(15,589,l),
(20,549,l),
(72,561,o),
(70,539,o),
(85,479,cs),
(128,312,o),
(175,272,o),
(339,272,c)
);
},
{
closed = 1;
nodes = (
(529,272,o),
(585,320,o),
(628,479,cs),
(644,538,o),
(653,552,o),
(676,552,cs),
(684,552,o),
(691,551,o),
(699,550,c),
(704,589,l),
(597,613,l),
(585,604,l),
(544,375,o),
(508,316,o),
(381,315,c),
(381,272,l)
);
},
{
closed = 1;
nodes = (
(407,582,o),
(422,594,o),
(477,601,c),
(481,646,l),
(442,641,o),
(394,637,o),
(366,637,cs),
(336,637,o),
(281,639,o),
(247,640,c),
(240,596,l),
(242,592,l),
(255,593,o),
(274,594,o),
(284,594,cs),
(313,594,o),
(321,583,o),
(321,540,cs),
(320,120,ls),
(320,64,o),
(303,46,o),
(240,34,c),
(234,-12,l),
(273,-5,o),
(321,0,o),
(350,0,cs),
(384,0,o),
(445,-2,o),
(481,-3,c),
(490,43,l),
(488,47,l),
(476,46,o),
(453,44,o),
(435,44,cs),
(400,44,o),
(391,58,o),
(391,112,cs),
(391,195,o),
(398,398,o),
(405,544,cs)
);
}
);
};
layerId = m01;
shapes = (
{
closed = 1;
nodes = (
(273,-5,o),
(321,0,o),
(350,0,cs),
(384,0,o),
(445,-2,o),
(481,-3,c),
(490,43,l),
(488,47,l),
(476,46,o),
(453,44,o),
(435,44,cs),
(400,44,o),
(391,58,o),
(391,112,cs),
(391,195,o),
(398,398,o),
(405,544,cs),
(407,582,o),
(422,594,o),
(477,601,c),
(481,646,l),
(442,641,o),
(394,637,o),
(366,637,cs),
(336,637,o),
(281,639,o),
(247,640,c),
(240,596,l),
(242,592,l),
(255,593,o),
(274,594,o),
(284,594,cs),
(313,594,o),
(321,583,o),
(321,540,cs),
(320,120,ls),
(320,64,o),
(303,46,o),
(240,34,c),
(234,-12,l)
);
},
{
closed = 1;
nodes = (
(339,315,l),
(212,316,o),
(176,375,o),
(135,604,c),
(123,613,l),
(15,589,l),
(20,549,l),
(66,559,o),
(69,544,o),
(79,503,cs),
(128,312,o),
(175,272,o),
(339,272,c)
);
},
{
closed = 1;
nodes = (
(529,272,o),
(585,320,o),
(628,479,cs),
(645,542,o),
(651,559,o),
(699,550,c),
(704,589,l),
(597,613,l),
(585,604,l),
(544,375,o),
(508,316,o),
(381,315,c),
(381,272,l)
);
}
);
width = 716;
}
);
locked = 1;
unicode = 936;
}
{
color = 2;
glyphname = Omega;
kernLeft = Omega;
kernRight = Omega;
layers = (
{
anchors = (
{
name = bottom;
pos = (401,0);
},
{
name = top;
pos = (401,637);
},
{
name = topleft;
pos = (55,637);
}
);
background = {
shapes = (
{
closed = 1;
nodes = (
(763,10,l),
(764,52,o),
(773,118,o),
(784,164,c),
(741,159,l),
(726,79,o),
(703,56,o),
(639,56,c),
(515,56,l),
(642,124,o),
(716,239,o),
(716,369,cs),
(716,534,o),
(596,649,o),
(424,649,cs),
(246,649,o),
(104,518,o),
(104,353,cs),
(104,239,o),
(171,134,o),
(294,56,c),
(185,56,l),
(120,56,o),
(97,81,o),
(83,164,c),
(42,159,l),
(53,105,o),
(63,46,o),
(61,10,c),
(77,-6,l),
(350,0,l),
(357,8,l),
(344,59,l),
(248,126,o),
(190,239,o),
(190,360,cs),
(190,497,o),
(280,589,o),
(412,589,cs),
(540,589,o),
(627,488,o),
(627,341,cs),
(627,227,o),
(581,146,o),
(469,62,c),
(456,10,l),
(462,1,l),
(747,-6,l)
);
}
);
};
layerId = m01;
shapes = (
{
closed = 1;
nodes = (
(341,0,l),
(348,8,l),
(335,66,l),
(246,128,o),
(188,244,o),
(188,359,cs),
(188,497,o),
(272,589,o),
(397,589,cs),
(523,589,o),
(604,493,o),
(604,343,cs),
(604,232,o),
(558,149,o),
(454,69,c),
(441,10,l),
(447,1,l),
(723,-6,l),
(739,10,l),
(740,52,o),
(748,118,o),
(759,164,c),
(716,159,l),
(701,79,o),
(679,56,o),
(618,56,c),
(512,56,l),
(512,66,l),
(626,134,o),
(693,247,o),
(693,372,cs),
(693,535,o),
(578,649,o),
(413,649,cs),
(238,649,o),
(102,521,o),
(102,357,cs),
(102,247,o),
(164,142,o),
(274,66,c),
(274,56,l),
(181,56,l),
(119,56,o),
(97,81,o),
(83,164,c),
(42,159,l),
(56,88,o),
(62,38,o),
(60,10,c),
(76,-6,l)
);
}
);
width = 801;
}
);
locked = 1;
production = uni03A9;
unicode = 937;
}
{
color = 2;
glyphname = alpha;
kernLeft = alpha;
kernRight = alpha;
layers = (
{
anchors = (
{
name = bottom;
pos = (300,0);
},
{
name = top;
pos = (287,452);
}
);
background = {
shapes = (
{
closed = 1;
nodes = (
(261,-10,o),
(361,124,o),
(484,405,c),
(467,429,o),
(451,446,o),
(431,464,c),
(418,459,l),
(346,221,o),
(237,56,o),
(152,56,cs),
(116,56,o),
(97,90,o),
(97,156,cs),
(97,278,o),
(155,375,o),
(228,375,cs),
(283,375,o),
(311,324,o),
(327,197,c),
(377,288,l),
(347,288,l),
(332,377,o),
(282,446,o),
(225,458,c),
(127,458,o),
(48,339,o),
(48,192,cs),
(48,75,o),
(101,-10,o),
(173,-10,cs)
);
},
{
closed = 1;
nodes = (
(478,9,o),
(500,38,o),
(510,83,c),
(507,91,l),
(405,71,o),
(361,102,o),
(365,193,cs),
(366,214,l),
(319,128,l),
(338,116,l),
(339,38,o),
(377,-6,o),
(443,-8,c)
);
}
);
};
layerId = m01;
shapes = (
{
closed = 1;
nodes = (
(254,-10,o),
(365,134,o),
(484,405,c),
(467,428,o),
(452,445,o),
(431,464,c),
(418,459,l),
(346,221,o),
(237,56,o),
(152,56,cs),
(116,56,o),
(97,90,o),
(97,156,cs),
(97,278,o),
(155,375,o),
(228,375,cs),
(283,375,o),
(311,324,o),
(327,197,c),
(377,288,l),
(347,288,l),
(332,377,o),
(282,446,o),
(225,458,c),
(127,458,o),
(48,339,o),
(48,192,c),
(48,79,o),
(99,-10,o),
(163,-10,cs)
);
},
{
closed = 1;
nodes = (
(478,9,o),
(500,38,o),
(510,83,c),
(507,91,l),
(405,71,o),
(361,102,o),
(365,193,cs),
(366,214,l),
(319,128,l),
(338,116,l),
(339,38,o),
(377,-6,o),
(443,-8,c)
);
}
);
width = 540;
}
);
locked = 1;
unicode = 945;
}
{
color = 2;
glyphname = beta;
kernLeft = h;
kernRight = beta;
layers = (
{
background = {
shapes = (
{
closed = 1;
nodes = (
(126,-235,o),
(147,-232,o),
(165,-226,c),
(142,86,l),
(142,366,l),
(146,590,o),
(191,680,o),
(298,680,cs),
(342,680,o),
(368,663,o),
(368,616,cs),
(368,548,o),
(329,476,o),
(215,335,c),
(245,285,l),
(362,413,o),
(416,511,o),
(416,588,cs),
(416,677,o),
(344,740,o),
(257,740,cs),
(154,740,o),
(94,651,o),
(91,492,cs),
(78,-226,l),
(89,-237,l)
);
},
{
closed = 1;
nodes = (
(390,-12,o),
(485,74,o),
(485,181,cs),
(485,324,o),
(318,420,o),
(199,355,c),
(197,345,l),
(207,323,o),
(219,303,o),
(233,285,c),
(245,285,l),
(327,348,o),
(417,315,o),
(417,221,cs),
(417,73,o),
(238,9,o),
(129,118,c),
(129,33,l),
(153,42,l),
(234,-6,o),
(239,-12,o),
(271,-12,cs)
);
}
);
};
layerId = m01;
shapes = (
{
closed = 1;
nodes = (
(127,-234,o),
(150,-230,o),
(169,-223,c),
(145,86,l),
(145,365,l),
(150,583,o),
(196,673,o),
(300,673,cs),
(348,673,o),
(369,653,o),
(369,608,cs),
(369,546,o),
(329,474,o),
(216,335,c),
(248,282,l),
(365,407,o),
(419,505,o),
(419,583,cs),
(419,669,o),
(350,737,o),
(259,737,cs),
(155,737,o),
(95,649,o),
(92,490,cs),
(78,-225,l),
(89,-236,l)
);
},
{
closed = 1;
nodes = (
(392,-12,o),
(488,69,o),
(488,177,cs),
(488,319,o),
(322,421,o),
(201,356,c),
(199,346,l),
(209,322,o),
(221,302,o),
(236,282,c),
(248,282,l),
(333,345,o),
(418,314,o),
(418,218,cs),
(418,80,o),
(235,15,o),
(126,120,c),
(126,32,l),
(156,44,l),
(189,20,o),
(222,2,o),
(258,-12,c)
);
}
);
width = 515;
}
);
locked = 1;
unicode = 946;
}
{
color = 2;
glyphname = epsilon;
kernLeft = epsilon;
kernRight = epsilon;
layers = (
{
anchors = (
{
name = top;
pos = (224,452);
}
);
background = {
shapes = (
{
closed = 1;
nodes = (
(276,-4,o),
(317,14,o),
(355,37,c),
(369,64,o),
(375,92,o),
(376,119,c),
(369,123,l),
(244,44,o),
(101,46,o),
(101,125,cs),
(101,175,o),
(186,207,o),
(310,204,c),
(319,266,l),
(310,274,l),
(171,270,o),
(50,188,o),
(50,98,cs),
(50,29,o),
(112,-12,o),
(233,-12,c)
);
},
{
closed = 1;
nodes = (
(208,248,l),
(149,251,o),
(118,270,o),
(118,302,cs),
(118,374,o),
(228,415,o),
(337,385,c),
(346,392,l),
(343,413,o),
(336,433,o),
(324,452,c),
(191,486,o),
(56,428,o),
(56,336,cs),
(56,234,o),
(188,164,o),
(310,204,c)
);
}
);
};
layerId = m01;
shapes = (
{
closed = 1;
nodes = (
(281,-4,o),
(323,15,o),
(361,37,c),
(371,65,o),
(378,90,o),
(380,117,c),
(373,121,l),
(312,85,o),
(245,67,o),
(194,67,cs),
(141,67,o),
(103,88,o),
(103,125,cs),
(103,175,o),
(191,206,o),
(316,203,c),
(322,224,o),
(324,246,o),
(324,267,c),
(315,274,l),
(176,271,o),
(50,188,o),
(50,96,cs),
(50,28,o),
(113,-12,o),
(238,-12,c)
);
},
{
closed = 1;
nodes = (
(268,192,o),
(292,195,o),
(316,203,c),
(217,246,l),
(157,250,o),
(125,269,o),
(125,299,cs),
(125,354,o),
(192,390,o),
(271,390,cs),
(295,390,o),
(320,387,o),
(346,380,c),
(355,387,l),
(354,408,o),
(350,429,o),
(344,449,c),
(316,457,o),
(290,459,o),
(262,459,cs),
(154,459,o),
(59,407,o),
(59,332,cs),
(59,251,o),
(145,192,o),
(244,192,cs)
);
}
);
width = 421;
}
);
locked = 1;
unicode = 949;
}
{
color = 2;
glyphname = zeta;
kernLeft = zeta;
kernRight = zeta;
layers = (
{
background = {
shapes = (
{
closed = 1;
nodes = (
(246,-142,o),
(295,-91,o),
(295,-9,cs),
(295,55,o),
(269,94,o),
(207,109,cs),
(114,132,o),
(84,141,o),
(84,190,cs),
(84,260,o),
(154,377,o),
(354,653,c),
(351,664,l),
(295,706,l),
(284,707,l),
(116,461,o),
(45,320,o),
(45,199,cs),
(45,92,o),
(95,47,o),
(186,25,cs),
(238,12,o),
(252,9,o),
(252,-11,cs),
(252,-41,o),
(218,-60,o),
(108,-90,c),
(103,-103,l),
(143,-179,l)
);
},
{
closed = 1;
nodes = (
(181,595,o),
(217,604,o),
(256,617,c),
(254,637,l),
(144,614,o),
(93,647,o),
(136,731,c),
(122,738,l),
(78,719,o),
(53,688,o),
(53,657,cs),
(53,617,o),
(93,590,o),
(143,590,c)
);
}
);
};
layerId = m01;
shapes = (
{
closed = 1;
nodes = (
(262,-142,o),
(316,-91,o),
(316,-9,cs),
(316,55,o),
(289,94,o),
(223,109,cs),
(118,133,o),
(84,141,o),
(84,190,cs),
(84,260,o),
(160,377,o),
(383,653,c),
(380,664,l),
(363,681,o),
(345,695,o),
(324,706,c),
(313,707,l),
(125,461,o),
(45,320,o),
(45,199,cs),
(45,92,o),
(103,47,o),
(197,25,cs),
(257,11,o),
(273,9,o),
(273,-11,cs),
(273,-41,o),
(238,-60,o),
(114,-90,c),
(109,-103,l),
(150,-179,l)
);
},
{
closed = 1;
nodes = (
(197,595,o),
(238,604,o),
(280,617,c),
(278,637,l),
(154,614,o),
(95,647,o),
(145,731,c),
(131,738,l),
(82,719,o),
(55,688,o),
(55,657,cs),
(55,617,o),
(100,590,o),
(155,590,c)
);
}
);
width = 321;
}
);
locked = 1;
unicode = 950;
}
{
color = 2;
glyphname = eta;
kernLeft = n;
kernRight = n;
layers = (
{
anchors = (
{
name = bottom;
pos = (132,0);
},
{
name = top;
pos = (291,452);
}
);
background = {
shapes = (
{
closed = 1;
nodes = (
(442,-228,l),
(442,228,ls),
(442,367,o),
(396,460,o),
(327,460,c),
(265,420,o),
(219,360,o),
(182,267,c),
(167,274,l),
(88,9,l),
(110,1,o),
(132,-5,o),
(156,-7,c),
(159,20,l),
(198,205,o),
(290,371,o),
(353,371,cs),
(381,371,o),
(394,336,o),
(394,260,cs),
(394,192,o),
(381,44,o),
(354,-211,c),
(378,-224,o),
(400,-231,o),
(433,-237,c)
);
},
{
closed = 1;
nodes = (
(156,-7,l),
(176,6,l),
(179,313,ls),
(180,411,o),
(140,461,o),
(71,457,cs),
(49,455,o),
(9,395,o),
(10,365,c),
(15,358,l),
(114,380,o),
(152,352,o),
(144,256,cs),
(124,15,l)
);
}
);
};
layerId = m01;
shapes = (
{
closed = 1;
nodes = (
(442,-227,l),
(442,227,ls),
(442,365,o),
(396,461,o),
(327,460,c),
(265,422,o),
(223,362,o),
(186,271,c),
(169,273,l),
(87,11,l),
(110,2,o),
(134,-5,o),
(160,-7,c),
(161,23,l),
(200,204,o),
(291,367,o),
(352,367,cs),
(380,367,o),
(393,334,o),
(393,261,cs),
(393,193,o),
(375,42,o),
(346,-209,c),
(375,-224,o),
(399,-231,o),
(433,-237,c)
);
},
{
closed = 1;
nodes = (
(178,5,l),
(180,315,ls),
(181,412,o),
(142,459,o),
(74,459,c),
(40,439,o),
(18,408,o),
(7,365,c),
(15,354,l),
(114,376,o),
(153,350,o),
(145,256,cs),
(125,16,l),
(160,-7,l)
);
}
);
width = 515;
}
);
locked = 1;
unicode = 951;
}
{
color = 2;
glyphname = iota;
kernLeft = iota;
kernRight = iota;
layers = (
{
anchors = (
{
name = top;
pos = (130,452);
}
);
background = {
shapes = (
{
closed = 1;
nodes = (
(251,90,l),
(161,69,o),
(125,87,o),
(132,151,cs),
(165,439,l),
(140,452,o),
(116,457,o),
(85,457,c),
(75,452,l),
(81,135,ls),
(81,40,o),
(119,-10,o),
(190,-10,cs),
(212,-10,o),
(257,53,o),
(256,83,c)
);
}
);
};
layerId = m01;
shapes = (
{
closed = 1;
nodes = (
(225,11,o),
(247,41,o),
(257,82,c),
(252,94,l),
(162,73,o),
(128,91,o),
(135,153,cs),
(168,438,l),
(141,451,o),
(116,457,o),
(84,458,c),
(75,452,l),
(79,135,ls),
(80,40,o),
(118,-10,o),
(191,-10,c)
);
}
);
width = 268;
}
);
locked = 1;
unicode = 953;
}
{
color = 2;
glyphname = kappa;
kernLeft = n;
kernRight = k;
layers = (
{
background = {
shapes = (
{
closed = 1;
nodes = (
(287,235,ls),
(348,320,o),
(383,351,o),
(464,397,c),
(466,409,l),
(455,428,o),
(440,446,o),
(422,464,c),
(362,437,o),
(329,404,o),
(240,283,cs),
(67,45,l),
(109,-5,l),
(117,-7,l)
);
},
{
closed = 1;
nodes = (
(157,3,l),
(195,208,l),
(180,214,l),
(198,365,o),
(162,452,o),
(80,457,c),
(44,441,o),
(21,411,o),
(9,367,c),
(14,358,l),
(104,378,o),
(146,350,o),
(146,268,cs),
(146,221,o),
(132,144,o),
(102,19,c),
(117,-7,l)
);
},
{
closed = 1;
nodes = (
(459,14,o),
(490,54,o),
(503,108,c),
(494,119,l),
(355,44,o),
(308,106,o),
(315,291,c),
(263,212,l),
(276,205,l),
(283,61,o),
(319,-3,o),
(412,-11,c)
);
}
);
};
layerId = m01;
shapes = (
{
closed = 1;
nodes = (
(287,236,ls),
(339,310,o),
(376,347,o),
(461,398,c),
(463,410,l),
(452,431,o),
(439,447,o),
(422,464,c),
(363,437,o),
(326,400,o),
(241,283,cs),
(67,44,l),
(108,-5,l),
(117,-7,l)
);
},
{
closed = 1;
nodes = (
(156,3,l),
(194,205,l),
(180,211,l),
(198,362,o),
(162,451,o),
(80,457,c),
(44,441,o),
(21,412,o),
(9,368,c),
(14,361,l),
(104,381,o),
(146,351,o),
(146,268,cs),
(146,222,o),
(132,144,o),
(102,18,c),
(116,-7,l)
);
},
{
closed = 1;
nodes = (
(458,13,o),
(490,54,o),
(502,107,c),
(494,118,l),
(361,43,o),
(305,97,o),
(314,291,c),
(263,213,l),
(276,206,l),
(282,46,o),
(312,-3,o),
(411,-11,c)
);
}
);
width = 521;
}
);
locked = 1;
unicode = 954;
}
{
color = 2;
glyphname = lambda;
kernLeft = lambda;
kernRight = lambda;
layers = (
{
background = {
shapes = (
{
closed = 1;
nodes = (
(432,14,o),
(454,48,o),
(459,93,c),
(451,103,l),
(366,72,o),
(352,79,o),
(329,161,cs),
(227,522,ls),
(187,665,o),
(131,738,o),
(62,738,c),
(19,719,o),
(-3,682,o),
(-2,630,c),
(6,621,l),
(120,664,o),
(137,653,o),
(179,506,cs),
(295,99,ls),
(318,16,o),
(340,-7,o),
(397,-7,c)
);
},
{
closed = 1;
nodes = (
(84,-6,l),
(124,92,o),
(168,207,o),
(219,349,c),
(254,349,l),
(204,466,l),
(152,342,o),
(89,203,o),
(4,20,c),
(9,12,l),
(76,-10,l)
);
}
);
};
layerId = m01;
shapes = (
{
closed = 1;
nodes = (
(432,14,o),
(454,48,o),
(459,93,c),
(451,103,l),
(366,72,o),
(352,79,o),
(329,161,cs),
(215,566,ls),
(183,678,o),
(130,738,o),
(62,738,c),
(19,719,o),
(-3,682,o),
(-2,630,c),
(6,621,l),
(118,663,o),
(136,655,o),
(167,550,cs),
(295,99,ls),
(318,16,o),
(340,-7,o),
(397,-7,c)
);
},
{
closed = 1;
nodes = (
(84,-6,l),
(124,92,o),
(168,207,o),
(219,349,c),
(254,349,l),
(204,466,l),
(152,342,o),
(89,203,o),
(4,20,c),
(9,12,l),
(76,-10,l)
);
}
);
width = 460;
}
);
locked = 1;
unicode = 955;
}
{
color = 2;
glyphname = omicron;
kernLeft = o;
kernRight = o;
layers = (
{
anchors = (
{
name = top;
pos = (254,452);
}
);
background = {
shapes = (
{
closed = 1;
nodes = (
(358,-12,o),
(450,95,o),
(450,236,cs),
(450,369,o),
(368,464,o),
(254,464,cs),
(133,464,o),
(41,357,o),
(41,216,cs),
(41,83,o),
(123,-12,o),
(237,-12,cs)
);
},
{
closed = 1;
nodes = (
(139,55,o),
(103,104,o),
(105,183,cs),
(109,299,o),
(196,404,o),
(286,401,cs),
(348,398,o),
(385,346,o),
(382,266,cs),
(378,150,o),
(294,49,o),
(201,52,cs)
);
}
);
};
layerId = m01;
shapes = (
{
closed = 1;
nodes = (
(359,-12,o),
(451,95,o),
(451,236,cs),
(451,369,o),
(369,464,o),
(255,464,cs),
(133,464,o),
(41,357,o),
(41,216,cs),
(41,83,o),
(123,-12,o),
(238,-12,cs)
);
},
{
closed = 1;
nodes = (
(144,53,o),
(106,101,o),
(106,177,cs),
(106,292,o),
(193,399,o),
(283,399,cs),
(344,399,o),
(382,351,o),
(382,276,cs),
(382,160,o),
(298,53,o),
(205,53,cs)
);
}
);
width = 492;
}
);
locked = 1;
unicode = 959;
}
{
color = 2;
glyphname = rho;
kernLeft = rho;
kernRight = o;
layers = (
{
anchors = (
{
name = top;
pos = (252,452);
}
);
background = {
shapes = (
{
closed = 1;
nodes = (
(95,-235,o),
(119,-232,o),
(143,-226,c),
(121,86,l),
(121,294,o),
(177,404,o),
(283,404,cs),
(350,404,o),
(389,350,o),
(389,259,cs),
(389,71,o),
(225,-5,o),
(101,126,c),
(101,26,l),
(133,45,l),
(165,20,o),
(200,1,o),
(239,-12,c),
(372,-12,o),
(456,77,o),
(456,220,cs),
(456,361,o),
(374,464,o),
(260,464,cs),
(144,464,o),
(72,374,o),
(69,226,cs),
(56,-226,l),
(67,-237,l)
);
}
);
};
layerId = m01;
shapes = (
{
closed = 1;
nodes = (
(95,-233,o),
(121,-229,o),
(146,-222,c),
(123,87,l),
(124,288,o),
(179,397,o),
(285,397,cs),
(350,397,o),
(389,346,o),
(389,257,cs),
(389,76,o),
(225,1,o),
(102,127,c),
(102,26,l),
(135,47,l),
(166,21,o),
(202,3,o),
(241,-12,c),
(374,-12,o),
(458,76,o),
(458,216,cs),
(458,357,o),
(374,462,o),
(258,462,cs),
(144,462,o),
(72,374,o),
(68,227,cs),
(56,-224,l),
(67,-235,l)
);
}
);
width = 500;
}
);
locked = 1;
unicode = 961;
}
{
color = 2;
glyphname = sigmafinal;
kernLeft = o;
kernRight = sigmafinal;
layers = (
{
background = {
shapes = (
{
closed = 1;
nodes = (
(270,-143,o),
(312,-94,o),
(312,-20,cs),
(312,50,o),
(274,91,o),
(213,99,cs),
(104,113,o),
(82,130,o),
(82,199,cs),
(82,326,o),
(177,394,o),
(311,363,c),
(319,374,l),
(312,400,o),
(303,426,o),
(294,450,c),
(152,487,o),
(43,387,o),
(43,220,cs),
(43,95,o),
(94,28,o),
(200,16,cs),
(260,9,o),
(272,3,o),
(272,-20,cs),
(272,-45,o),
(236,-66,o),
(132,-101,c),
(128,-114,l),
(173,-183,l)
);
}
);
};
layerId = m01;
shapes = (
{
closed = 1;
nodes = (
(276,-140,o),
(320,-91,o),
(320,-14,cs),
(320,56,o),
(281,98,o),
(218,106,cs),
(107,120,o),
(85,136,o),
(85,201,cs),
(85,323,o),
(183,388,o),
(321,358,c),
(329,368,l),
(324,396,o),
(315,424,o),
(302,450,c),
(155,488,o),
(43,388,o),
(43,218,cs),
(43,95,o),
(96,30,o),
(206,18,cs),
(264,12,o),
(277,6,o),
(277,-17,cs),
(277,-42,o),
(238,-61,o),
(132,-95,c),
(129,-108,l),
(174,-182,l)
);
}
);
width = 362;
}
);
locked = 1;
production = uni03C2;
unicode = 962;
}
{
color = 2;
glyphname = upsilon;
kernLeft = upsilon;
kernRight = upsilon;
layers = (
{
anchors = (
{
name = top;
pos = (229,452);
}
);
background = {
shapes = (
{
closed = 1;
nodes = (
(340,-13,o),
(414,103,o),
(414,261,cs),
(414,303,o),
(408,348,o),
(397,395,c),
(378,420,o),
(346,446,o),
(307,464,c),
(294,454,l),
(320,409,o),
(342,363,o),
(360,316,c),
(365,162,o),
(317,76,o),
(230,76,cs),
(174,76,o),
(139,123,o),
(148,180,cs),
(168,305,ls),
(182,395,o),
(146,456,o),
(77,456,c),
(43,435,o),
(23,404,o),
(11,363,c),
(16,356,l),
(100,376,o),
(139,355,o),
(130,293,cs),
(103,115,ls),
(92,42,o),
(142,-13,o),
(223,-13,cs)
);
}
);
};
layerId = m01;
shapes = (
{
closed = 1;
nodes = (
(362,-13,o),
(440,171,o),
(389,395,c),
(370,421,o),
(338,447,o),
(298,464,c),
(285,454,l),
(310,410,o),
(332,363,o),
(350,317,c),
(352,166,o),
(308,82,o),
(225,82,cs),
(171,82,o),
(140,128,o),
(149,184,cs),
(168,307,ls),
(182,397,o),
(145,457,o),
(78,457,c),
(43,436,o),
(23,404,o),
(11,362,c),
(16,354,l),
(99,374,o),
(135,353,o),
(126,291,cs),
(101,114,ls),
(91,42,o),
(139,-13,o),
(218,-13,cs)
);
}
);
width = 457;
}
);
locked = 1;
unicode = 965;
}
{
color = 2;
glyphname = chi;
kernLeft = chi;
kernRight = chi;
layers = (
{
background = {
shapes = (
{
closed = 1;
nodes = (
(363,-208,o),
(355,-103,o),
(290,132,cs),
(258,249,ls),
(218,394,o),
(165,457,o),
(82,457,c),
(49,435,o),
(31,395,o),
(30,342,c),
(36,335,l),
(163,381,o),
(177,372,o),
(215,227,cs),
(246,108,ls),
(325,-192,o),
(354,-240,o),
(456,-240,c),
(499,-211,o),
(526,-167,o),
(534,-115,c),
(523,-104,l)
);
},
{
closed = 1;
nodes = (
(183,-38,o),
(299,149,o),
(433,328,c),
(487,394,l),
(488,409,l),
(473,432,o),
(452,450,o),
(426,461,c),
(280,247,o),
(147,35,o),
(24,-181,c),
(32,-204,o),
(50,-219,o),
(72,-239,c),
(80,-241,l)
);
}
);
};
layerId = m01;
shapes = (
{
closed = 1;
nodes = (
(363,-208,o),
(355,-103,o),
(290,132,cs),
(258,249,ls),
(218,394,o),
(165,457,o),
(82,457,c),
(49,435,o),
(31,395,o),
(30,342,c),
(36,335,l),
(163,381,o),
(177,372,o),
(215,227,cs),
(246,108,ls),
(325,-192,o),
(354,-240,o),
(456,-240,c),
(499,-211,o),
(526,-167,o),
(534,-115,c),
(523,-104,l)
);
},
{
closed = 1;
nodes = (
(191,-29,o),
(308,160,o),
(433,328,c),
(487,394,l),
(488,409,l),
(473,432,o),
(452,450,o),
(426,461,c),
(286,258,o),
(151,44,o),
(24,-181,c),
(32,-204,o),
(50,-219,o),
(72,-239,c),
(80,-241,l)
);
}
);
width = 506;
}
);
locked = 1;
unicode = 967;
}
{
color = 2;
glyphname = KaiSymbol;
kernLeft = KaiSymbol;
kernRight = KaiSymbol;
layers = (
{
anchors = (
{
name = bottom;
pos = (372,0);
},
{
name = top;
pos = (373,647);
}
);
background = {
shapes = (
{
closed = 1;
nodes = (
(448,-257,o),
(510,-224,o),
(580,-58,cs),
(616,28,l),
(559,8,l),
(539,-40,ls),
(496,-143,o),
(409,-166,o),
(316,-108,c),
(308,-112,l),
(300,-158,o),
(311,-196,o),
(342,-228,c)
);
},
{
closed = 1;
nodes = (
(242,315,l),
(417,72,ls),
(457,17,o),
(497,-14,o),
(529,-14,cs),
(537,-14,o),
(568,-10,o),
(593,-5,c),
(616,28,l),
(612,37,l),
(566,37,o),
(535,58,o),
(486,121,cs),
(318,340,l),
(479,509,ls),
(540,572,o),
(559,586,o),
(594,593,c),
(601,634,l),
(597,641,l),
(564,639,o),
(526,637,o),
(505,637,cs),
(483,637,o),
(436,640,o),
(395,644,c),
(388,601,l),
(390,597,l),
(432,594,o),
(453,584,o),
(453,567,cs),
(453,553,o),
(443,536,o),
(422,515,cs),
(243,329,l)
);
},
{
closed = 1;
nodes = (
(142,120,ls),
(142,63,o),
(129,50,o),
(67,44,c),
(57,-1,l),
(85,-1,o),
(136,0,o),
(172,0,cs),
(204,0,o),
(261,-2,o),
(295,-3,c),
(304,43,l),
(302,47,l),
(291,46,o),
(272,44,o),
(257,44,cs),
(221,44,o),
(211,59,o),
(213,112,cs),
(225,541,ls),
(226,579,o),
(241,593,o),
(291,601,c),
(295,646,l),
(257,641,o),
(211,637,o),
(188,637,cs),
(160,637,o),
(108,639,o),
(77,640,c),
(70,596,l),
(72,592,l),
(84,593,o),
(99,594,o),
(106,594,cs),
(136,594,o),
(143,583,o),
(143,540,cs)
);
}
);
};
layerId = m01;
shapes = (
{
closed = 1;
nodes = (
(242,315,l),
(417,72,ls),
(457,17,o),
(497,-14,o),
(529,-14,cs),
(537,-14,o),
(567,-10,o),
(593,-5,c),
(616,28,l),
(612,37,l),
(566,37,o),
(535,58,o),
(486,121,cs),
(318,340,l),
(479,509,ls),
(540,572,o),
(559,586,o),
(594,593,c),
(601,634,l),
(597,641,l),
(561,639,o),
(526,637,o),
(505,637,cs),
(483,637,o),
(436,640,o),
(395,644,c),
(388,601,l),
(390,597,l),
(432,594,o),
(453,584,o),
(453,567,cs),
(453,553,o),
(443,536,o),
(422,515,cs),
(243,329,l)
);
},
{
closed = 1;
nodes = (
(142,120,ls),
(142,63,o),
(129,50,o),
(67,44,c),
(57,-1,l),
(85,-1,o),
(136,0,o),
(172,0,cs),
(204,0,o),
(261,-2,o),
(295,-3,c),
(304,43,l),
(302,47,l),
(291,46,o),
(272,44,o),
(257,44,cs),
(221,44,o),
(211,59,o),
(213,112,cs),
(225,541,ls),
(226,579,o),
(241,593,o),
(291,601,c),
(295,646,l),
(255,641,o),
(209,637,o),
(188,637,cs),
(160,637,o),
(108,639,o),
(77,640,c),
(70,596,l),
(72,592,l),
(93,593,o),
(101,594,o),
(106,594,cs),
(136,594,o),
(143,583,o),
(143,540,cs)
);
},
{
closed = 1;
nodes = (
(469,-260,o),
(529,-203,o),
(616,28,c),
(559,12,l),
(502,-144,o),
(431,-180,o),
(318,-110,c),
(310,-114,l),
(302,-158,o),
(314,-195,o),
(346,-228,c)
);
}
);
width = 641;
}
);
locked = 1;
metricLeft = "=K";
production = uni03CF;
unicode = 975;
}
{
color = 2;
glyphname = piSymbol;
kernLeft = pi;
kernRight = pi;
layers = (
{
layerId = m01;
shapes = (
{
closed = 1;
nodes = (
(30,302,l),
(73,364,o),
(96,375,o),
(183,375,cs),
(509,375,l),
(518,382,l),
(530,408,o),
(541,430,o),
(549,456,c),
(541,464,l),
(507,456,o),
(477,452,o),
(446,452,cs),
(184,452,ls),
(79,452,o),
(22,411,o),
(4,322,c),
(5,315,l),
(23,302,l)
);
},
{
closed = 1;
nodes = (
(246,409,l),
(200,420,l),
(190,279,o),
(159,148,o),
(105,22,c),
(110,8,l),
(131,0,o),
(155,-5,o),
(190,-13,c)
);
},
{
closed = 1;
nodes = (
(479,-9,o),
(528,49,o),
(531,82,c),
(525,89,l),
(418,79,o),
(376,112,o),
(389,197,cs),
(421,407,l),
(354,407,l),
(341,139,ls),
(337,45,o),
(379,-10,o),
(454,-9,cs)
);
}
);
width = 570;
}
);
locked = 1;
production = uni03D6;
unicode = 982;
}
{
color = 2;
glyphname = "Dje-cy";
kernLeft = T;
kernRight = "Dje-cy";
layers = (
{
background = {
shapes = (
{
closed = 1;
nodes = (
(146,-2,o),
(205,0,o),
(232,0,cs),
(258,0,o),
(294,-1,o),
(355,-2,c),
(364,43,l),
(361,47,l),
(285,37,o),
(273,46,o),
(273,112,cs),
(273,275,o),
(281,518,o),
(289,598,c),
(434,591,o),
(438,588,o),
(458,468,c),
(505,472,l),
(498,523,o),
(492,592,o),
(490,641,c),
(481,649,l),
(396,638,l),
(86,638,l),
(3,649,l),
(-6,641,l),
(-8,594,o),
(-14,525,o),
(-21,468,c),
(26,472,l),
(43,590,o),
(47,593,o),
(203,598,c),
(203,162,ls),
(203,56,o),
(196,47,o),
(103,39,c),
(95,-4,l)
);
},
{
closed = 1;
nodes = (
(503,-82,o),
(589,41,o),
(589,197,cs),
(589,316,o),
(512,382,o),
(389,382,cs),
(347,382,o),
(300,374,o),
(248,359,c),
(248,308,l),
(360,333,l),
(454,333,o),
(504,279,o),
(504,178,cs),
(504,46,o),
(449,-54,o),
(313,-130,c),
(324,-160,l),
(331,-165,l)
);
}
);
};
layerId = m01;
shapes = (
{
closed = 1;
nodes = (
(166,-2,o),
(205,0,o),
(232,0,cs),
(258,0,o),
(294,-1,o),
(355,-2,c),
(364,43,l),
(361,47,l),
(285,37,o),
(273,46,o),
(273,112,cs),
(273,275,o),
(281,518,o),
(289,598,c),
(464,591,o),
(468,588,o),
(488,468,c),
(535,472,l),
(528,521,o),
(522,590,o),
(520,641,c),
(511,649,l),
(426,638,l),
(116,638,l),
(33,649,l),
(24,641,l),
(22,594,o),
(16,525,o),
(9,468,c),
(56,472,l),
(73,590,o),
(77,593,o),
(203,598,c),
(203,162,ls),
(203,53,o),
(198,45,o),
(123,39,c),
(115,-4,l)
);
},
{
closed = 1;
nodes = (
(501,-83,o),
(589,40,o),
(589,197,cs),
(589,313,o),
(515,382,o),
(389,382,cs),
(349,382,o),
(302,374,o),
(248,359,c),
(248,308,l),
(360,333,l),
(454,333,o),
(504,279,o),
(504,178,cs),
(504,40,o),
(444,-57,o),
(313,-130,c),
(324,-160,l),
(331,-165,l)
);
}
);
width = 639;
}
);
locked = 1;
metricLeft = "=T";
production = uni0402;
unicode = 1026;
}
{
color = 2;
glyphname = "Lje-cy";
kernLeft = "El-cy";
kernRight = "Softsign-cy";
layers = (
{
background = {
shapes = (
{
closed = 1;
nodes = (
(184,32,o),
(231,104,o),
(253,340,cs),
(278,606,l),
(226,586,l),
(384,585,ls),
(418,585,o),
(431,571,o),
(431,534,cs),
(430,117,ls),
(430,65,o),
(411,47,o),
(352,43,c),
(346,0,l),
(460,0,ls),
(494,0,o),
(555,-2,o),
(591,-3,c),
(600,43,l),
(598,47,l),
(586,46,o),
(563,44,o),
(545,44,cs),
(510,44,o),
(501,58,o),
(501,112,cs),
(501,204,o),
(507,406,o),
(515,544,cs),
(517,580,o),
(531,591,o),
(587,598,c),
(591,643,l),
(563,639,o),
(517,637,o),
(476,637,cs),
(114,637,l),
(107,593,l),
(109,589,l),
(193,591,o),
(219,578,o),
(215,537,cs),
(197,367,ls),
(175,159,o),
(141,103,o),
(19,86,c),
(11,77,l),
(16,49,o),
(38,4,o),
(55,-13,c)
);
}
);
};
layerId = m01;
shapes = (
{
closed = 1;
nodes = (
(507,354,l),
(514,548,ls),
(515,582,o),
(534,594,o),
(589,601,c),
(593,646,l),
(547,640,o),
(497,637,o),
(447,637,cs),
(116,637,l),
(109,593,l),
(111,589,l),
(195,591,o),
(221,578,o),
(217,537,cs),
(199,367,ls),
(177,159,o),
(143,103,o),
(21,86,c),
(13,77,l),
(18,49,o),
(40,4,o),
(57,-13,c),
(186,32,o),
(233,104,o),
(255,340,cs),
(281,619,l),
(245,586,l),
(384,585,ls),
(418,585,o),
(431,571,o),
(431,540,cs),
(430,120,ls),
(430,66,o),
(412,46,o),
(350,34,c),
(344,-12,l),
(410,-3,o),
(443,0,o),
(458,0,cs),
(509,0,o),
(549,-10,o),
(593,-10,cs),
(723,-10,o),
(824,73,o),
(824,181,cs),
(824,286,o),
(740,354,o),
(607,354,cs)
);
},
{
closed = 1;
nodes = (
(530,41,o),
(499,60,o),
(500,111,cs),
(505,298,l),
(609,305,l),
(694,291,o),
(738,249,o),
(738,165,cs),
(738,87,o),
(690,41,o),
(611,41,cs)
);
}
);
width = 852;
}
);
locked = 1;
metricLeft = "=El-cy";
metricRight = "=Softsign-cy";
production = uni0409;
unicode = 1033;
}
{
color = 2;
glyphname = "Nje-cy";
kernLeft = H;
kernRight = "Softsign-cy";
layers = (
{
background = {
shapes = (
{
closed = 1;
nodes = (
(1135,-10,o),
(1236,73,o),
(1236,181,cs),
(1236,286,o),
(1152,354,o),
(1019,354,cs),
(919,354,l),
(925,548,ls),
(926,582,o),
(946,594,o),
(1001,601,c),
(1005,646,l),
(931,636,o),
(849,634,o),
(769,640,c),
(762,596,l),
(764,592,l),
(783,593,o),
(798,594,o),
(806,594,cs),
(835,594,o),
(843,583,o),
(843,540,cs),
(842,120,ls),
(842,66,o),
(824,46,o),
(762,34,c),
(756,-12,l),
(822,-3,o),
(855,0,o),
(870,0,cs),
(921,0,o),
(961,-10,o),
(1005,-10,c)
);
},
{
closed = 1;
nodes = (
(942,41,o),
(911,60,o),
(912,111,cs),
(917,298,l),
(1021,305,l),
(1106,291,o),
(1150,249,o),
(1150,165,cs),
(1150,87,o),
(1102,41,o),
(1023,41,cs)
);
},
{
closed = 1;
nodes = (
(60,-7,o),
(152,0,o),
(210,0,cs),
(245,0,o),
(295,-2,o),
(295,-3,c),
(304,43,l),
(302,47,l),
(302,47,o),
(277,44,o),
(257,44,cs),
(222,44,o),
(212,58,o),
(213,112,cs),
(217,291,l),
(217,291,o),
(351,302,o),
(383,302,cs),
(429,302,o),
(535,301,o),
(535,301,c),
(535,150,ls),
(535,62,o),
(522,44,o),
(459,43,c),
(450,-2,l),
(450,-2,o),
(530,0,o),
(565,0,cs),
(609,0,o),
(688,-3,o),
(688,-3,c),
(697,43,l),
(695,47,l),
(695,47,o),
(670,44,o),
(650,44,cs),
(615,44,o),
(606,58,o),
(606,112,cs),
(606,195,o),
(612,398,o),
(620,544,cs),
(622,582,o),
(634,594,o),
(684,601,c),
(688,646,l),
(688,646,o),
(616,637,o),
(568,637,cs),
(536,637,o),
(470,639,o),
(470,640,c),
(463,596,l),
(465,592,l),
(465,592,o),
(487,594,o),
(499,594,cs),
(529,594,o),
(536,583,o),
(536,540,cs),
(535,358,l),
(476,351,o),
(437,348,o),
(387,348,c),
(219,349,l),
(225,511,ls),
(228,581,o),
(233,592,o),
(291,601,c),
(295,646,l),
(295,646,o),
(231,637,o),
(188,637,cs),
(150,637,o),
(77,640,o),
(77,640,c),
(70,596,l),
(72,592,l),
(72,592,o),
(94,594,o),
(106,594,cs),
(136,594,o),
(143,583,o),
(143,540,cs),
(142,120,ls),
(142,64,o),
(126,46,o),
(64,34,c),
(58,-12,l)
);
}
);
};
layerId = m01;
shapes = (
{
closed = 1;
nodes = (
(828,-10,o),
(929,73,o),
(929,181,cs),
(929,287,o),
(844,354,o),
(712,354,cs),
(612,354,l),
(618,548,ls),
(619,581,o),
(637,594,o),
(694,601,c),
(698,646,l),
(624,636,o),
(542,634,o),
(462,640,c),
(455,596,l),
(457,592,l),
(476,593,o),
(491,594,o),
(499,594,cs),
(528,594,o),
(536,583,o),
(536,540,cs),
(535,120,ls),
(535,66,o),
(517,46,o),
(455,34,c),
(449,-12,l),
(505,-4,o),
(546,0,o),
(563,0,cs),
(614,0,o),
(654,-10,o),
(698,-10,c)
);
},
{
closed = 1;
nodes = (
(635,41,o),
(604,60,o),
(605,111,cs),
(610,298,l),
(714,305,l),
(802,290,o),
(843,246,o),
(843,165,cs),
(843,87,o),
(795,41,o),
(716,41,cs)
);
},
{
closed = 1;
nodes = (
(60,-7,o),
(149,0,o),
(210,0,cs),
(240,0,o),
(295,-2,o),
(295,-3,c),
(304,43,l),
(302,47,l),
(291,46,o),
(272,44,o),
(257,44,cs),
(222,44,o),
(212,59,o),
(213,112,cs),
(217,291,l),
(284,297,o),
(363,302,o),
(383,302,cs),
(417,302,o),
(515,301,o),
(571,300,c),
(571,354,l),
(493,350,o),
(431,348,o),
(387,348,c),
(219,349,l),
(225,511,ls),
(228,583,o),
(235,592,o),
(291,601,c),
(295,646,l),
(259,641,o),
(213,637,o),
(188,637,cs),
(160,637,o),
(108,639,o),
(77,640,c),
(70,596,l),
(72,592,l),
(82,593,o),
(98,594,o),
(106,594,cs),
(136,594,o),
(143,583,o),
(143,540,cs),
(142,120,ls),
(142,64,o),
(126,46,o),
(64,34,c),
(58,-12,l)
);
}
);
width = 957;
}
);
locked = 1;
metricLeft = "=H";
metricRight = "=Softsign-cy";
production = uni040A;
unicode = 1034;
}
{
color = 2;
glyphname = "Tshe-cy";
kernLeft = T;
kernRight = "Tshe-cy";
layers = (
{
background = {
shapes = (
{
closed = 1;
nodes = (
(146,-2,o),
(205,0,o),
(232,0,cs),
(258,0,o),
(294,-1,o),
(355,-2,c),
(364,43,l),
(361,47,l),
(285,37,o),
(273,46,o),
(273,112,cs),
(273,275,o),
(281,518,o),
(289,598,c),
(434,591,o),
(438,588,o),
(458,468,c),
(505,472,l),
(498,523,o),
(492,592,o),
(490,641,c),
(481,649,l),
(396,638,l),
(86,638,l),
(3,649,l),
(-6,641,l),
(-8,594,o),
(-14,525,o),
(-21,468,c),
(26,472,l),
(43,590,o),
(47,593,o),
(203,598,c),
(203,162,ls),
(203,56,o),
(196,47,o),
(103,39,c),
(95,-4,l)
);
},
{
closed = 1;
nodes = (
(644,42,l),
(643,46,l),
(588,42,o),
(584,45,o),
(584,98,cs),
(584,207,ls),
(584,358,o),
(448,419,o),
(247,359,c),
(247,308,l),
(359,333,l),
(455,333,o),
(505,280,o),
(503,182,cs),
(502,127,ls),
(501,56,o),
(493,49,o),
(436,42,c),
(432,-3,l),
(477,0,o),
(520,1,o),
(539,1,c),
(639,-2,l)
);
}
);
};
layerId = m01;
shapes = (
{
closed = 1;
nodes = (
(166,-2,o),
(205,0,o),
(232,0,cs),
(258,0,o),
(294,-1,o),
(355,-2,c),
(364,43,l),
(361,47,l),
(285,37,o),
(273,46,o),
(273,112,cs),
(273,275,o),
(281,518,o),
(289,598,c),
(464,591,o),
(468,588,o),
(488,468,c),
(535,472,l),
(528,521,o),
(522,590,o),
(520,641,c),
(511,649,l),
(426,638,l),
(116,638,l),
(33,649,l),
(24,641,l),
(22,594,o),
(16,525,o),
(9,468,c),
(56,472,l),
(73,590,o),
(77,593,o),
(203,598,c),
(203,142,ls),
(203,53,o),
(198,45,o),
(123,39,c),
(115,-4,l)
);
},
{
closed = 1;
nodes = (
(644,42,l),
(643,46,l),
(588,42,o),
(584,45,o),
(584,98,cs),
(584,207,ls),
(584,358,o),
(448,419,o),
(247,359,c),
(247,308,l),
(359,333,l),
(455,333,o),
(505,280,o),
(503,182,cs),
(502,127,ls),
(501,56,o),
(493,49,o),
(436,42,c),
(432,-3,l),
(477,0,o),
(520,1,o),
(539,1,c),
(639,-2,l)
);
}
);
width = 668;
}
);
locked = 1;
metricLeft = "=T";
production = uni040B;
unicode = 1035;
}
{
color = 2;
glyphname = "Dzhe-cy";
kernLeft = H;
kernRight = H;
layers = (
{
background = {
shapes = (
{
closed = 1;
nodes = (
(276,-414,o),
(321,-410,o),
(346,-410,cs),
(705,-410,ls),
(735,-410,o),
(790,-412,o),
(824,-413,c),
(831,-369,l),
(829,-365,l),
(810,-366,o),
(795,-367,o),
(787,-367,cs),
(757,-367,o),
(750,-355,o),
(750,-304,cs),
(750,-205,o),
(757,0,o),
(764,134,cs),
(766,173,o),
(779,184,o),
(828,191,c),
(832,236,l),
(762,227,o),
(690,225,o),
(614,230,c),
(607,186,l),
(609,182,l),
(671,188,o),
(680,182,o),
(680,130,cs),
(679,-263,ls),
(679,-343,o),
(662,-361,o),
(586,-361,c),
(430,-361,l),
(395,-361,o),
(382,-345,o),
(382,-301,cs),
(382,-213,o),
(389,-27,o),
(394,101,cs),
(397,173,o),
(404,182,o),
(470,191,c),
(474,236,l),
(391,227,o),
(320,225,o),
(246,230,c),
(239,186,l),
(241,182,l),
(259,183,o),
(270,184,o),
(275,184,cs),
(305,184,o),
(312,173,o),
(312,130,cs),
(310,-290,ls),
(310,-352,o),
(299,-363,o),
(235,-374,c),
(231,-419,l)
);
}
);
};
layerId = m01;
shapes = (
{
closed = 1;
nodes = (
(97,-4,o),
(142,0,o),
(167,0,cs),
(526,0,ls),
(556,0,o),
(611,-2,o),
(645,-3,c),
(652,41,l),
(650,45,l),
(631,44,o),
(616,43,o),
(608,43,cs),
(578,43,o),
(571,55,o),
(571,106,cs),
(571,205,o),
(578,410,o),
(585,544,cs),
(587,583,o),
(600,594,o),
(649,601,c),
(653,646,l),
(583,637,o),
(511,635,o),
(435,640,c),
(428,596,l),
(430,592,l),
(492,598,o),
(501,592,o),
(501,540,cs),
(500,147,ls),
(500,67,o),
(483,49,o),
(407,49,c),
(251,49,l),
(216,49,o),
(203,65,o),
(203,109,cs),
(203,197,o),
(209,383,o),
(215,511,cs),
(218,583,o),
(225,592,o),
(291,601,c),
(295,646,l),
(212,637,o),
(141,635,o),
(67,640,c),
(60,596,l),
(62,592,l),
(80,593,o),
(91,594,o),
(96,594,cs),
(126,594,o),
(133,583,o),
(133,540,cs),
(131,120,ls),
(130,58,o),
(120,47,o),
(56,36,c),
(52,-9,l)
);
},
{
closed = 1;
nodes = (
(371,-181,l),
(381,-46,ls),
(384,-10,o),
(395,0,o),
(429,0,c),
(248,0,l),
(303,0,o),
(313,-10,o),
(317,-62,cs),
(326,-185,l)
);
}
);
width = 708;
}
);
locked = 1;
production = uni040F;
unicode = 1039;
}
{
color = 2;
glyphname = "De-cy";
kernLeft = "El-cy";
kernRight = "De-cy";
layers = (
{
background = {
shapes = (
{
closed = 1;
nodes = (
(-464,-75,ls),
(-459,-12,o),
(-425,0,o),
(-362,0,cs),
(-100,0,ls),
(-37,0,o),
(-3,-12,o),
(2,-75,cs),
(10,-179,l),
(61,-175,l),
(60,41,l),
(52,51,l),
(-8,53,ls),
(-31,54,o),
(-38,66,o),
(-38,106,cs),
(-38,198,o),
(-32,406,o),
(-24,544,cs),
(-22,580,o),
(-8,591,o),
(48,598,c),
(52,643,l),
(24,639,o),
(-22,637,o),
(-63,637,cs),
(-413,637,l),
(-420,593,l),
(-418,589,l),
(-332,591,o),
(-312,586,o),
(-317,545,cs),
(-333,411,ls),
(-359,197,o),
(-365,95,o),
(-514,51,c),
(-522,41,l),
(-523,-175,l),
(-472,-179,l)
);
},
{
closed = 1;
nodes = (
(-406,55,l),
(-310,107,o),
(-293,240,o),
(-275,395,cs),
(-249,619,l),
(-286,586,l),
(-155,585,ls),
(-121,585,o),
(-108,571,o),
(-108,534,cs),
(-109,147,ls),
(-109,64,o),
(-128,49,o),
(-201,49,cs),
(-486,49,l),
(-404,39,l)
);
}
);
};
layerId = m01;
shapes = (
{
closed = 1;
nodes = (
(69,-75,ls),
(76,-12,o),
(108,0,o),
(171,0,cs),
(433,0,ls),
(496,0,o),
(529,-12,o),
(535,-75,cs),
(543,-155,l),
(594,-151,l),
(593,41,l),
(585,51,l),
(525,53,ls),
(502,54,o),
(495,66,o),
(495,106,cs),
(495,198,o),
(501,406,o),
(509,544,cs),
(511,580,o),
(525,591,o),
(581,598,c),
(585,643,l),
(557,639,o),
(511,637,o),
(470,637,cs),
(120,637,l),
(113,593,l),
(115,589,l),
(201,591,o),
(221,586,o),
(216,545,cs),
(200,411,ls),
(174,197,o),
(168,95,o),
(19,51,c),
(11,41,l),
(10,-155,l),
(61,-151,l)
);
},
{
closed = 1;
nodes = (
(127,55,l),
(223,107,o),
(240,240,o),
(258,395,cs),
(284,619,l),
(247,586,l),
(378,585,ls),
(412,585,o),
(425,571,o),
(425,534,cs),
(424,147,ls),
(424,64,o),
(405,49,o),
(332,49,cs),
(47,49,l),
(129,39,l)
);
}
);
width = 639;
}
);
locked = 1;
production = uni0414;
unicode = 1044;
}
{
color = 2;
glyphname = "Ii-cy";
kernLeft = H;
kernRight = H;
layers = (
{
anchors = (
{
name = bottomright;
pos = (733,0);
},
{
name = top;
pos = (377,637);
}
);
background = {
shapes = (
{
closed = 1;
nodes = (
(544,476,l),
(517,507,l),
(220,180,l),
(246,149,l)
);
}
);
};
layerId = m01;
shapes = (
{
closed = 1;
nodes = (
(329,239,o),
(462,390,o),
(601,537,c),
(563,580,l),
(434,421,o),
(302,269,o),
(163,124,c),
(200,81,l)
);
},
{
closed = 1;
nodes = (
(60,-7,o),
(152,0,o),
(210,0,cs),
(245,0,o),
(295,-2,o),
(295,-3,c),
(304,43,l),
(302,47,l),
(302,47,o),
(277,44,o),
(257,44,cs),
(222,44,o),
(213,58,o),
(213,112,cs),
(213,189,o),
(219,376,o),
(225,511,cs),
(228,581,o),
(233,592,o),
(291,601,c),
(295,646,l),
(295,646,o),
(231,637,o),
(188,637,cs),
(150,637,o),
(77,640,o),
(77,640,c),
(70,596,l),
(72,592,l),
(72,592,o),
(94,594,o),
(106,594,cs),
(136,594,o),
(143,583,o),
(143,540,cs),
(142,120,ls),
(141,64,o),
(126,46,o),
(64,34,c),
(58,-12,l)
);
},
{
closed = 1;
nodes = (
(696,43,l),
(694,47,l),
(694,47,o),
(669,44,o),
(649,44,cs),
(614,44,o),
(605,58,o),
(605,112,cs),
(605,195,o),
(611,398,o),
(619,544,cs),
(621,582,o),
(633,594,o),
(683,601,c),
(687,646,l),
(687,646,o),
(615,637,o),
(567,637,cs),
(535,637,o),
(469,639,o),
(469,640,c),
(462,596,l),
(464,592,l),
(464,592,o),
(486,594,o),
(498,594,cs),
(528,594,o),
(535,583,o),
(535,540,cs),
(534,150,ls),
(534,62,o),
(521,44,o),
(458,43,c),
(449,-2,l),
(449,-2,o),
(529,0,o),
(564,0,cs),
(608,0,o),
(687,-3,o),
(687,-3,c)
);
}
);
width = 753;
}
);
locked = 1;
metricLeft = "=H";
metricRight = "=H";
production = uni0418;
unicode = 1048;
}
{
color = 2;
glyphname = "Ka-cy";
kernLeft = H;
kernRight = X;
layers = (
{
anchors = (
{
name = bottomright;
pos = (637,0);
},
{
name = top;
pos = (339,637);
}
);
background = {
shapes = (
{
closed = 1;
nodes = (
(597,20,l),
(603,54,l),
(599,58,l),
(545,58,o),
(515,80,o),
(475,143,cs),
(365,317,l),
(458,359,o),
(512,429,o),
(512,509,cs),
(512,606,o),
(435,666,o),
(311,666,cs),
(311,666,o),
(222,662,o),
(188,662,cs),
(150,662,o),
(77,665,o),
(77,665,c),
(70,621,l),
(72,617,l),
(72,617,o),
(94,619,o),
(106,619,cs),
(135,619,o),
(143,608,o),
(143,565,cs),
(142,145,ls),
(142,87,o),
(128,73,o),
(66,66,c),
(57,21,l),
(57,21,o),
(122,25,o),
(172,24,cs),
(219,23,o),
(278,22,o),
(278,21,c),
(287,63,l),
(285,67,l),
(221,67,o),
(212,77,o),
(213,149,cs),
(216,298,l),
(299,298,l),
(406,104,ls),
(438,46,o),
(479,9,o),
(512,9,c)
);
},
{
closed = 1;
nodes = (
(218,354,l),
(219,424,o),
(222,494,o),
(228,600,cs),
(229,618,o),
(232,623,o),
(246,623,cs),
(368,623,o),
(429,579,o),
(429,491,cs),
(429,373,o),
(321,344,o),
(321,344,c)
);
}
);
};
layerId = m01;
shapes = (
{
closed = 1;
nodes = (
(622,-2,l),
(628,32,l),
(624,36,l),
(571,36,o),
(534,66,o),
(500,120,cs),
(339,375,l),
(324,346,l),
(167,356,l),
(167,299,l),
(301,299,l),
(431,81,ls),
(465,23,o),
(504,-14,o),
(539,-14,c)
);
},
{
closed = 1;
nodes = (
(57,-1,o),
(122,0,o),
(172,0,cs),
(217,0,o),
(296,-3,o),
(296,-3,c),
(305,43,l),
(303,47,l),
(303,47,o),
(278,44,o),
(258,44,cs),
(222,44,o),
(212,58,o),
(214,112,cs),
(226,541,ls),
(227,579,o),
(241,593,o),
(292,601,c),
(296,646,l),
(296,646,o),
(232,637,o),
(188,637,cs),
(150,637,o),
(77,640,o),
(77,640,c),
(70,596,l),
(72,592,l),
(72,592,o),
(94,594,o),
(106,594,cs),
(136,594,o),
(144,583,o),
(144,540,cs),
(143,120,ls),
(142,63,o),
(129,50,o),
(67,44,c),
(57,-1,l)
);
},
{
closed = 1;
nodes = (
(435,476,ls),
(474,541,o),
(515,577,o),
(601,541,c),
(610,548,l),
(614,582,o),
(610,628,o),
(588,646,c),
(500,646,o),
(455,602,o),
(394,501,cs),
(286,321,l),
(327,297,l)
);
}
);
width = 638;
}
);
locked = 1;
metricLeft = "=K";
metricRight = "=K";
production = uni041A;
unicode = 1050;
}
{
color = 2;
glyphname = "El-cy";
kernLeft = "El-cy";
kernRight = H;
layers = (
{
background = {
shapes = (
{
closed = 1;
nodes = (
(186,32,o),
(233,104,o),
(255,340,cs),
(280,606,l),
(228,586,l),
(386,585,ls),
(420,585,o),
(433,571,o),
(433,534,cs),
(432,117,ls),
(432,65,o),
(413,47,o),
(354,43,c),
(348,0,l),
(462,0,ls),
(496,0,o),
(557,-2,o),
(593,-3,c),
(602,43,l),
(600,47,l),
(588,46,o),
(565,44,o),
(547,44,cs),
(512,44,o),
(503,58,o),
(503,112,cs),
(503,204,o),
(510,406,o),
(517,544,cs),
(519,580,o),
(533,591,o),
(589,598,c),
(593,643,l),
(565,639,o),
(519,637,o),
(478,637,cs),
(116,637,l),
(109,593,l),
(111,589,l),
(195,591,o),
(221,578,o),
(217,537,cs),
(199,367,ls),
(177,159,o),
(143,103,o),
(21,86,c),
(13,77,l),
(18,49,o),
(40,4,o),
(57,-13,c)
);
}
);
};
layerId = m01;
shapes = (
{
closed = 1;
nodes = (
(186,32,o),
(233,104,o),
(255,340,cs),
(280,606,l),
(228,586,l),
(386,585,ls),
(420,585,o),
(433,571,o),
(433,534,cs),
(432,117,ls),
(432,65,o),
(413,47,o),
(354,43,c),
(348,0,l),
(462,0,ls),
(496,0,o),
(557,-2,o),
(593,-3,c),
(602,43,l),
(600,47,l),
(588,46,o),
(565,44,o),
(547,44,cs),
(512,44,o),
(503,58,o),
(503,112,cs),
(503,204,o),
(510,406,o),
(517,544,cs),
(519,580,o),
(533,591,o),
(589,598,c),
(593,643,l),
(565,639,o),
(519,637,o),
(478,637,cs),
(116,637,l),
(109,593,l),
(111,589,l),
(195,591,o),
(221,578,o),
(217,537,cs),
(199,367,ls),
(177,159,o),
(143,103,o),
(21,86,c),
(13,77,l),
(18,49,o),
(40,4,o),
(57,-13,c)
);
}
);
width = 651;
}
);
locked = 1;
metricRight = "=Pe-cy";
production = uni041B;
unicode = 1051;
}
{
color = 2;
glyphname = "Che-cy";
kernLeft = "Che-cy";
kernRight = H;
layers = (
{
anchors = (
{
name = bottomright;
pos = (458,106);
},
{
name = top;
pos = (291,637);
}
);
background = {
shapes = (
{
closed = 1;
nodes = (
(538,43,l),
(536,47,l),
(536,47,o),
(511,44,o),
(491,44,cs),
(456,44,o),
(447,58,o),
(447,112,cs),
(447,195,o),
(453,398,o),
(461,544,cs),
(463,582,o),
(475,594,o),
(525,601,c),
(529,646,l),
(529,646,o),
(457,637,o),
(409,637,cs),
(377,637,o),
(311,639,o),
(311,640,c),
(304,596,l),
(306,592,l),
(306,592,o),
(328,594,o),
(340,594,cs),
(370,594,o),
(377,583,o),
(377,540,c),
(376,150,l),
(376,62,o),
(363,44,o),
(290,43,c),
(281,-2,l),
(281,-2,o),
(371,0,o),
(406,0,cs),
(450,0,o),
(529,-3,o),
(529,-3,c)
);
},
{
closed = 1;
nodes = (
(407,274,l),
(407,328,l),
(274,304,l),
(186,320,o),
(149,364,o),
(151,456,cs),
(152,511,ls),
(153,581,o),
(160,592,o),
(218,601,c),
(222,646,l),
(222,646,o),
(158,637,o),
(115,637,c),
(15,640,l),
(10,596,l),
(11,592,l),
(11,592,o),
(30,594,o),
(39,594,cs),
(64,594,o),
(70,583,o),
(70,540,cs),
(70,431,ls),
(70,325,o),
(164,238,o),
(286,256,cs)
);
}
);
};
layerId = m01;
shapes = (
{
closed = 1;
nodes = (
(549,43,l),
(547,47,l),
(536,46,o),
(517,44,o),
(502,44,cs),
(467,44,o),
(458,58,o),
(458,106,cs),
(458,194,o),
(464,388,o),
(472,544,cs),
(474,583,o),
(487,594,o),
(536,601,c),
(540,646,l),
(479,640,o),
(440,637,o),
(420,637,cs),
(388,637,o),
(322,639,o),
(322,640,c),
(315,596,l),
(317,592,l),
(335,593,o),
(346,594,o),
(351,594,cs),
(381,594,o),
(388,583,o),
(388,540,c),
(387,150,l),
(387,61,o),
(373,44,o),
(301,43,c),
(292,-2,l),
(355,-1,o),
(400,0,o),
(417,0,cs),
(449,0,o),
(506,-2,o),
(540,-3,c)
);
},
{
closed = 1;
nodes = (
(408,330,l),
(296,305,l),
(201,305,o),
(151,357,o),
(152,456,cs),
(153,511,ls),
(154,582,o),
(162,592,o),
(219,601,c),
(223,646,l),
(183,641,o),
(137,637,o),
(116,637,c),
(16,640,l),
(11,596,l),
(12,592,l),
(24,593,o),
(35,594,o),
(40,594,cs),
(65,594,o),
(71,583,o),
(71,540,cs),
(71,431,ls),
(71,280,o),
(208,219,o),
(408,279,c)
);
}
);
width = 598;
}
);
locked = 1;
metricRight = "=I";
production = uni0427;
unicode = 1063;
}
{
color = 2;
glyphname = "Shcha-cy";
kernLeft = H;
kernRight = "De-cy";
layers = (
{
anchors = (
{
name = serif;
pos = (893,106);
}
);
background = {
shapes = (
{
closed = 1;
nodes = (
(96,-4,o),
(142,0,o),
(167,0,cs),
(848,0,ls),
(878,0,o),
(933,-2,o),
(967,-3,c),
(974,41,l),
(972,45,l),
(953,44,o),
(938,43,o),
(930,43,cs),
(901,43,o),
(893,53,o),
(893,106,cs),
(893,185,o),
(899,381,o),
(907,544,cs),
(909,583,o),
(922,594,o),
(971,601,c),
(975,646,l),
(905,637,o),
(833,635,o),
(757,640,c),
(750,596,l),
(752,592,l),
(814,598,o),
(823,592,o),
(823,540,cs),
(822,147,ls),
(822,64,o),
(803,49,o),
(729,49,cs),
(596,49,ls),
(561,49,o),
(548,65,o),
(548,109,cs),
(548,187,o),
(554,375,o),
(560,511,cs),
(563,583,o),
(570,592,o),
(636,601,c),
(640,646,l),
(563,637,o),
(492,635,o),
(412,640,c),
(405,596,l),
(407,592,l),
(417,593,o),
(433,594,o),
(441,594,cs),
(471,594,o),
(478,583,o),
(478,540,cs),
(477,147,ls),
(477,64,o),
(458,49,o),
(384,49,cs),
(251,49,ls),
(216,49,o),
(203,65,o),
(203,109,cs),
(203,187,o),
(209,375,o),
(215,511,cs),
(218,583,o),
(225,592,o),
(291,601,c),
(295,646,l),
(218,637,o),
(147,635,o),
(67,640,c),
(60,596,l),
(62,592,l),
(72,593,o),
(88,594,o),
(96,594,cs),
(126,594,o),
(133,583,o),
(133,540,cs),
(131,120,ls),
(130,58,o),
(120,47,o),
(56,36,c),
(52,-9,l)
);
},
{
closed = 1;
nodes = (
(1002,-175,l),
(995,-100,o),
(992,-34,o),
(991,41,c),
(983,51,l),
(923,53,ls),
(900,54,o),
(893,66,o),
(893,106,c),
(831,0,l),
(894,0,o),
(922,-13,o),
(933,-75,cs),
(951,-179,l)
);
}
);
};
layerId = m01;
shapes = (
{
closed = 1;
nodes = (
(96,-4,o),
(142,0,o),
(167,0,cs),
(848,0,ls),
(878,0,o),
(933,-2,o),
(967,-3,c),
(974,41,l),
(972,45,l),
(953,44,o),
(938,43,o),
(930,43,cs),
(901,43,o),
(893,53,o),
(893,106,cs),
(893,185,o),
(899,381,o),
(907,544,cs),
(909,583,o),
(922,594,o),
(971,601,c),
(975,646,l),
(905,637,o),
(833,635,o),
(757,640,c),
(750,596,l),
(752,592,l),
(814,598,o),
(823,592,o),
(823,540,cs),
(822,147,ls),
(822,64,o),
(803,49,o),
(729,49,cs),
(596,49,ls),
(561,49,o),
(548,65,o),
(548,109,cs),
(548,187,o),
(554,375,o),
(560,511,cs),
(563,583,o),
(570,592,o),
(636,601,c),
(640,646,l),
(563,637,o),
(492,635,o),
(412,640,c),
(405,596,l),
(407,592,l),
(417,593,o),
(433,594,o),
(441,594,cs),
(471,594,o),
(478,583,o),
(478,540,cs),
(477,147,ls),
(477,64,o),
(458,49,o),
(384,49,cs),
(251,49,ls),
(216,49,o),
(203,65,o),
(203,109,cs),
(203,187,o),
(209,375,o),
(215,511,cs),
(218,583,o),
(225,592,o),
(291,601,c),
(295,646,l),
(218,637,o),
(147,635,o),
(67,640,c),
(60,596,l),
(62,592,l),
(72,593,o),
(88,594,o),
(96,594,cs),
(126,594,o),
(133,583,o),
(133,540,cs),
(131,120,ls),
(130,58,o),
(120,47,o),
(56,36,c),
(52,-9,l)
);
},
{
closed = 1;
nodes = (
(831,0,l),
(894,0,o),
(927,-12,o),
(933,-75,cs),
(941,-155,l),
(992,-151,l),
(991,41,l),
(983,51,l),
(923,53,ls),
(900,54,o),
(893,66,o),
(893,106,c)
);
}
);
width = 1035;
}
);
locked = 1;
production = uni0429;
unicode = 1065;
}
{
color = 2;
glyphname = "Hardsign-cy";
kernLeft = T;
kernRight = "Softsign-cy";
layers = (
{
background = {
shapes = (
{
closed = 1;
nodes = (
(500,-10,o),
(598,73,o),
(598,181,cs),
(598,286,o),
(516,354,o),
(387,354,cs),
(289,354,l),
(295,548,ls),
(296,582,o),
(316,594,o),
(369,601,c),
(373,646,l),
(300,636,o),
(220,634,o),
(142,640,c),
(135,596,l),
(137,592,l),
(155,593,o),
(170,594,o),
(177,594,cs),
(205,594,o),
(213,583,o),
(213,540,cs),
(212,120,ls),
(212,66,o),
(195,46,o),
(135,34,c),
(129,-12,l),
(193,-3,o),
(226,0,o),
(241,0,cs),
(290,0,o),
(330,-10,o),
(373,-10,c)
);
},
{
closed = 1;
nodes = (
(312,41,o),
(281,60,o),
(282,111,cs),
(287,298,l),
(388,305,l),
(470,291,o),
(512,249,o),
(512,165,cs),
(512,87,o),
(466,41,o),
(390,41,cs)
);
}
);
};
layerId = m01;
shapes = (
{
closed = 1;
nodes = (
(494,-10,o),
(590,73,o),
(590,181,cs),
(590,287,o),
(509,354,o),
(383,354,cs),
(288,354,l),
(293,548,ls),
(294,581,o),
(312,594,o),
(366,599,c),
(369,644,l),
(242,637,l),
(112,638,l),
(32,649,l),
(23,641,l),
(21,594,o),
(16,525,o),
(9,468,c),
(56,472,l),
(72,584,o),
(79,592,o),
(176,594,cs),
(203,595,o),
(211,583,o),
(211,540,cs),
(211,120,ls),
(211,62,o),
(191,46,o),
(117,39,c),
(109,-4,l),
(162,-2,o),
(213,0,o),
(239,0,cs),
(288,0,o),
(326,-10,o),
(369,-10,cs)
);
},
{
closed = 1;
nodes = (
(309,41,o),
(280,60,o),
(281,111,cs),
(285,298,l),
(384,305,l),
(465,290,o),
(504,246,o),
(504,165,cs),
(504,87,o),
(459,41,o),
(386,41,cs)
);
}
);
width = 615;
}
);
locked = 1;
metricLeft = "=T";
metricRight = "=Softsign-cy";
production = uni042A;
unicode = 1066;
}
{
color = 2;
glyphname = "Ia-cy";
kernLeft = "Ia-cy";
kernRight = H;
layers = (
{
anchors = (
{
name = top;
pos = (304,637);
}
);
background = {
shapes = (
{
closed = 1;
nodes = (
(140,-16,o),
(175,18,o),
(207,79,cs),
(302,263,l),
(423,263,l),
(423,308,l),
(316,315,l),
(232,331,o),
(185,387,o),
(185,470,cs),
(185,552,o),
(233,599,o),
(317,599,cs),
(370,599,o),
(395,580,o),
(395,538,cs),
(394,120,ls),
(394,64,o),
(377,46,o),
(314,34,c),
(308,-12,l),
(328,-4,o),
(367,0,o),
(423,0,cs),
(459,0,o),
(519,-2,o),
(555,-3,c),
(564,43,l),
(562,47,l),
(538,45,o),
(521,44,o),
(510,44,cs),
(472,44,o),
(465,56,o),
(465,123,cs),
(465,208,o),
(475,489,o),
(480,544,cs),
(484,586,o),
(492,592,o),
(551,601,c),
(555,646,l),
(513,640,o),
(468,637,o),
(439,637,cs),
(405,637,o),
(365,641,o),
(334,641,cs),
(197,641,o),
(102,564,o),
(102,454,cs),
(102,360,o),
(171,293,o),
(286,276,c),
(289,296,l),
(247,281,o),
(230,267,o),
(205,224,cs),
(142,118,ls),
(107,58,o),
(77,39,o),
(14,33,c),
(8,0,l),
(11,-5,l),
(109,-16,l)
);
}
);
};
layerId = m01;
shapes = (
{
closed = 1;
nodes = (
(140,-16,o),
(175,18,o),
(207,79,cs),
(302,263,l),
(423,263,l),
(423,309,l),
(306,316,l),
(228,336,o),
(185,391,o),
(185,470,cs),
(185,552,o),
(233,599,o),
(317,599,cs),
(370,599,o),
(395,580,o),
(395,538,cs),
(394,120,ls),
(394,64,o),
(377,46,o),
(314,34,c),
(308,-12,l),
(328,-4,o),
(367,0,o),
(423,0,cs),
(459,0,o),
(519,-2,o),
(555,-3,c),
(564,43,l),
(562,47,l),
(538,45,o),
(521,44,o),
(510,44,cs),
(472,44,o),
(465,56,o),
(465,123,cs),
(465,208,o),
(475,489,o),
(480,544,cs),
(484,586,o),
(492,592,o),
(551,601,c),
(555,646,l),
(513,640,o),
(468,637,o),
(439,637,cs),
(405,637,o),
(365,641,o),
(334,641,cs),
(197,641,o),
(102,564,o),
(102,454,cs),
(102,360,o),
(171,293,o),
(286,276,c),
(289,296,l),
(247,281,o),
(231,267,o),
(205,224,cs),
(142,118,ls),
(107,58,o),
(77,39,o),
(14,33,c),
(8,0,l),
(11,-5,l),
(109,-16,l)
);
}
);
width = 613;
}
);
locked = 1;
metricLeft = "=|R";
metricRight = "=I";
production = uni042F;
unicode = 1071;
}
{
color = 2;
glyphname = "be-cy";
kernLeft = O;
kernRight = o;
layers = (
{
background = {
shapes = (
{
closed = 1;
nodes = (
(389,-12,o),
(484,94,o),
(484,239,cs),
(484,373,o),
(402,464,o),
(280,464,c),
(222,454,o),
(179,433,o),
(144,398,c),
(126,407,l),
(141,347,l),
(124,546,o),
(181,603,o),
(414,615,c),
(424,624,l),
(466,726,l),
(464,730,l),
(436,742,l),
(418,710,o),
(409,705,o),
(366,695,cs),
(153,644,o),
(59,521,o),
(59,293,cs),
(59,95,o),
(129,-12,o),
(259,-12,cs)
);
},
{
closed = 1;
nodes = (
(196,37,o),
(138,119,o),
(138,237,cs),
(138,344,o),
(185,410,o),
(260,410,cs),
(343,410,o),
(402,327,o),
(402,208,cs),
(402,102,o),
(356,37,o),
(280,37,cs)
);
}
);
};
layerId = m01;
shapes = (
{
closed = 1;
nodes = (
(389,-12,o),
(484,94,o),
(484,239,cs),
(484,373,o),
(402,464,o),
(280,464,c),
(222,454,o),
(179,433,o),
(144,398,c),
(126,407,l),
(141,347,l),
(124,542,o),
(166,584,o),
(414,617,c),
(424,626,l),
(466,726,l),
(464,730,l),
(436,742,l),
(418,710,o),
(409,705,o),
(366,695,cs),
(153,644,o),
(59,521,o),
(59,293,cs),
(59,95,o),
(129,-12,o),
(259,-12,cs)
);
},
{
closed = 1;
nodes = (
(196,37,o),
(138,119,o),
(138,237,cs),
(138,344,o),
(185,410,o),
(260,410,cs),
(343,410,o),
(402,327,o),
(402,208,cs),
(402,102,o),
(356,37,o),
(280,37,cs)
);
}
);
width = 525;
}
);
locked = 1;
production = uni0431;
unicode = 1073;
}
{
color = 2;
glyphname = "ve-cy";
kernLeft = n;
kernRight = "ve-cy";
layers = (
{
background = {
shapes = (
{
closed = 1;
nodes = (
(112,1,o),
(151,2,o),
(229,-2,c),
(235,40,l),
(233,43,l),
(226,43,o),
(214,41,o),
(203,41,cs),
(179,41,o),
(174,51,o),
(174,89,c),
(181,357,l),
(183,403,o),
(189,409,o),
(228,415,c),
(230,457,l),
(202,454,o),
(162,452,o),
(142,452,cs),
(121,452,o),
(83,453,o),
(60,453,c),
(55,414,l),
(57,410,l),
(63,410,o),
(74,411,o),
(81,411,cs),
(102,411,o),
(108,403,o),
(108,373,cs),
(107,94,ls),
(107,55,o),
(95,43,o),
(52,35,c),
(47,-7,l)
);
}
);
};
layerId = m01;
shapes = (
{
closed = 1;
nodes = (
(175,0,o),
(213,-7,o),
(246,-7,cs),
(350,-7,o),
(435,53,o),
(435,131,cs),
(435,186,o),
(389,223,o),
(316,238,c),
(372,261,o),
(405,299,o),
(405,347,cs),
(405,416,o),
(349,455,o),
(248,455,cs),
(248,455,o),
(178,452,o),
(148,452,cs),
(119,452,o),
(57,453,o),
(57,453,c),
(51,413,l),
(53,409,l),
(53,409,o),
(70,411,o),
(80,411,cs),
(102,411,o),
(109,403,o),
(109,374,cs),
(108,93,ls),
(108,55,o),
(94,43,o),
(47,35,c),
(42,-8,l),
(42,-8,o),
(97,0,o),
(137,0,cs)
);
},
{
closed = 1;
nodes = (
(256,206,l),
(322,195,o),
(356,165,o),
(356,120,cs),
(356,70,o),
(320,39,o),
(259,39,cs),
(197,39,o),
(173,52,o),
(173,85,c),
(176,205,l)
);
},
{
closed = 1;
nodes = (
(186,398,l),
(186,410,o),
(189,413,o),
(200,413,cs),
(289,413,o),
(331,387,o),
(331,332,cs),
(331,264,o),
(261,247,o),
(261,247,c),
(178,253,l)
);
}
);
width = 475;
}
);
locked = 1;
production = uni0432;
unicode = 1074;
}
{
color = 2;
glyphname = "ge-cy";
kernLeft = n;
kernRight = "ge-cy";
layers = (
{
anchors = (
{
name = bottomright;
pos = (173,87);
},
{
name = top;
pos = (230,452);
}
);
background = {
shapes = (
{
closed = 1;
nodes = (
(81,-3,o),
(121,0,o),
(146,0,cs),
(166,0,o),
(205,-1,o),
(254,-3,c),
(261,41,l),
(258,46,l),
(242,45,o),
(217,43,o),
(205,43,cs),
(179,43,o),
(173,53,o),
(173,90,c),
(183,380,l),
(184,405,o),
(187,406,o),
(238,406,cs),
(316,406,o),
(324,401,o),
(324,353,cs),
(324,336,o),
(324,325,o),
(322,299,c),
(368,302,l),
(371,352,o),
(375,406,o),
(385,454,c),
(381,460,l),
(340,454,o),
(282,452,o),
(173,452,cs),
(137,452,o),
(87,453,o),
(58,454,c),
(53,414,l),
(56,409,l),
(67,410,o),
(75,411,o),
(80,411,cs),
(102,411,o),
(108,404,o),
(108,373,cs),
(107,93,ls),
(107,54,o),
(94,41,o),
(49,33,c),
(44,-8,l)
);
}
);
};
layerId = m01;
shapes = (
{
closed = 1;
nodes = (
(81,-3,o),
(121,0,o),
(146,0,cs),
(166,0,o),
(205,-1,o),
(254,-3,c),
(261,41,l),
(258,46,l),
(242,45,o),
(217,43,o),
(205,43,cs),
(179,43,o),
(173,53,o),
(173,87,c),
(183,380,l),
(184,405,o),
(187,406,o),
(238,406,cs),
(334,406,o),
(342,401,o),
(342,353,cs),
(342,336,o),
(342,325,o),
(340,299,c),
(386,302,l),
(389,352,o),
(393,406,o),
(403,454,c),
(399,460,l),
(358,454,o),
(300,452,o),
(173,452,cs),
(137,452,o),
(87,453,o),
(58,454,c),
(53,414,l),
(56,409,l),
(67,410,o),
(75,411,o),
(80,411,cs),
(102,411,o),
(108,404,o),
(108,373,cs),
(107,93,ls),
(107,54,o),
(94,41,o),
(49,33,c),
(44,-8,l)
);
}
);
width = 417;
}
);
locked = 1;
production = uni0433;
unicode = 1075;
}
{
color = 2;
glyphname = "de-cy";
kernLeft = "de-cy";
kernRight = u;
layers = (
{
background = {
shapes = (
{
closed = 1;
nodes = (
(59,-53,ls),
(66,-12,o),
(85,0,o),
(138,0,cs),
(315,0,ls),
(369,0,o),
(389,-13,o),
(396,-53,cs),
(411,-136,l),
(457,-133,l),
(452,-86,o),
(449,-34,o),
(448,36,c),
(442,43,l),
(398,45,ls),
(379,46,o),
(373,55,o),
(373,84,cs),
(373,156,o),
(376,286,o),
(384,376,cs),
(386,402,o),
(396,409,o),
(439,413,c),
(442,456,l),
(422,453,o),
(391,452,o),
(347,452,cs),
(76,452,l),
(69,415,l),
(71,411,l),
(152,405,o),
(161,397,o),
(154,339,cs),
(145,268,ls),
(128,137,o),
(85,64,o),
(12,43,c),
(5,36,l),
(5,-25,o),
(2,-81,o),
(-3,-133,c),
(44,-136,l)
);
},
{
closed = 1;
nodes = (
(103,49,l),
(155,97,o),
(183,163,o),
(192,265,cs),
(208,437,l),
(172,404,l),
(270,404,ls),
(297,404,o),
(307,395,o),
(307,368,cs),
(307,107,ls),
(307,56,o),
(294,44,o),
(238,44,cs),
(55,44,l),
(107,31,l)
);
}
);
};
layerId = m01;
shapes = (
{
closed = 1;
nodes = (
(59,-53,ls),
(67,-12,o),
(85,0,o),
(138,0,cs),
(315,0,ls),
(369,0,o),
(389,-13,o),
(396,-53,cs),
(411,-136,l),
(457,-133,l),
(452,-86,o),
(449,-34,o),
(448,36,c),
(442,43,l),
(398,45,ls),
(379,46,o),
(373,55,o),
(373,84,cs),
(373,156,o),
(376,286,o),
(384,376,cs),
(386,402,o),
(396,409,o),
(439,413,c),
(442,456,l),
(422,453,o),
(391,452,o),
(347,452,cs),
(76,452,l),
(69,415,l),
(71,411,l),
(152,405,o),
(161,397,o),
(154,339,cs),
(145,268,ls),
(128,137,o),
(85,64,o),
(12,43,c),
(5,36,l),
(5,-28,o),
(2,-81,o),
(-3,-136,c),
(44,-133,l)
);
},
{
closed = 1;
nodes = (
(103,49,l),
(155,97,o),
(183,163,o),
(192,265,cs),
(208,437,l),
(172,404,l),
(270,404,ls),
(297,404,o),
(307,395,o),
(307,368,cs),
(307,107,ls),
(307,56,o),
(294,44,o),
(238,44,cs),
(55,44,l),
(107,31,l)
);
}
);
width = 491;
}
);
locked = 1;
production = uni0434;
unicode = 1076;
}
{
color = 2;
glyphname = "zhe-cy";
kernLeft = x;
kernRight = x;
layers = (
{
anchors = (
{
name = bottomright;
pos = (658,80);
},
{
name = top;
pos = (376,452);
}
);
background = {
shapes = (
{
closed = 1;
nodes = (
(125,-10,o),
(156,13,o),
(182,56,cs),
(272,207,l),
(480,207,l),
(570,56,ls),
(596,13,o),
(627,-10,o),
(655,-10,c),
(726,-2,l),
(731,27,l),
(727,32,l),
(688,32,o),
(658,53,o),
(633,92,cs),
(519,272,l),
(487,252,l),
(265,252,l),
(233,272,l),
(119,92,ls),
(94,53,o),
(64,32,o),
(25,32,c),
(21,27,l),
(26,-2,l),
(97,-10,l)
);
},
{
closed = 1;
nodes = (
(284,226,l),
(207,357,ls),
(164,430,o),
(131,455,o),
(61,455,c),
(37,428,o),
(40,409,o),
(42,372,c),
(50,365,l),
(120,394,o),
(147,379,o),
(179,326,cs),
(255,202,l)
);
},
{
closed = 1;
nodes = (
(279,-5,o),
(351,0,o),
(397,0,cs),
(423,0,o),
(468,-2,o),
(468,-2,c),
(475,40,l),
(473,43,l),
(473,43,o),
(455,41,o),
(442,41,cs),
(415,41,o),
(407,51,o),
(407,89,cs),
(407,151,o),
(413,269,o),
(417,357,cs),
(419,402,o),
(424,409,o),
(466,415,c),
(469,457,l),
(469,457,o),
(412,452,o),
(379,452,cs),
(349,452,o),
(292,453,o),
(292,453,c),
(287,414,l),
(289,410,l),
(289,410,o),
(304,411,o),
(314,411,cs),
(337,411,o),
(342,403,o),
(342,373,cs),
(341,95,ls),
(341,55,o),
(330,43,o),
(283,35,c),
(278,-7,l)
);
},
{
closed = 1;
nodes = (
(573,326,ls),
(605,379,o),
(632,394,o),
(702,365,c),
(710,372,l),
(712,409,o),
(715,428,o),
(691,455,c),
(621,455,o),
(588,430,o),
(545,357,cs),
(468,226,l),
(497,202,l)
);
}
);
};
layerId = m01;
shapes = (
{
closed = 1;
nodes = (
(127,-10,o),
(158,13,o),
(183,56,cs),
(270,207,l),
(482,207,l),
(569,56,ls),
(594,13,o),
(625,-10,o),
(654,-10,c),
(725,-2,l),
(730,28,l),
(726,32,l),
(686,32,o),
(655,53,o),
(631,92,cs),
(519,272,l),
(507,250,l),
(257,250,l),
(223,240,o),
(200,223,o),
(180,190,cs),
(120,91,ls),
(97,52,o),
(65,32,o),
(26,32,c),
(22,28,l),
(27,-2,l),
(98,-10,l)
);
},
{
closed = 1;
nodes = (
(284,226,l),
(207,357,ls),
(164,430,o),
(131,455,o),
(61,455,c),
(37,428,o),
(40,409,o),
(42,372,c),
(50,365,l),
(120,394,o),
(147,379,o),
(179,326,cs),
(255,202,l)
);
},
{
closed = 1;
nodes = (
(279,-5,o),
(351,0,o),
(397,0,cs),
(423,0,o),
(468,-2,o),
(468,-2,c),
(475,40,l),
(473,43,l),
(473,43,o),
(455,41,o),
(442,41,cs),
(415,41,o),
(407,51,o),
(407,89,cs),
(407,151,o),
(413,269,o),
(417,357,cs),
(419,402,o),
(424,409,o),
(466,415,c),
(469,457,l),
(469,457,o),
(412,452,o),
(379,452,cs),
(349,452,o),
(292,453,o),
(292,453,c),
(287,414,l),
(289,410,l),
(289,410,o),
(304,411,o),
(314,411,cs),
(337,411,o),
(342,403,o),
(342,373,cs),
(341,95,ls),
(341,55,o),
(330,43,o),
(283,35,c),
(278,-7,l)
);
},
{
closed = 1;
nodes = (
(573,326,ls),
(605,379,o),
(632,394,o),
(702,365,c),
(710,372,l),
(712,409,o),
(715,428,o),
(691,455,c),
(621,455,o),
(588,430,o),
(545,357,cs),
(468,226,l),
(497,202,l)
);
}
);
userData = {
RMXScaler = {
adjustSpace = 8;
height = 70.66;
weight = -7;
width = 78;
};
};
width = 752;
}
);
locked = 1;
production = uni0436;
unicode = 1078;
userData = {
RMXScaler = {
source = "Zhe-cy";
};
};
}
{
color = 2;
glyphname = "el-cy";
kernLeft = "el-cy";
kernRight = u;
layers = (
{
background = {
shapes = (
{
closed = 1;
nodes = (
(65,-53,ls),
(72,-12,o),
(91,0,o),
(144,0,cs),
(324,0,ls),
(378,0,o),
(398,-13,o),
(405,-53,cs),
(420,-137,l),
(466,-134,l),
(461,-87,o),
(458,-34,o),
(457,36,c),
(451,43,l),
(407,45,ls),
(388,46,o),
(382,55,o),
(382,84,cs),
(382,156,o),
(387,286,o),
(393,376,cs),
(395,402,o),
(405,409,o),
(448,413,c),
(451,456,l),
(431,453,o),
(400,452,o),
(356,452,cs),
(82,452,l),
(75,415,l),
(77,411,l),
(158,405,o),
(167,397,o),
(160,339,cs),
(151,268,ls),
(134,137,o),
(91,64,o),
(18,43,c),
(11,36,l),
(11,-25,o),
(8,-82,o),
(3,-134,c),
(50,-137,l)
);
},
{
closed = 1;
nodes = (
(109,49,l),
(161,97,o),
(189,163,o),
(198,265,cs),
(214,437,l),
(178,404,l),
(279,404,ls),
(306,404,o),
(316,395,o),
(316,368,cs),
(316,107,ls),
(316,56,o),
(303,44,o),
(247,44,cs),
(61,44,l),
(113,31,l)
);
}
);
};
layerId = m01;
shapes = (
{
closed = 1;
nodes = (
(140,19,o),
(180,98,o),
(201,286,cs),
(216,423,l),
(181,404,l),
(278,404,ls),
(306,404,o),
(316,395,o),
(316,368,cs),
(315,92,ls),
(315,56,o),
(302,44,o),
(256,40,c),
(251,0,l),
(344,0,ls),
(364,0,o),
(402,-1,o),
(449,-2,c),
(456,40,l),
(454,43,l),
(444,42,o),
(427,41,o),
(415,41,cs),
(388,41,o),
(382,50,o),
(382,89,cs),
(382,188,o),
(386,303,o),
(392,378,cs),
(394,404,o),
(405,411,o),
(447,415,c),
(450,456,l),
(413,453,o),
(379,452,o),
(356,452,cs),
(84,452,l),
(78,415,l),
(80,411,l),
(146,411,o),
(164,399,o),
(160,360,cs),
(153,293,ls),
(138,151,o),
(96,86,o),
(14,73,c),
(5,66,l),
(11,31,o),
(24,5,o),
(45,-15,c)
);
}
);
width = 497;
}
);
locked = 1;
production = uni043B;
unicode = 1083;
}
{
color = 2;
glyphname = "ef-cy";
kernLeft = o;
kernRight = o;
layers = (
{
background = {
shapes = (
{
closed = 1;
nodes = (
(453,-12,o),
(571,91,o),
(571,241,cs),
(571,377,o),
(476,463,o),
(322,463,cs),
(152,463,o),
(36,362,o),
(36,211,cs),
(36,73,o),
(130,-12,o),
(283,-12,cs)
);
},
{
closed = 1;
nodes = (
(191,37,o),
(112,106,o),
(112,236,cs),
(112,347,o),
(170,409,o),
(282,409,cs),
(413,409,o),
(493,340,o),
(493,210,cs),
(493,100,o),
(433,37,o),
(321,37,cs)
);
},
{
closed = 1;
nodes = (
(201,-239,o),
(279,-230,o),
(346,-230,cs),
(366,-230,o),
(386,-230,o),
(407,-230,c),
(414,-193,l),
(413,-190,l),
(402,-190,o),
(387,-191,o),
(379,-191,cs),
(324,-191,o),
(330,-145,o),
(331,-9,c),
(337,393,ls),
(340,575,o),
(349,714,o),
(359,729,c),
(353,742,l),
(320,733,o),
(260,721,o),
(208,713,c),
(206,695,ls),
(205,685,o),
(204,680,o),
(204,678,cs),
(204,669,o),
(217,681,o),
(233,681,cs),
(253,681,o),
(266,660,o),
(266,627,cs),
(266,94,l),
(264,-97,ls),
(263,-169,o),
(265,-192,o),
(207,-199,c),
(201,-237,ls)
);
}
);
};
layerId = m01;
shapes = (
{
closed = 1;
nodes = (
(453,-12,o),
(573,91,o),
(573,241,cs),
(573,378,o),
(475,463,o),
(322,463,cs),
(151,463,o),
(36,361,o),
(36,211,cs),
(36,73,o),
(130,-12,o),
(283,-12,cs)
);
},
{
closed = 1;
nodes = (
(188,37,o),
(112,109,o),
(112,236,cs),
(112,348,o),
(171,409,o),
(282,409,cs),
(416,409,o),
(495,337,o),
(495,210,cs),
(495,99,o),
(432,37,o),
(321,37,cs)
);
},
{
closed = 1;
nodes = (
(244,-232,o),
(299,-230,o),
(344,-230,cs),
(365,-230,o),
(386,-230,o),
(407,-230,c),
(415,-192,l),
(413,-189,l),
(339,-192,o),
(330,-184,o),
(331,-111,cs),
(337,394,l),
(342,584,o),
(351,715,o),
(360,729,c),
(354,742,l),
(309,730,o),
(248,718,o),
(207,713,c),
(203,676,l),
(251,683,o),
(265,673,o),
(265,633,cs),
(265,94,l),
(263,-97,ls),
(262,-178,o),
(251,-191,o),
(189,-198,c),
(184,-237,l)
);
}
);
width = 608;
}
);
locked = 1;
production = uni0444;
unicode = 1092;
}
{
color = 2;
glyphname = "sha-cy";
kernLeft = n;
kernRight = u;
layers = (
{
background = {
shapes = (
{
closed = 1;
nodes = (
(85,-3,o),
(121,0,o),
(140,0,cs),
(667,0,ls),
(700,0,o),
(738,-1,o),
(763,-2,c),
(768,38,l),
(766,42,l),
(752,41,o),
(742,41,o),
(736,41,cs),
(713,41,o),
(706,48,o),
(706,88,cs),
(706,149,o),
(713,273,o),
(717,376,cs),
(718,403,o),
(728,410,o),
(765,415,c),
(769,457,l),
(712,451,o),
(652,450,o),
(591,453,c),
(586,414,l),
(588,410,l),
(634,413,o),
(641,409,o),
(641,374,cs),
(640,106,ls),
(640,54,o),
(625,44,o),
(571,44,cs),
(477,44,ls),
(450,44,o),
(440,54,o),
(440,85,cs),
(440,143,o),
(445,267,o),
(449,357,cs),
(451,403,o),
(456,409,o),
(504,415,c),
(508,457,l),
(445,451,o),
(388,450,o),
(324,453,c),
(319,414,l),
(321,410,l),
(367,412,o),
(374,408,o),
(374,373,cs),
(373,106,ls),
(373,54,o),
(359,44,o),
(305,44,cs),
(211,44,ls),
(183,44,o),
(173,54,o),
(173,85,cs),
(173,143,o),
(179,267,o),
(183,357,cs),
(185,403,o),
(190,409,o),
(238,415,c),
(241,457,l),
(179,451,o),
(121,450,o),
(57,453,c),
(52,414,l),
(54,410,l),
(61,410,o),
(73,411,o),
(79,411,cs),
(102,411,o),
(107,403,o),
(107,373,cs),
(106,94,ls),
(106,52,o),
(97,44,o),
(49,36,c),
(46,-6,l)
);
}
);
};
layerId = m01;
shapes = (
{
closed = 1;
nodes = (
(85,-3,o),
(121,0,o),
(140,0,cs),
(667,0,ls),
(700,0,o),
(738,-1,o),
(763,-2,c),
(768,38,l),
(766,42,l),
(752,41,o),
(742,41,o),
(736,41,cs),
(713,41,o),
(706,48,o),
(706,88,cs),
(706,149,o),
(713,273,o),
(717,376,cs),
(718,403,o),
(728,410,o),
(765,415,c),
(769,457,l),
(712,451,o),
(652,450,o),
(591,453,c),
(586,414,l),
(588,410,l),
(634,413,o),
(641,409,o),
(641,374,cs),
(640,106,ls),
(640,54,o),
(625,44,o),
(571,44,cs),
(477,44,ls),
(450,44,o),
(440,54,o),
(440,85,cs),
(440,143,o),
(445,267,o),
(449,357,cs),
(451,403,o),
(456,409,o),
(504,415,c),
(508,457,l),
(445,451,o),
(388,450,o),
(324,453,c),
(319,414,l),
(321,410,l),
(367,412,o),
(374,408,o),
(374,373,cs),
(373,106,ls),
(373,54,o),
(359,44,o),
(305,44,cs),
(211,44,ls),
(183,44,o),
(173,54,o),
(173,85,cs),
(173,143,o),
(179,267,o),
(183,357,cs),
(185,403,o),
(190,409,o),
(238,415,c),
(241,457,l),
(179,451,o),
(121,450,o),
(57,453,c),
(52,414,l),
(54,410,l),
(100,414,o),
(107,409,o),
(107,373,cs),
(106,94,ls),
(106,52,o),
(97,44,o),
(49,36,c),
(46,-6,l)
);
}
);
width = 818;
}
);
locked = 1;
production = uni0448;
unicode = 1096;
}
{
color = 2;
glyphname = "softsign-cy";
kernLeft = n;
kernRight = "softsign-cy";
layers = (
{
background = {
shapes = (
{
closed = 1;
nodes = (
(113,1,o),
(152,2,o),
(230,-2,c),
(236,40,l),
(234,43,l),
(227,43,o),
(215,41,o),
(204,41,cs),
(180,41,o),
(175,51,o),
(175,89,c),
(182,357,l),
(184,403,o),
(190,409,o),
(229,415,c),
(231,457,l),
(203,454,o),
(163,452,o),
(143,452,cs),
(122,452,o),
(84,453,o),
(61,453,c),
(56,414,l),
(58,410,l),
(64,410,o),
(75,411,o),
(82,411,cs),
(103,411,o),
(109,403,o),
(109,373,cs),
(108,94,ls),
(108,55,o),
(96,43,o),
(53,35,c),
(48,-7,l)
);
}
);
};
layerId = m01;
shapes = (
{
closed = 1;
nodes = (
(344,-7,o),
(421,56,o),
(421,141,cs),
(421,218,o),
(357,266,o),
(254,266,cs),
(179,266,l),
(184,376,ls),
(185,402,o),
(199,410,o),
(240,415,c),
(243,457,l),
(184,451,o),
(118,450,o),
(54,453,c),
(49,414,l),
(51,410,l),
(63,410,o),
(75,411,o),
(81,411,cs),
(103,411,o),
(109,403,o),
(109,373,cs),
(108,92,ls),
(108,56,o),
(94,42,o),
(49,34,c),
(44,-8,l),
(93,-2,o),
(123,0,o),
(136,0,cs),
(175,0,o),
(208,-7,o),
(243,-7,c)
);
},
{
closed = 1;
nodes = (
(195,39,o),
(173,52,o),
(174,85,cs),
(177,217,l),
(250,221,l),
(312,213,o),
(342,185,o),
(342,130,cs),
(342,73,o),
(309,39,o),
(252,39,cs)
);
}
);
width = 437;
}
);
locked = 1;
production = uni044C;
unicode = 1100;
}
{
color = 2;
glyphname = "iu-cy";
kernLeft = n;
kernRight = o;
layers = (
{
anchors = (
{
name = top;
pos = (343,452);
}
);
background = {
shapes = (
{
closed = 1;
nodes = (
(111,1,o),
(150,2,o),
(228,-2,c),
(234,40,l),
(232,43,l),
(225,43,o),
(213,41,o),
(202,41,cs),
(178,41,o),
(172,51,o),
(173,89,cs),
(176,204,l),
(218,207,o),
(262,207,o),
(305,207,c),
(305,253,l),
(262,251,o),
(219,250,o),
(176,252,c),
(180,357,ls),
(182,403,o),
(188,409,o),
(227,415,c),
(229,457,l),
(201,454,o),
(161,452,o),
(141,452,cs),
(120,452,o),
(82,453,o),
(59,453,c),
(54,414,l),
(56,410,l),
(62,410,o),
(73,411,o),
(80,411,cs),
(101,411,o),
(107,403,o),
(107,373,cs),
(106,94,ls),
(106,55,o),
(94,43,o),
(51,35,c),
(46,-7,l)
);
},
{
closed = 1;
nodes = (
(594,-12,o),
(692,99,o),
(692,242,cs),
(692,373,o),
(614,464,o),
(504,464,cs),
(376,464,o),
(278,353,o),
(278,210,cs),
(278,79,o),
(355,-12,o),
(466,-12,cs)
);
},
{
closed = 1;
nodes = (
(414,37,o),
(358,119,o),
(358,239,cs),
(358,344,o),
(403,410,o),
(474,410,cs),
(554,410,o),
(610,326,o),
(610,206,cs),
(610,102,o),
(565,37,o),
(494,37,cs)
);
}
);
};
layerId = m01;
shapes = (
{
closed = 1;
nodes = (
(111,1,o),
(150,2,o),
(228,-2,c),
(234,40,l),
(232,43,l),
(225,43,o),
(213,41,o),
(202,41,cs),
(178,41,o),
(172,51,o),
(173,89,cs),
(176,204,l),
(218,207,o),
(262,207,o),
(305,207,c),
(305,253,l),
(262,251,o),
(219,250,o),
(176,252,c),
(180,357,ls),
(182,403,o),
(188,409,o),
(227,415,c),
(229,457,l),
(201,454,o),
(161,452,o),
(141,452,cs),
(120,452,o),
(82,453,o),
(59,453,c),
(54,414,l),
(56,410,l),
(62,410,o),
(73,411,o),
(80,411,cs),
(101,411,o),
(107,403,o),
(107,373,cs),
(106,94,ls),
(106,55,o),
(94,43,o),
(51,35,c),
(46,-7,l)
);
},
{
closed = 1;
nodes = (
(594,-12,o),
(692,99,o),
(692,242,cs),
(692,373,o),
(614,464,o),
(504,464,cs),
(376,464,o),
(278,353,o),
(278,210,cs),
(278,79,o),
(355,-12,o),
(466,-12,cs)
);
},
{
closed = 1;
nodes = (
(414,37,o),
(358,119,o),
(358,239,cs),
(358,344,o),
(403,410,o),
(474,410,cs),
(554,410,o),
(610,326,o),
(610,206,cs),
(610,102,o),
(565,37,o),
(494,37,cs)
);
}
);
width = 733;
}
);
locked = 1;
production = uni044E;
unicode = 1102;
}
{
color = 2;
glyphname = "e-cy";
kernLeft = o;
kernRight = c;
layers = (
{
background = {
shapes = (
{
closed = 1;
nodes = (
(259,-42,o),
(393,51,o),
(393,240,cs),
(393,422,o),
(269,495,o),
(48,443,c),
(44,438,l),
(46,395,o),
(45,347,o),
(41,316,c),
(85,320,l),
(93,390,o),
(108,408,o),
(171,408,cs),
(264,408,o),
(312,344,o),
(312,214,cs),
(312,93,o),
(269,42,o),
(170,42,cs),
(104,42,o),
(85,63,o),
(87,135,c),
(48,135,l),
(41,129,l),
(43,102,o),
(43,67,o),
(41,9,c),
(45,4,l)
);
},
{
closed = 1;
nodes = (
(189,208,o),
(260,211,o),
(323,208,c),
(328,260,l),
(277,253,o),
(205,252,o),
(135,256,c),
(127,207,l),
(130,202,l)
);
}
);
};
layerId = m01;
shapes = (
{
closed = 1;
nodes = (
(175,494,o),
(41,401,o),
(41,212,cs),
(41,30,o),
(165,-43,o),
(386,9,c),
(390,14,l),
(388,57,o),
(389,108,o),
(393,139,c),
(349,135,l),
(341,65,o),
(326,44,o),
(263,44,cs),
(170,44,o),
(122,108,o),
(122,238,cs),
(122,359,o),
(165,410,o),
(264,410,cs),
(330,410,o),
(349,392,o),
(347,320,c),
(386,320,l),
(393,326,l),
(391,353,o),
(391,385,o),
(393,443,c),
(389,448,l)
);
},
{
closed = 1;
nodes = (
(253,255,o),
(178,252,o),
(111,255,c),
(106,203,l),
(160,210,o),
(236,211,o),
(311,207,c),
(319,256,l),
(316,261,l)
);
}
);
width = 458;
}
);
locked = 1;
production = uni0454;
unicode = 1108;
}
{
color = 2;
glyphname = "nje-cy";
kernLeft = n;
kernRight = "softsign-cy";
layers = (
{
background = {
shapes = (
{
closed = 1;
nodes = (
(403,220,l),
(403,112,ls),
(403,55,o),
(392,41,o),
(347,40,c),
(340,-1,l),
(368,-1,o),
(412,0,o),
(432,0,cs),
(458,0,o),
(501,-1,o),
(530,-2,c),
(537,40,l),
(535,44,l),
(521,42,o),
(510,41,o),
(502,41,cs),
(477,41,o),
(470,52,o),
(470,87,cs),
(470,180,o),
(474,304,o),
(480,377,cs),
(482,404,o),
(490,411,o),
(528,416,c),
(531,457,l),
(492,454,o),
(453,452,o),
(434,452,cs),
(415,452,o),
(377,453,o),
(353,453,c),
(348,415,l),
(350,411,l),
(357,411,o),
(369,412,o),
(376,412,cs),
(398,412,o),
(404,404,o),
(404,374,cs),
(403,245,l)
);
},
{
closed = 1;
nodes = (
(945,-7,o),
(1021,57,o),
(1021,141,cs),
(1021,218,o),
(957,266,o),
(854,266,cs),
(779,266,l),
(784,376,ls),
(785,401,o),
(798,410,o),
(840,415,c),
(843,457,l),
(788,451,o),
(724,450,o),
(654,453,c),
(649,414,l),
(651,410,l),
(663,410,o),
(675,411,o),
(681,411,cs),
(703,411,o),
(709,403,o),
(709,373,cs),
(708,92,ls),
(708,56,o),
(694,42,o),
(649,34,c),
(644,-8,l),
(682,-3,o),
(719,0,o),
(736,0,cs),
(775,0,o),
(808,-7,o),
(843,-7,c)
);
},
{
closed = 1;
nodes = (
(795,39,o),
(773,52,o),
(774,85,cs),
(777,217,l),
(850,221,l),
(913,213,o),
(942,184,o),
(942,130,cs),
(942,73,o),
(909,39,o),
(852,39,cs)
);
},
{
closed = 1;
nodes = (
(419,259,l),
(366,252,o),
(339,251,o),
(297,251,c),
(178,252,l),
(183,358,ls),
(185,404,o),
(190,410,o),
(231,416,c),
(234,457,l),
(197,454,o),
(163,452,o),
(144,452,cs),
(122,452,o),
(82,453,o),
(58,453,c),
(53,415,l),
(55,411,l),
(61,411,o),
(73,412,o),
(80,412,cs),
(102,412,o),
(108,404,o),
(108,374,cs),
(107,94,ls),
(107,55,o),
(95,43,o),
(49,35,c),
(44,-7,l),
(45,-5,o),
(125,0,o),
(161,0,cs),
(180,0,o),
(212,-1,o),
(233,-2,c),
(240,40,l),
(238,43,l),
(230,42,o),
(216,41,o),
(205,41,cs),
(180,41,o),
(173,51,o),
(174,89,cs),
(176,201,l),
(233,205,o),
(284,208,o),
(297,208,cs),
(324,208,o),
(384,207,o),
(413,207,c)
);
}
);
};
layerId = m01;
shapes = (
{
closed = 1;
nodes = (
(45,-5,o),
(125,0,o),
(161,0,cs),
(180,0,o),
(212,-1,o),
(233,-2,c),
(240,40,l),
(238,43,l),
(230,42,o),
(216,41,o),
(205,41,cs),
(180,41,o),
(173,51,o),
(174,89,cs),
(176,205,l),
(233,209,o),
(284,212,o),
(297,212,c),
(424,211,l),
(424,260,l),
(297,255,l),
(178,256,l),
(183,358,ls),
(185,404,o),
(190,410,o),
(231,416,c),
(234,457,l),
(197,454,o),
(163,452,o),
(144,452,cs),
(122,452,o),
(82,453,o),
(58,453,c),
(53,415,l),
(55,411,l),
(61,411,o),
(73,412,o),
(80,412,cs),
(102,412,o),
(108,404,o),
(108,374,cs),
(107,94,ls),
(107,55,o),
(95,43,o),
(49,35,c),
(44,-7,l)
);
},
{
closed = 1;
nodes = (
(490,39,o),
(468,52,o),
(469,85,cs),
(472,215,l),
(545,218,l),
(608,210,o),
(637,184,o),
(637,130,cs),
(637,73,o),
(604,39,o),
(547,39,cs)
);
},
{
closed = 1;
nodes = (
(377,-3,o),
(414,0,o),
(431,0,cs),
(470,0,o),
(503,-7,o),
(538,-7,c),
(640,-7,o),
(716,57,o),
(716,141,cs),
(716,218,o),
(652,263,o),
(549,263,cs),
(474,263,l),
(479,376,ls),
(480,401,o),
(493,410,o),
(535,415,c),
(538,457,l),
(483,451,o),
(419,450,o),
(349,453,c),
(344,414,l),
(346,410,l),
(358,410,o),
(370,411,o),
(376,411,cs),
(398,411,o),
(404,403,o),
(404,373,cs),
(403,92,ls),
(403,56,o),
(389,42,o),
(344,34,c),
(339,-8,l)
);
}
);
width = 732;
}
);
locked = 1;
production = uni045A;
unicode = 1114;
}
{
color = 2;
glyphname = "yat-cy";
kernLeft = "te-cy";
kernRight = "yat-cy";
layers = (
{
background = {
shapes = (
{
closed = 1;
nodes = (
(427,-7,o),
(501,54,o),
(501,138,cs),
(501,215,o),
(439,261,o),
(336,261,cs),
(242,261,l),
(242,211,l),
(332,216,l),
(395,207,o),
(422,180,o),
(422,127,cs),
(422,70,o),
(391,39,o),
(334,39,cs),
(276,39,o),
(254,52,o),
(254,85,cs),
(254,412,l),
(383,408,o),
(389,404,o),
(403,310,c),
(446,313,l),
(435,453,l),
(429,460,l),
(361,452,l),
(105,452,l),
(38,460,l),
(32,453,l),
(21,310,l),
(64,313,l),
(77,405,o),
(84,410,o),
(188,412,c),
(188,118,ls),
(188,49,o),
(181,42,o),
(112,37,c),
(106,-4,l),
(154,-2,o),
(198,0,o),
(217,0,cs),
(256,0,o),
(290,-7,o),
(325,-7,cs)
);
},
{
closed = 1;
nodes = (
(254,350,o),
(269,705,o),
(281,729,c),
(275,742,l),
(231,730,o),
(183,720,o),
(130,713,c),
(126,679,l),
(129,677,l),
(179,683,o),
(188,675,o),
(188,626,cs),
(188,135,l),
(254,85,l)
);
}
);
};
layerId = m01;
shapes = (
{
closed = 1;
nodes = (
(427,-7,o),
(501,54,o),
(501,138,cs),
(501,215,o),
(439,261,o),
(336,261,cs),
(242,261,l),
(242,211,l),
(332,216,l),
(395,207,o),
(422,180,o),
(422,127,cs),
(422,70,o),
(391,39,o),
(334,39,cs),
(276,39,o),
(254,52,o),
(254,85,cs),
(254,412,l),
(383,408,o),
(389,404,o),
(403,310,c),
(446,313,l),
(435,453,l),
(429,460,l),
(361,452,l),
(105,452,l),
(38,460,l),
(32,453,l),
(21,310,l),
(64,313,l),
(77,405,o),
(84,410,o),
(188,412,c),
(188,118,ls),
(188,49,o),
(181,42,o),
(112,37,c),
(106,-4,l),
(154,-2,o),
(198,0,o),
(217,0,cs),
(256,0,o),
(290,-7,o),
(325,-7,cs)
);
},
{
closed = 1;
nodes = (
(254,377,o),
(264,684,o),
(275,729,c),
(269,742,l),
(223,730,o),
(176,721,o),
(130,713,c),
(126,679,l),
(129,677,l),
(179,683,o),
(188,675,o),
(188,626,cs),
(188,135,l),
(254,85,l)
);
}
);
width = 540;
}
);
locked = 1;
production = uni0463;
unicode = 1123;
}
{
color = 2;
glyphname = "yusbig-cy";
kernLeft = x;
kernRight = x;
layers = (
{
background = {
shapes = (
{
closed = 1;
nodes = (
(76,-10,o),
(107,13,o),
(132,56,cs),
(219,207,l),
(431,207,l),
(518,56,ls),
(543,13,o),
(574,-10,o),
(603,-10,c),
(674,-2,l),
(679,28,l),
(675,32,l),
(635,32,o),
(604,53,o),
(580,92,cs),
(468,272,l),
(456,250,l),
(206,250,l),
(172,240,o),
(149,223,o),
(129,190,cs),
(69,91,ls),
(46,52,o),
(14,32,o),
(-25,32,c),
(-29,28,l),
(-24,-2,l),
(47,-10,l)
);
},
{
closed = 1;
nodes = (
(228,-5,o),
(300,0,o),
(346,0,cs),
(372,0,o),
(417,-2,o),
(417,-2,c),
(424,40,l),
(422,43,l),
(422,43,o),
(404,41,o),
(391,41,cs),
(364,41,o),
(356,51,o),
(356,89,c),
(360,229,l),
(290,229,l),
(290,95,ls),
(290,55,o),
(279,43,o),
(232,35,c),
(227,-7,l)
);
},
{
closed = 1;
nodes = (
(256,237,l),
(162,370,ls),
(144,396,o),
(150,408,o),
(180,408,cs),
(504,408,ls),
(535,408,o),
(537,396,o),
(510,363,cs),
(408,236,l),
(442,214,l),
(534,324,ls),
(586,387,o),
(605,405,o),
(658,416,c),
(661,449,l),
(656,454,l),
(515,452,l),
(145,452,l),
(-2,454,l),
(-8,418,l),
(-5,415,l),
(47,405,o),
(60,399,o),
(106,338,cs),
(201,212,l)
);
}
);
};
layerId = m01;
shapes = (
{
closed = 1;
nodes = (
(101,-8,o),
(124,11,o),
(159,57,cs),
(252,178,ls),
(263,193,o),
(267,196,o),
(286,196,cs),
(379,196,ls),
(394,196,o),
(399,192,o),
(409,178,cs),
(494,57,ls),
(525,13,o),
(551,-8,o),
(578,-8,c),
(648,0,l),
(653,30,l),
(649,34,l),
(611,36,o),
(582,54,o),
(556,92,cs),
(482,198,ls),
(458,233,o),
(439,245,o),
(394,245,cs),
(276,245,ls),
(220,245,o),
(204,231,o),
(168,184,cs),
(97,93,ls),
(67,54,o),
(40,36,o),
(5,35,c),
(1,30,l),
(6,0,l),
(76,-8,l)
);
},
{
closed = 1;
nodes = (
(506,452,l),
(167,452,l),
(72,454,l),
(67,416,l),
(68,413,l),
(127,404,o),
(138,398,o),
(183,337,cs),
(268,223,ls),
(289,194,o),
(295,178,o),
(295,147,cs),
(295,107,ls),
(295,53,o),
(286,45,o),
(235,37,c),
(230,-4,l),
(279,0,o),
(307,0,o),
(322,0,cs),
(342,0,o),
(375,-1,o),
(426,-4,c),
(435,37,l),
(432,42,l),
(412,41,o),
(401,41,o),
(395,41,cs),
(368,41,o),
(361,50,o),
(361,88,cs),
(361,186,o),
(362,194,o),
(380,215,cs),
(484,335,ls),
(534,392,o),
(545,400,o),
(595,414,c),
(601,450,l),
(596,454,l)
);
},
{
closed = 1;
nodes = (
(344,245,l),
(334,245,l),
(331,259,o),
(224,378,o),
(224,400,cs),
(224,410,o),
(231,413,o),
(249,413,cs),
(450,413,ls),
(469,413,o),
(475,410,o),
(475,400,cs),
(475,392,o),
(468,382,o),
(448,360,cs)
);
}
);
width = 657;
}
);
locked = 1;
production = uni046B;
unicode = 1131;
}
{
color = 2;
glyphname = "fita-cy";
kernLeft = o;
kernRight = o;
layers = (
{
.lastUpdate = 731845427.516;
background = {
shapes = (
{
closed = 1;
nodes = (
(85,197,o),
(181,198,o),
(243,198,cs),
(432,199,l),
(437,238,l),
(422,252,l),
(422,252,o),
(335,247,o),
(268,247,cs),
(201,247,o),
(83,248,o),
(83,248,c),
(74,206,l),
(85,197,l)
);
},
{
closed = 1;
nodes = (
(370,-12,o),
(473,99,o),
(473,242,cs),
(473,373,o),
(391,464,o),
(275,464,cs),
(142,464,o),
(39,353,o),
(39,210,cs),
(39,79,o),
(119,-12,o),
(236,-12,cs)
);
},
{
closed = 1;
nodes = (
(179,37,o),
(119,119,o),
(119,239,cs),
(119,344,o),
(168,410,o),
(245,410,cs),
(331,410,o),
(391,326,o),
(391,206,cs),
(391,102,o),
(342,37,o),
(265,37,cs)
);
}
);
};
layerId = m01;
shapes = (
{
ref = "obarred-cy";
}
);
width = 510;
}
);
locked = 1;
production = uni0473;
unicode = 1139;
}
{
color = 2;
glyphname = "izhitsa-cy";
kernLeft = v;
kernRight = v;
layers = (
{
anchors = (
{
name = top;
pos = (224,452);
}
);
background = {
shapes = (
{
closed = 1;
nodes = (
(249,-1,l),
(354,286,ls),
(383,367,o),
(393,376,o),
(438,368,c),
(445,375,l),
(447,403,o),
(442,426,o),
(426,455,c),
(365,450,o),
(355,437,o),
(309,305,cs),
(233,86,l),
(227,86,l),
(181,235,o),
(142,379,o),
(142,397,cs),
(142,415,o),
(155,421,o),
(201,423,c),
(207,454,l),
(205,459,l),
(165,455,o),
(115,452,o),
(85,452,cs),
(2,453,l),
(-4,420,l),
(-2,416,l),
(32,415,o),
(55,398,o),
(66,366,cs),
(92,289,o),
(142,133,o),
(188,-17,c)
);
}
);
};
layerId = m01;
shapes = (
{
closed = 1;
nodes = (
(249,-1,l),
(348,286,ls),
(376,367,o),
(391,376,o),
(436,368,c),
(443,375,l),
(444,403,o),
(439,429,o),
(427,455,c),
(366,450,o),
(347,437,o),
(304,305,cs),
(233,86,l),
(227,86,l),
(181,235,o),
(142,379,o),
(142,397,cs),
(142,415,o),
(155,421,o),
(201,423,c),
(207,454,l),
(205,459,l),
(165,455,o),
(115,452,o),
(85,452,cs),
(2,453,l),
(-4,420,l),
(-2,416,l),
(32,415,o),
(55,398,o),
(66,366,cs),
(92,289,o),
(142,133,o),
(188,-17,c)
);
}
);
width = 445;
}
);
locked = 1;
production = uni0475;
unicode = 1141;
}
{
color = 2;
glyphname = "Gheupturn-cy";
kernLeft = H;
kernRight = "Ge-cy";
layers = (
{
background = {
shapes = (
{
closed = 1;
nodes = (
(423,701,ls),
(412,639,o),
(384,626,o),
(321,626,cs),
(36,626,ls),
(-27,626,o),
(-55,639,o),
(-66,701,cs),
(-84,805,l),
(-135,801,l),
(-128,726,o),
(-125,660,o),
(-124,585,c),
(-116,575,l),
(-56,573,ls),
(-33,572,o),
(-26,560,o),
(-26,520,cs),
(-26,428,o),
(-32,220,o),
(-40,82,cs),
(-42,46,o),
(-56,35,o),
(-112,28,c),
(-116,-17,l),
(-88,-13,o),
(-42,-11,o),
(-1,-11,cs),
(392,-11,l),
(399,33,l),
(397,37,l),
(311,35,o),
(291,40,o),
(296,81,cs),
(312,215,ls),
(338,429,o),
(353,524,o),
(473,575,c),
(481,585,l),
(482,660,o),
(485,726,o),
(492,801,c),
(441,805,l)
);
}
);
};
layerId = m01;
shapes = (
{
closed = 1;
nodes = (
(424,717,ls),
(412,643,o),
(403,637,o),
(310,637,c),
(221,637,o),
(146,638,o),
(77,640,c),
(70,596,l),
(72,592,l),
(89,593,o),
(99,594,o),
(106,594,cs),
(136,594,o),
(143,583,o),
(143,540,cs),
(142,120,ls),
(142,64,o),
(126,46,o),
(64,34,c),
(58,-12,l),
(111,-4,o),
(155,0,o),
(182,0,cs),
(207,0,o),
(254,-2,o),
(321,-4,c),
(330,43,l),
(328,47,l),
(306,46,o),
(272,44,o),
(257,44,cs),
(222,44,o),
(213,58,o),
(213,112,cs),
(227,548,ls),
(228,585,o),
(232,587,o),
(292,587,cs),
(339,587,o),
(372,585,o),
(463,576,c),
(467,582,l),
(469,642,o),
(475,705,o),
(486,782,c),
(435,786,l)
);
}
);
width = 482;
}
);
locked = 1;
metricLeft = "=Ge-cy";
production = uni0490;
unicode = 1168;
}
{
color = 2;
glyphname = "gheupturn-cy";
kernLeft = n;
kernRight = "ge-cy";
layers = (
{
background = {
shapes = (
{
closed = 1;
nodes = (
(81,-3,o),
(121,0,o),
(146,0,cs),
(166,0,o),
(205,-1,o),
(254,-3,c),
(261,41,l),
(258,46,l),
(242,45,o),
(217,43,o),
(205,43,cs),
(179,43,o),
(173,53,o),
(173,87,c),
(183,380,l),
(184,405,o),
(187,406,o),
(238,406,cs),
(334,406,o),
(342,401,o),
(342,353,cs),
(342,336,o),
(342,325,o),
(340,299,c),
(386,302,l),
(389,352,o),
(393,406,o),
(403,454,c),
(399,460,l),
(358,454,o),
(300,452,o),
(173,452,cs),
(137,452,o),
(87,453,o),
(58,454,c),
(53,414,l),
(56,409,l),
(67,410,o),
(75,411,o),
(80,411,cs),
(102,411,o),
(108,404,o),
(108,373,cs),
(107,93,ls),
(107,54,o),
(94,41,o),
(49,33,c),
(44,-8,l)
);
}
);
};
layerId = m01;
shapes = (
{
closed = 1;
nodes = (
(338,519,ls),
(326,457,o),
(319,452,o),
(244,452,cs),
(185,452,o),
(124,453,o),
(58,454,c),
(53,414,l),
(56,409,l),
(67,410,o),
(75,411,o),
(80,411,cs),
(102,411,o),
(108,403,o),
(108,373,cs),
(107,93,ls),
(107,54,o),
(94,41,o),
(49,33,c),
(44,-8,l),
(77,-3,o),
(117,0,o),
(146,0,cs),
(177,0,o),
(220,-1,o),
(254,-3,c),
(261,41,l),
(258,46,l),
(242,45,o),
(217,43,o),
(205,43,cs),
(180,43,o),
(173,52,o),
(173,87,cs),
(183,380,ls),
(184,405,o),
(186,406,o),
(223,406,cs),
(268,406,o),
(306,404,o),
(376,396,c),
(379,402,l),
(380,444,o),
(383,487,o),
(391,552,c),
(345,556,l)
);
}
);
width = 379;
}
);
locked = 1;
production = uni0491;
unicode = 1169;
}
